<?xml version="1.0" encoding="utf-8"?>
<!DOCTYPE svg PUBLIC "-//W3C//DTD SVG 1.1//EN" "http://www.w3.org/Graphics/SVG/1.1/DTD/svg11.dtd">
<svg version="1.1" xmlns="http://www.w3.org/2000/svg" xmlns:xlink="http://www.w3.org/1999/xlink" viewBox="399 -302 917 764">
<g>
	<defs>
		<rect id="SVGID_1_" x="399" y="-302" width="917" height="764"/>
	</defs>
	<clipPath id="SVGID_2_">
		<use xlink:href="#SVGID_1_"  overflow="visible"/>
	</clipPath>
	<g clip-path="url(#SVGID_2_)">
		<path vector-effect="non-scaling-stroke" fill="#59BDF5" stroke="#FFFFFF" d="M817.6,273.8l-0.6-5.6l0.9-2.6l-1.8-9.9l-3.3-0.4
			l-1.1,3.7l-7.9-7.8l1.5-9.3l-2.6-10.5l-0.6-15.1l2-9.5l4.5-8l4-3l3.3,0.8l4.8-1.9l8.4,0.6l7.6-8.2l5.2-7.5l5.8-0.7l8.4-5.4
			l-3.7,6.2l3,4.7l-1.3,3.1l2.1,4.8l-3.9,3.6l-2.7,7.6l2.9,6.5l0.7,5.9l3.1,1.7l7.6-1.1l3.4,2.9l-0.7,3.8l-3.7,3.9l-1.3,2.4
			l-2.6-1.5l-1,4.1l-3.8-3.1l2.3-3.1l-1.9-1.1l-4.1,5.6l2.4,4.2l-1.7,6.4l-6.3-0.9l-0.3,1.4l3.8,0.9L848,246l-8.8,0l4.6,5.4l9.4-2.5
			l6.4,2.3l4.6,1.1l2.6,5.4l-2.3,13.4l4.8-6.9l0.4,5.1l-4.6,10.5l-2.9-5.3l-2-4.2l-5-2.8l-4.3-0.8l-5.3-4.4l-1.5-4.6l-2.1-2.2
			l-2.6-1.9l-0.5,4.6l2.7,3l-0.1,3.1l-3.3,0.2l1,4.4l4.2-1.4l6.6,4.6l1.2,3.1l-5.1-0.4l-5.5,0l-1.4-0.5l-3.4,2.1l0,0l-0.2-0.3
			l-0.2,0.1l-1.6,1.2l-1.6-0.1l-0.3-1.6l-3.8-0.6l-2.8-1l-2.7-0.2l-1.8,0.4l-1,0.1l-1.3-0.7l-0.2,0.1l-0.3,0L817.6,273.8z"/>
		<path vector-effect="non-scaling-stroke" fill="#58BCF4" stroke="#FFFFFF" d="M906.3,245.8l2.4,4.3l-6.8-1l-4.6,5.7l5.5,2.8
			l1.6,4.2l-8.4,2.3l2.9,4.4l9.5,2.6l-7.6,3.2l-6.7,11.2l-10.4-3.5l-13-4.6l3.4-5.1l5.6,0.6l5,3.3l6.9-2.3l0.6-5.1l-5.7-5l-10.6-0.3
			l-1.4-5.7l-3.1-8.9l2.6-5.9l9.3-5.5l7.9-4.6l8.8-2.4l5.7,2.5l-2.3,5.2l2.9,5.4L906.3,245.8z"/>
		<path vector-effect="non-scaling-stroke" fill="#59BDF5" stroke="#FFFFFF" d="M1014.2-224.6L1014.2-224.6l0.1,0.1l0.5,0.1l0.6,0.1
			l2.1,0.2l1.8,0.6l1.7,1.2l0.8,1.1l-1,0.6l0.9,1.6l3,0.5l12,7.6l13.8,5.4l13,3.4l8.9,8.1l8.8,5.6l-1.5,7.3l0.7,10.3l7.7,1.9
			l-2.3,3.6l-2.7,1.5l3,4.4l10,11l-1.6,4.9l-3.1,6.5l2.4,10.2l6.4,5.5l5.9,8l0,0l0,0l-6.4,3.1l-8.8-1.7l-5.1,3.6l-10.2-2.2l-6.9-2.4
			l2.2,14.8l-12.4,1.7l0.8,10.8l-7.2,9.3l4.1,8.3l6.1,4l-1.1,2.7l-0.4,0.4l0,0l-9.3-3l-17.2,2.6l-12.4-8.4l-27.1-11.4l-4.3-9.3
			l-10.9-1.3l-67.4-25l0,0l-0.1-0.3l-1.1-3.5l10.1-1l8.6-4.6l-3.3-6.9l12.2-17l6-3.7l-7.1-10.6l-0.2-5l6.7-1.9l3.7-13.5l10.2-6.5
			l11.1,5.3l3.8-9l-2.6-11l5.6-2.1l5.7,3.6l6.2-0.9l18.8,5.1l4.8-4.3l-6.1-3.3l5.8-8.2l-6.1-8.2L1014.2-224.6L1014.2-224.6z"/>
		<path vector-effect="non-scaling-stroke" fill="#59BDF5" stroke="#FFFFFF" d="M912.2-116.8l67.4,25l10.9,1.3l4.3,9.3l27.1,11.4
			l12.4,8.4l17.2-2.6l9.3,3l0,0l0,0.3l-8.8,10.9l-4.9,10.3l-13.5,5.7l-22.8,16.4L987,32.2l2.3,33.3l1.4,3.9l0,0l0.4,0.3l-17.4,0
			l-18.6-9l-24.3-8.6l-52.2-26.2l0,0l0.1-1.6l0.6-7.2l0.2-1.8l-0.3-0.8l-1.5-2.6l-2.9-5l-1-1.6l-0.6-1.3l0,0l1.2-5.8l-2-5.3l3-3.5
			l-6.3-9.3l5.4-7.3l-2.5-4.2l3.7-4.1l3.7-5.7l2.9-4l3.8-2.2l6.3-1.5l15.8,2.7l3.1-5.9l0,0l0-0.5l-1.8-9.2l-9.7-3.9l11.5-19.5
			l2.6-6.7l-1.2-12.1l1.6-5.6L912.2-116.8z"/>
		<path vector-effect="non-scaling-stroke" fill="#59BDF5" stroke="#FFFFFF" d="M878.6,25.9l52.2,26.2l24.3,8.6l18.6,9l17.4,0
			l-0.4-0.3l0,0l1.5,0.8l9.3,3.6l5.3-1.6l6.5,6.4l4.1-3.1l6.2,8.7l4.8,7l6.2,8.4l-2,6.6l0.7,11l-8.4,7.4l-9.5,8.7l-9.5,1.3l-9.4,6.1
			l-5.2,20.3l0.5,17.2l-0.2,0.9l-0.4,0.5l0,0l-0.7,0.2l-25.9,0.3l-25.7,1.9l-24.4-1.4l-28,2.7l0,0l-0.7-3l-6.4-9.9l-4.9-6.9
			l-5.8-11.7l-1.3-10.8l-3.4-6.4l0,0l12.4-2.1l2.8-12.3l-4-12.9l4.1-3.1l-1.5-6.2l14-4.4l0.2-14.2l-9.9-20.6l9.3-1.6l3.8-9.9l-8-7.6
			l-2.5,0.2l-6.4-5.5l0.5-5L878.6,25.9 M1024.6,188.8l3.6,7.7l-0.3,5.5l4.9-4.1l0.3-5.2l5-3.2l3.7-6.1l-2.9-7.4l7.1-13.3l-19.6,7.7
			l-3.3,10.8l2.9,3.9L1024.6,188.8z"/>
		<path vector-effect="non-scaling-stroke" fill="#59BDF5" stroke="#FFFFFF" d="M886.3,183.4l28-2.7l24.4,1.4l25.7-1.9l25.9-0.3
			l0.7-0.2l0,0l2.8,4.3l-5.7,6.3l3.2,6.9l-3.9,9.9l-3.4,10.2l-3.2,9.7l-3.7,5.2l-15-2.8l-9.5-0.3l2.3,6.2l-7.3-0.8l-5.9,5.9l4.1,9.1
			l-2.6,6.8l-6-2.1l-8.1,1.8l-5.8,2l-8.4-1.9l-1.3-3.5l-0.6-4.1l3.8-2l-3.9-4.5l-3.9-5.4l-3.7-5.8l-3.3-6.6l8.4,1.8l-6.5-6.1
			l7.3-1.8l-1.6-7.6l-10.6-8.8l-7.7-9.8l-2.5-3.9l-3.1-4.5L886.3,183.4 M1001.3,186.5l1.9,2l-1.6,5l-3,11.3l-4.2,11.6l-2.7,10.2
			l-2.9-8.5l1.3-6.7l3.3-8.5l2,0l3.3-8.7l-0.3-2.6l0.6-3L1001.3,186.5z"/>
		<path vector-effect="non-scaling-stroke" fill="#62C6FD" stroke="#FFFFFF" d="M863.7,134.7l0.3-2.8l-8.7-12.6l-3.9-14l-9.4,3.2
			l6.3,7.4l0.8,7.3l-1.4,4.4l-2.3,1.4l0,0l-4.4-3.1l-9.7-6.2l-4.4-7.8l-5.7-7l-15.3-7.2l0,0l0.3-0.1l4.5-3.8l6.1-1l4.2-1.8l0.3-5.6
			l-6.4-4l-12.7-5.2L796.8,66l-5.6-14.1l0,0l4.9-2.5l14.3-5.7l7.8-2.3l2.7-8.1l3-10.9l13.9-7.7l14.1-3.7l9.6-2.2l3.1-0.8l2.7-0.8
			l2.7-1.2l3.3-1.9l0,0l0.6,1.3l1,1.6l2.9,5l1.5,2.6l0.3,0.8l-0.2,1.8l-0.6,7.2l-0.1,1.6l0,0l-0.3,3.7l-0.5,5l6.4,5.5l2.5-0.2l8,7.6
			l-3.8,9.9l-9.3,1.6l9.9,20.6l-0.2,14.2l-14,4.4l1.5,6.2l-4.1,3.1l4,12.9l-2.8,12.3L863.7,134.7z"/>
		<path vector-effect="non-scaling-stroke" fill="#62C6FD" stroke="#FFFFFF" d="M845.4,128.9l-2.3,0.6l-14.7,5.1l-13.7,12.9l-10.2,9
			l-9.3,7.4l-17.6-0.7l-19.8-6.4l-14.9-7.2l-3.5-14.4l0.7-6.4l8.7-0.8l5.4-8.7l-0.3-6.3l-15,8.7l-9.5,3.2l4-10.2l1.2-6.6l9-2l4-7.8
			l2-2.9l2.6-5.2l6.6-7.7l0,0l6.3-2.9l4.1-2.6l5.3-2.3l4.5,3l3.1,2.3l4.7,3l5.6,4.4l4,3l2,1.3l2.4,2.5l1.4,1.9l3.6,1.6l0,0l15.3,7.2
			l5.7,7l4.4,7.8l9.7,6.2L845.4,128.9z"/>
		<path vector-effect="non-scaling-stroke" fill="#59BDF5" stroke="#FFFFFF" d="M723,25.9l6.6-5.1l7.4-7.5l12.8-3.6l8.3-1.8l0.2-5
			l2.6-3.2l5.5-1.4l-1.2-6l9.9-3.9l10-2.2l7.6-3.5l2.5-4.2l10.3-3.2l5.5-2.5l6-2.3l3.8-2.2l3.8,3.7l0.9,2.1l0.4,4.3l2.7,1l1.4-2.7
			l1.8-2.4l8.8,0.6l6.5-0.2l-2.7-2.7l-0.2-4.5l4.8-2.8l-12.5,3.5l-5.2,3.8l-6.1-2.4l-3.1-4.1l-5.5-0.6l2.9-4.4l6.1-3.8l1.4-5.1
			l8-7.8l3.1-6l8.3-3.1l7.3-3.7l0,0l7.1-0.9l10.5,4.2l5.9,3.1L885-60l10.7,2.4l6.5,1.8l6.4,2.4l3,1.2l0,0l-3.1,5.9L892.6-49
			l-6.3,1.5l-3.8,2.2l-2.9,4l-3.7,5.7l-3.7,4.1l2.5,4.2l-5.4,7.3l6.3,9.3l-3,3.5l2,5.3l-1.2,5.8l0,0L870,5.9l-2.7,1.2L864.6,8
			l-3.1,0.8l-9.6,2.2l-14.1,3.7L824,22.4l-3,10.9l-2.7,8.1l-7.8,2.3l-14.3,5.7l-4.9,2.5l0,0l-5.5-2l-5.7-3.7l-8.9-4.2l-6-3.4
			l-5.8-3.3l-11.1-2.7l-8.2-1.4l-6.6-1.9L723,25.9z"/>
		<path vector-effect="non-scaling-stroke" fill="#64C8FF" stroke="#FFFFFF" d="M853.7-68.9l-3.8-3.5l-4.4-1.9l-4.3-0.3l-3.6-0.5
			l0.9-2.2l3-2.1l5.6-1l2.8,2.7l5.2-0.9l4.3-2.1L862-84l4.2-0.9l0.9-2.4l2.2-0.6l1.6-2.6l0.9-1.5l-3.3,1.8l-1.9,1.8l-1.8-0.5
			l1.9-4.7l0.7-2.2l0.8-9.9l4.3-6l4.5-3.2l-6.9-3.1l-4.5,3.5l5.3-8.5l7.3-5.7l2.5-9.9l8.5-6.5l4.4-7.3l7.8-4.3l7.4-3.4l0.3-8
			l5.9-4.8l-2.4-4.9l3.9-9.6l4.8-2.4l12-3l5.9-3.5l2.4-4.3l18.1-1.7l-11-2.4l-21.2,3.7l-9.9,2.4l-7.7,3.5l-19,2.2l-11.4,5.6
			l-7.9,6.4l-0.6-5.8l6.1-6.4l13.6-4.4l15.6-5.3l12.1-4.9l-13.5,1.3l-7.3-3.8l5.2-5.6l7.3-5.9l5.7,4.6l0-6.1l4.9-7.7l8.6-2l1.2,8.2
			l-5.8,4.2l3.6,4.7l9.7-6.5l3.5,6.9l-0.8,5.9l9.2-6.6l2.5-5.9l5.6-4.8l6.5-1.7l0.4-5.5l2.6-4.9l7.2,3.1l-0.2-4.1l1.4-1.9l8.4,2.6
			l-1.5-6.4l5.5-4.4l9.3,0.4l-3.7,7.3l4.5-5.2l1.1-5.6l5.5-1.9l0.6,7.7l0.2,8.1l2.3,1.3l1.6-7.3l-0.6-5.3l-0.5-2.9l0.7-3.2l8.2,1.7
			l2.6-3.7l7.8-0.4l6.7,2.3l-3.6-5.5l-8.1-1.2l1.2-4.5l3.6-2.7l9.5,1.9l7.6,2.7l-1.2-5.7l5.4-1.9l4.4-4.7l5.5-3.4l2.6-3.4l10,2.4
			l7.5,0.4l-4.6-4l-0.1-4l1.7-3.6l11.5,2l6.9,1.6l-2-5.2l1.5-4.3l10.4-1l1,5.7l-5.9,2.6l-2,7.4l-5.3,5.5l-0.7,7.7l2,7.3l5-5.6l3-6.5
			l5.9-6.5l6.5-9l5.9,2.4l-1.2,8.4l0.5,5.6l4.6,0.4l2-7l0.5-4.9l-0.1-7.1l3.1-3.8l6.1-0.1l12,2l5.5,3.9l-5.1,3.9l-3.5,7.2l6.3,3.7
			l2.9-8l1.5-3.6l6.8-2.2l8.6,6.1l5.7-1.7l10.1,2.3l5.4,4.5l9.7,3.6l4.2,4.8l-6.1,2l-4.9,3.3l-5.2,2.2l-8.9-0.8l-13.5-1l-6.6,0.2
			l6,4.1l9.8,0.8l6.6,1.2l4.6,1.7l5.9,0.4l5.7,2.5l4.9,0.4l0.6,0.2l2,1.8l-0.3,0.7l1.4,1.4l0.8,1.3l0.8,2.8l-2.5,0.7l-5.3,0
			l-3.6-2.3l-5-2.1l-0.7,0.7l1,0.7l1.1,1.1l0.3,1.7l-0.9,0.9l0.3,2.4l-2.5,1.8l-2-0.4l-2.1,1.6l-2.4,2.2l-1.1-0.5l-2.4,0.2l-1.7,1.1
			l-0.1,1.4l1.1,0.9l-0.3,2.6l0.2,1.3l-1.8,1.9l-1.1,1.6l-2.4-1l-0.3-0.1l-1.6-0.8l-1.3-1.1l-0.7-4.1l4.8-4.7l2.7-4.3l-2.7-5.7
			l-10.7-2.4l-20.8-13.3l-10.2,6l-17.4,4.1l-5.7,11.4l0.7,18l-10,12.5l-23.7-3.4l-18.3,2l-12.5-7.6l-21.2-13.9l-3.5,8.3l-8.4,2.1h0
			l-9.3,0.4l6.1,8.2l-5.8,8.2l6.1,3.3l-4.8,4.3l-18.8-5.1l-6.2,0.9l-5.7-3.6l-5.6,2.1l2.6,11l-3.8,9l-11.1-5.3l-10.2,6.5l-3.7,13.5
			l-6.7,1.9l0.2,5l7.1,10.6l-6,3.7l-12.2,17l3.3,6.9l-8.6,4.6l-10.1,1l1.1,3.5l0.1,0.3l0,0l2.3,7.2l-1.6,5.6l1.2,12.1l-2.6,6.7
			L900-65.8l9.7,3.9l1.8,9.2l0,0.5l0,0l-3-1.2l-6.4-2.4l-6.5-1.8L885-60l-7.7-2.6l-5.9-3.1l-10.5-4.2L853.7-68.9 M959.2-227.4
			l-6.6,0.9l-1.7,2.6l-8.6,0.7l1-3.6l1.1-4l0.3-3.9l4.2-3l6.8-3.6l6.3,0.3l1.8,3.2l-1.1,2.6l0.1,3.3l1.2,2.4L959.2-227.4 M972.6-241
			l-5.5,0.7l-2.4-0.5l-1.9-1.7l1-1.2l2.4-0.6l0-1.9l2.2-0.4l0.4-2.5l2.8-0.6l3,0.2l1.4-0.1l-1.9-1.3l0.1-2.5l-2.5-5.4l2.1-2.1
			l4.8-0.9l3.5,1l6.5,1.7l3.3,2.3l4.7,0.5L994-253l-5.9,1.8l-3.6,0.7L980-249l-1.5,2l2,0.6l-1.8,2.7L976-242L972.6-241z"/>
		<path vector-effect="non-scaling-stroke" fill="#62C6FD" stroke="#FFFFFF" d="M758.8,82.5l-4.9,0.9l-5.5,6.4l-5.2,1.6l-7.6,0.2
			l-8.8,0l-1.1-5l-1.9-6.5l-1.6-6.1l0.4-3.6l2.2-3.6l6.4,1.3l3.1-0.6l-5.1-3l-4.5-0.9l-0.8-1.9l2.1-1.9l8-1.9l5.9,0l4.1-0.2l6.1-1.1
			l3.8,0l1.9,1.3l2.4,0l3.3-0.9l1.1-2.3l-1-1.4l-1.8-0.1l-0.7,2.3l-2.9,1.3l-4.1-1.4l-4.4-0.6l-3.8,0.3l-3.4,0.8l-6.9,1l-3.4-0.6
			l-4.7,1.6l-4.8,1.3l-0.1-3.3l3.3-2l2.4-2l0.2-2l2.5-5.5l7-1.1l-3.9-2.6l-4.7-0.7l-3.8-2l0.8-3.5l-2.7-2.4l1.4-6.4l0,0l10.4,3.5
			l6.6,1.9l8.2,1.4l11.1,2.7l5.8,3.3l6,3.4l8.9,4.2l5.7,3.7l5.5,2l0,0l5.6,14.1l5.4,10.1l12.7,5.2l6.4,4l-0.3,5.6l-4.2,1.8l-6.1,1
			l-4.5,3.8l-0.3,0.1l0,0l-3.6-1.6l-1.4-1.9l-2.4-2.5l-2-1.3l-4-3l-5.6-4.4l-4.7-3l-3.1-2.3l-4.5-3l-5.3,2.3l-4.1,2.6L758.8,82.5z"
			/>
		<path vector-effect="non-scaling-stroke" fill="#57BBF3" stroke="#FFFFFF" d="M1218.5,70.4l-2.7,3.1l-4.2,0.5l-5.3-2.9l-6.1,0.5
			l-2.6,2.7l-5.1,2l-4,0.3l-5.4-0.6l0.5,2.5l-2,2l-3.9,2l-3.5,0.6l-2.2-1.9l-2.8,1.8l-4.3,0.1l-1.4,2.5l-7.2,0.9l-5.8,5.1l-3.8-1.5
			l-2.8-0.7l-3.8,2.8l-4.9,2.2l-6.2,1.7l-3.2-0.5l-2.2,2.4l-3.4-0.3l-1.5-1.9l2.1-2l-4.5,0.1l-2.2-1.9l-5.4,0.5l-4.5-2.6l0.4-3.3
			l-3.3-1.1l-2.2-1.9l-2.4-1.9l1.4-2.9l-2.1-1.5l-2.6,1.6l-3.5-1.3l-1-2.1l-4.4-0.5l-5.7,0.3l-1.6-2.4l-0.7-3.2l2.1-1.9l0.2-3.2
			l-1.9-1.3l-1.6-2.8l0.7-3.2l0.8-2.6l2.9-1.4l-0.7-3.2l0.9-1.7l0.2-3l-2.1-2.7l3.8-4.1l-4.4-2.9l3-0.2l-1.6-2.5l-4.1-4.9l-3.7-6.8
			l1.1-6l-2.5-4.1l-3.5-3.2l-1.4-7.3l-1.6-2.5L1064-6l4.6-6.1l-1.2-1.9l4.8-1.8l-3.4-2.7l0.3-4l2.6-2.1l4.2,0.6l3.3-2.1l3.8,1.8
			l2.9-1.6l-3.9-3.9l0.6-4.3l4.1,2.5l0.7-2.4l0.9-4.1l5.6,0.6l-0.4-3.4l2.5-2.6l5.7-2.3l1.5-5.4l3.4-0.1l1.2-4.7l4.6-3.1l5.2-8.1
			l3.6-7l1.1-5l6.2-1.4l7.6,1.2l-3.7-5.2l6.5,1.2l-4-4.3l-2.3-1.3l-0.3-9.2l0.6-2.4l-5.2-3.9l-6.7-2.6l-5.4-0.4l-1.8-2.5l-5.5-2.1
			l-2.1-1.2l-5.9-8l-6.4-5.5l-2.4-10.2l3.1-6.5l1.6-4.9l-10-11l-3-4.4l2.7-1.5l2.3-3.6l-7.7-1.9l-0.7-10.3l1.5-7.3l-8.8-5.6
			l-8.9-8.1l-13-3.4l-13.8-5.4l-12-7.6l-3-0.5l-0.9-1.6l1-0.6l-0.8-1.1l-1.7-1.2l-1.8-0.6l-2.1-0.2l-0.6-0.1l-0.5-0.1l-0.1,0l-0.1,0
			h0l8.4-2.1l3.5-8.3l21.2,13.9l12.5,7.6l18.3-2l23.7,3.4l10-12.5l-0.7-18l5.7-11.4l17.4-4.1l10.2-6l20.8,13.3l10.7,2.4l2.7,5.7
			l-2.7,4.3l-4.8,4.7l0.7,4.1l1.3,1.1l1.6,0.8l-0.2,0.2l-8.7,4.1l2.3,2.4l5-0.4l0.5,3.9l-3.4,6.8l5.7,12.7l15.7,4.5l8.5,9.7l7,3.6
			l0.9,5.3l-12.8,20l2.3,5.7l19.3,21.4l3.9,3.3l7.1,14.3l-4.6-0.5l-3.6,1.7l4.4,3.4l-1.8,2l0.7,4.8l-2.9,3l5.6,0.8l2,4.5l-4.1,1.4
			l2,8.5l6.6,1.5l3.5,5.2l-1.7,2.4l3,6.9l9.8,3.1l2.1,6.7l-2.3,9.6l-5.3,2.5l8.9,6.6l5.6,4.3l7.2,1.5l7.7,5.4l1.7,3.4l8.6,7.1
			l-2.2,10l-3.1,6.5l-8.7,8.5l-8.1,13.6l-9.1,12l-12.5,14l-1.6,5.7l-4.5,0.9l-9.9,9.3l-1.2,5.7 M1053.4,79.3l3.8,3.9l3-0.5l2.2,1.7
			l0.9,3.2l3,2.3l0.5,2.9l-4.5,0.9l-5.5-0.3l-2.8-2.7l-3.4-0.6l-3.9-1.5l-2.7-1.5l-1.4-0.5l-0.8-3.5l2.6-2.6l2.3-2.5l3.4-0.6
			L1053.4,79.3z"/>
		<path vector-effect="non-scaling-stroke" fill="#57BBF3" stroke="#FFFFFF" d="M1161,165.4l1.1-8.7l-1.3-3.2l2.6-3.5l-5.5-2.3
			l-3.3,4.7l-9.4-2.5l-6.2-8l-0.9-5.4l3.2-2.7l-5.1-0.1l-1.1-5.4l-0.1-5.2l-0.8-4.9l11-3.4l6.2-4.3l9.3-0.4l0.6-4.7l11.5,2.3
			l6.1-3.3l8.4-1.2l12.2,2.5l7,2.8l10,0.8l9.4,0.4l6.8-1.9l-1-0.4l4,3.1l-0.9,2.8l-3.7,0.9l-2.2,11.2l-6.7,5.3l6,13.5l-0.2,6.5
			l5.3,7.2l0.6,3.3l3.1,3.2l-4.2,3.8l-2.5,2.1l-1.1,4.6l0.7,1.6l0,0l-7.3-2.3l-3.5-1.7l-2.8,2l-3.6,1.9l-3.5-1.8l-5.5-2.7l-4.2-4.5
			l-0.9-2.2l-5.4-0.8l-5.6-2.7l-4.1-2.4l-3.1-1.7l0.3,3.2l-1.9-3.4l-3.4,1.4l-4.5,2.2l-5.2,1.2l-3.5,2.4l0.2,0.8l-1-0.3L1161,165.4
			L1161,165.4 M1112.9,127.4l1.7-2l0.8-2.2l2,0.6l0.7,2.3l4,0.7l1.9,1.4l1.9,2.3l1.3,2.4l-2.4-0.2l-1.9,1.4l-1.6,0.9l-1.3-1
			l-1.3,2.7l-0.6,1.4l-3.5-0.6l-0.2-1.4l-0.7-2.7l-2.1-2.8l-3.8,0.6l-2.9-0.9l-1.1-1.1l2.3,0.1l3.9,0l2.4,0L1112.9,127.4
			 M1110.9,142.8l5.4-2.9l6.3,0.6l4.8-0.2l3.3-2.3l3.4,0.2l1.7,2.9l0.4,2.7l-3.1,0.2l2.2,2.6l-4,0.4l-2.8,3.5l-3.6,1.9l-2.9,2.6
			l-5.6-0.8l-3.3,1.4l-0.2,3.8l-0.6,3.6l-2.6,2.2l-2.3-1.6l1.1-3.1l2-2.1l1.3-2.1l-3.9-0.9l-3.2-2.1l-3-2l3.5-1.7l-1.1-3.2l-0.5-2.7
			l3,1.4l1.2,2.6l1-3l0.9-1.7L1110.9,142.8z"/>
		<path vector-effect="non-scaling-stroke" fill="#41A5DF" stroke="#FFFFFF" d="M1161,165.4L1161,165.4l0.3,0l1,0.3l-0.2-0.8
			l3.5-2.4l5.2-1.2l4.5-2.2l3.4-1.4l1.9,3.4l-0.3-3.2l3.1,1.7l4.1,2.4l5.6,2.7l5.4,0.8l0.9,2.2l4.2,4.5l5.5,2.7l3.5,1.8l3.6-1.9
			l2.8-2l3.5,1.7l7.3,2.3l0,0l0.5-0.3l3.6-0.6l0.6,1.2l-0.1,2.6l2.3,1.1l3.9,2.5l2.7,1.9l-0.8,1.7l0.1,2.7l-1,1.7l-0.1,2.5l0.9,0.8
			l0.2,2.8l-1,0.5l-0.4,2l4.8-0.8l0.5,1.4l1.5-0.4l0.3,0.9l-0.6,0.8l-0.2,1.6l2,1.7l2.2,3.7l1.9,1.1l-0.4,1.6l2.4,2.2l0,2.2l2.5,4
			l-1.2,1.1l0.4,1.1l-0.6,1.4l-0.6,0.2l-1,0.8l-0.6,0.8l-1.4-0.5l-1.5,2.9l-2,0.6l0.4,0.7l-0.4,1.2l-1.3-0.1l-1.3,1.9l-0.9,1.4
			l0.9,1.6l-0.2,2l-5.6-0.7l-1.5,1l-1.9-1l-2.1-1.1l-0.9,0.8l-2.3,0.2l-2,2.2l-0.4,1.4l-1.1,0.4l-0.4,1l-0.8,0l-0.9-0.9l-1.5,0.1
			l0.1,0.3l-0.4,0.4l0,0.2l0,0l-5.9-1l-5.2-5.1l-4.9-3.8l-5.7-3.4l-5.2-2.7l-8.3-1.1l-3.4-0.5l-5.1-8l-5.8,2.7l-3.9,3.6l-7.1-0.2
			l-8.2-3.2l-9.1,0.1l-4.7,0.7l-2.3,1.2l-1.8-3.2l-5.8,0.5l-8.6-0.4l-5.9-0.2l-6.9,2.8l-5.4,1.9l-5.1,4.2l-1.2,3.2l-1,0.1l-1.7,0.5
			l0,0l-0.1-0.2l-3.9-9.9l0.5-10.9l-0.9-6.3l6.9-5.2l-1.2-10l6.3-10.5l17.6-7.1l6.9,9.6l7.1,4.9l5.3,8.7l8.1,4.3l9.4-2.9l7-6.8
			l-2.4-11.4l-2.6-6.8l0.3-1.1l-0.5-1.2l0.2-1l-0.1-0.3l0.1-0.3L1161,165.4z"/>
		<path vector-effect="non-scaling-stroke" fill="#41A5DF" stroke="#FFFFFF" d="M1096.9,230l1.7-0.5l1-0.1l1.2-3.2l5.1-4.2l5.4-1.9
			l6.9-2.8l5.9,0.2l8.6,0.4l5.8-0.5l1.8,3.2l2.3-1.2l4.7-0.7l9.1-0.1l8.2,3.2l7.1,0.2l3.9-3.6l5.8-2.7l5.1,8l3.4,0.5l8.3,1.1
			l5.2,2.7l5.7,3.4l4.9,3.8l5.2,5.1l5.9,1l0,0l-0.1,0.3l1,2.2l-2.7,2.8l1.6,2.6l-0.1,2.5l-1.3,1.7l3.5-0.3l5,1.9l-1.9,4l-3.6,1.2
			l-3.9,0l-3.2,1.7l0.9,1.5l-1.7,3.9l-5.3,0.7l-3.2,4.2l0.8,7.7l-1.2,3.6l0,3.4l-1.5,2.4l3.2,0.5l2.7,3.2l0.1,2.1l-2,1.6l-3.3-1.7
			l1-1.6l-2.5-3.6l-6.3,1.9l-2.8,4.8l-3.2-1.1l-2,0.7l-1.1,1.4l2.2,2.1l-3.4,3.7l-0.6-2.9l-3.6,2.5l-2,2.2l-3.4-1.5l-1.5-1.8l-2.3,1
			l-3,1.2l-2.2-1l-1.5,0.8l-0.9,1.6l-1.1-1.6l-2.6,0.5l-2.1-0.8l-0.5-0.4l-1.1-1.2l0.9-1.7l-0.9-2.5l-1.2-2l-0.8,0.1l-1.4-2.1
			l-0.9-0.4l-1.8-0.6l-0.9,0.1l-1.9-1.1l0-0.7l-0.6-0.2l-0.9,0.6l-1.2-0.6l0.3-0.7l-1.6-0.9l0.3-0.5l-2.8-0.8l-0.8-0.3l-0.6,0.3
			l-0.4,1.3l-0.5,0.2l-1.3-2.3l-0.8-2.1l-1.1-1.5l0.3-1.1l-0.3-0.7l1.5-2l-0.6-2.7l1.1-1.4l1.6-2.1l-2.9-3.4l-2.9-1.7l-2.7-3.7
			l-2.1,1l-4-0.4l-3.1,0.4l-0.9,0.9l-2.1-0.7l-0.2-1.2l-2.7-0.2l-2.3-0.5l-2.3-0.4l-0.8-1.9l-2.1-0.6l-1.8-0.3l-0.7,0.3l-1.4-1.1
			l-0.6-1l-0.6-0.6l-0.4-0.8l-0.5-0.2l-0.4,0.4l-0.5,0.4l-1.1,0.7l-0.1-1.8l-1-1.2l-1.6-0.4l1.1-2.9l-0.7-3l-0.8-1.1l-1.1-2.3
			l-2.5-4l-1.9-5.5l0.3-2.9l-0.6-3.3L1096.9,230z"/>
		<path vector-effect="non-scaling-stroke" fill="#DADADA" stroke="#FFFFFF" d="M948.3,306.6l0.5,2.7l1.6,1.1l3.9-1.4l3.3,3.1
			l-0.4,4.3l-7.9-2.7l6.3,16.2l-0.4,6.9l-5.3,3.8l-0.5,3.5l2.5,1.8l10.4,7.6l-1.9,5.2l1.5,4.9l2.8,2.8l1,8.5l-0.9,5l3.2,6.9
			l-0.5,3.1l4.4,2.4l1.9,4.1l1.4,3.6l-3,13.4l-18,74.5l-6.9-6.3l-2.4,0.5l-4.1-5l-2.8-1.7l-5.8-7.2l-4.2,0.5l-3.1-3.2l-3.7-7.2
			l-3.8-5l1.1-2.7l0.8-4l-4.8-0.7l-6.4-8.8l1.9-2.2l4.5,3.7l3.8-5.7l7.1-4l2,1.9l1.6-3.2l4.1-1l5.2-3.7l2.2,1.4l0.7-4.6l7.6-0.3
			l2.9-2.5l9.9-4.2l-3.5-4.8l4.2,0l4.2,3.6l-0.1,2.4l4.9,2.4l-166.8,114l-2-4.1l2.3-9.6l-1.4-2.6l2.2-5.9l2.6-2.8l0.2-6.9l1.4-4.6
			l6.4-6.6l1.9-5.1l-5.2-2.7l-8.8-0.2l-4.7-4l-3.9,2.3l-5.6,0l-3-3.3l-2.1,1.5l-3.7-0.2l-1.2-2.8l-2.8-5l-4.1-2.7l-0.4-0.7l0.1-2.5
			l-0.4-0.9l0.6-0.7l1.1-1.7l0-0.7l1.9-1.9l0.3-2.7l-0.9-0.1l-1.6-0.2l-1.9-1l-0.6,0.3l-0.6-0.9l-2.5-2l0.3-0.9l-1.1-0.6l-1.1-1.7
			l-0.4-1.7l0.4-2.2l0.4-1.1l-0.4-0.7l0.9-0.4l-0.2-1.5l1-0.7l1.7-0.9l0.8-1.7l1,0.4l1-0.7l-1.8-1.9l1-2l-1.1-1.1l-0.1-0.7l-2.4-0.1
			l-1.2-1.5l1.3-1.4l0.5-2l-1.1-0.6l-0.9-0.2l-1.6-2.4l-2.3,0l0.1-1l-0.7-0.9l-0.1-2.4l2.3-1.7l-3.2-3.1l-2.4-1.9l2.6-0.3l3.3-3.6
			l-1.4-2.9l2.9-5.8l-2.6-6.9l-1.1-2.9l-3.4-1.7l0.7-3.3l5.7-1l-0.3-1.7l7.1,1.4l6.1-1.9l2.8-2.4l-3.5-2.6l3.5-2.6l3.5-3.8l0.8-4.7
			l-2-3.5l-5.4-0.4l-0.6-2.8l1.5-2.3l7,0l-0.4-8.4l2.1-4.7l-1-4.9l0.6-2.8l0.7-1.5l0.2-2.3l-5.5-0.9l-0.2-4l0.7-2.5l1.8,0.9l0.6-1.3
			l-0.8-1l3.2-3.1l4.2-0.6l13.2-1.2l0.5,2.6l1.2,0.2l2.4,1.8l0.1,2.2l-1.9,0.6l0.5,2.6l1.2,0l1.5,1l1.8-1.6l0.4-2.5l-2.2-0.8
			l1.2-2.3l3.6,1.1l2.4,0.3l-1.2-2.6l0.2-2.7l1.4-5.4l2.1-1.1l2,1.9l3.7,0.8l3.7-0.6l2.1-0.8l3.2,1l1.4,2.2l1.4-0.1l-0.7-1.6l-3.4-2
			l-4.4-0.4l-3.1-1l-2-3.8l2-0.1l0.3-1.6l-2-1.7l-2.1-1.5l0.7-3.9l-4,0.4l-1.2-1.9l1.1-0.9l0.4-1.5l1-0.7l2.8,0.4l2.2-1.7l1.6-1.6
			l-2.1-0.8l-0.3,1.6l-2.4,0l-0.2-1.3l1.7-0.8l0.2-1.7l-0.9-0.8l-0.7-1l-1.6-1.9l-1.4-2.2l-1.1-2l-1.5-1.9l-2-0.4l-3.8-0.3l-0.7,1.3
			l0,2.4l-1-1.3l0.4-2.8l0.8-2l0.7-0.8l1,1.9l1.4,0.9l3.2,0.4l0.7-0.9l0.3-0.3l0.3,0l0.3,0l0.2-0.1l1.3,0.7l1-0.1l1.8-0.4l2.7,0.2
			l2.8,1l3.8,0.6l0.3,1.6l1.6,0.1l1.6-1.2l0.2-0.1l0.2,0.3l0.3,0.5l0.5,0.4l2.5-1.9l0.8,0.8l4.8,1.5l1.5,1.3l1-0.9l2,1.4l1.3,3
			l-0.1,3l-2,2.6l-2.5,1l1,0.3l2.9-0.4l2.4-0.8l2.5,1.2l-0.4,1.3l-1,2.4l1.9-2.1l2.2-1l4.8,1.8l3.8,2.6l5.3-2.4l3.9-0.5L875,290
			l-2.3-0.4l0.9-2.8l2.6,0.4l3.5,3.3l-1.6,0.9l-1.9,0.4l-0.5,1.2l-0.6,5.6l-3.1,3.6l-2.1,0.5l-1.3,1.1l0.9,1.7l2.6,0.3l4.5-0.6
			l3.1,0.8l1.2,1.5l3.1,0.4l1.3-1.8l2.2-4.2l2.6-2.2l4.2,0.2l5.6-1.9l3.8-3.6l2.4-3.3l1.2-2.6l3.2,0.6l5.8-0.3l1.1,1.2l-5.5,0.5
			l-4.1,0.7l-1.4,1.4l-1.2,2.6l2.8-0.9l2.1-2l1.7-0.9l2.6,0.9l3.2-1l2.1-1l1.9,2.6l2.2-0.9l0.8-1.5l-2.4-2.4l0.6-2.2l0.7-2.4l4-2
			l0.8,3l5.1,0.1l0.7,0.9l-1.5,2.6l-0.1,2.4l2.6,1.2l0.8,1.6l0.2,1.8l-1.7-0.9l-0.7-1.1l-3.6,0.7l-1.5,1.3l0.5,1.8L926,296l-3.3-1.2
			l0,1.4l2.5,1l3.6,2l1.6,1.2l4.9-1l1.6,1l0.9-1.7l1.5,1.2l4.9,3.3l2.8,2l1.3,1.5L948.3,306.6z"/>
		<path vector-effect="non-scaling-stroke" fill="#288CC8" stroke="#FFFFFF" d="M658.2,369.4l-10.3,11.9l-7.8,5.7l2.1,10.5l11.5,1.9
			l-0.4,8.7l-22.4,9.7l-34.6,2.4l-25.2,4.4l-21.4-3.9l-11.6,4.9l-7.1,12.7l-16.7-3.5l-22,13.7l-8.2-6l21.6-18.1l5.1-13.6l9.6-7.7
			l26.1,0.6l5.4-13.9l-5.9,8.1l-11.4-0.5l-8.1-9.1l-23.4-0.1l-10.1-9.6l27.3-12.7l2.1-20.1l-14.5,3.2l8-11.1l-4.9-9.7l6.7-2.7l8,7.4
			l23.1-4.1l0.8-16.5l4.3-11.8l-10.7,3.6l-7.8-16.2l9.5-16.9l-19.4,8.4l-7.4-4.5l0.3,8.9l-8.4-7.1l-4.2,5.8L499,271l13.7-19.2
			l-10.7-10l-5.3-6.7l1.2,9.3l-4,8.2l-0.8,8.3l-6.5-0.5l1-7.4l3.3-8.9l-0.7-8.9l3.4-4.3l-2.1-4.5l3.2-5.3l2.1-2.8l4.2-7l-9.9,6.5
			l-8.7-4.9l-4.8-3.2l10.7-1.2l0.1-7.8l2.7-6.3l-7.1,5.6l-0.9-2.9l-9.1-6.1l-5.9-5.6l10-8.8l4.7,11.8l5.5,3.8l0-11.2l2.7-11.7
			l10.8-1.4l-3-4.1l1.4-6.1l4.7-1.2l0.9-5.5l4.1-6.6l14,2.7l15.4-3l12.4-0.8l-0.1,7l-2.6,6.3l-16.6,9.7l-2.8,4.1l6.1,1l-6.6,7.6
			l16.3-3.7l8.8,1.9l14-0.8l8.3,0.2l4.6,8.1l-8.2,10l-2.1,10.9l-7.3,9.7l-6.3,4.9l1.1,5.1l3.2,1.7l-18.1,7l7.9,4.3l6.6-5.2l13.4,6.1
			l11.4,11.3l7.8,28.6l17.6,11.6l11.7,21.2l-1.5,7.7l7.2,7.8l4.1,10.6l-7.2,7.4l5.7,4.2l6.1-7.9l17,3.2l8.3,6.5l1.9,8.2L658.2,369.4
			 M448.3,207.7l8.2-11.1l1.1-9.5l4.3-10.2l9.4-6.7l7.1-5.3l-0.1-5.7l5.3-7.4l-2.3-3.5l-8.1,5.3l-9.8,4.3l-2.4,5.1l1.4,4.7l0.3,3.7
			l-4.4,5.1l-6.5,1l0.4,2.5l2.6,4.4l-1.3,6.4l0.8,6.6l-3.5,3.2L448.3,207.7 M555.4,117.9l3.5,5.7l7.8-5.3l-7.2,12.2l-4.6,10.5
			l-7.5-2.6l-4.5-3.2l2.9-9.3l5.1-0.2L555.4,117.9 M517.9,291.9l1.6,4.7l-2.9,4.5l-4.9,2.8l-3.9,0l2.7-5.4l2.5-2.8l2.1-2.6
			L517.9,291.9z"/>
		<path vector-effect="non-scaling-stroke" fill="#DADADA" stroke="#FFFFFF" d="M762.1,419.7l-6.6-0.7l-0.6-3.4l0.7-3.2l2.4-6.5
			l-6.9-2.9l-1.1-1.9l-6.2,0.7l-1.3-1.4l-3.8-5l-3.1,1.9l-1.6-1.9l-1.9-1.9l-2,3.8l-3.2-2.4l-3.1,0l-0.2,3.6l-4.1,0.7L719,402
			l-7.5,2.7l-6.6-3.8l-1.8,2.2l-3.2-1.2l-0.3-3.1l0.2-0.7l2.2-0.4l3.9,1.1l7,0.1l1.4-0.8l3.7,0.7l1.3-1.3l-5.1-2l-2.5,2.8l-4.1-1.2
			l-3.9-0.9l-3.1-3.2l3.1-2l4.7-0.3l3.5-0.1l-0.9-1.4l-1.7-1.3l-2.5-0.8l1.9-0.6l2-1.3l0.1-1.5l1.9-1.6l2.4,0.7l-0.3-1.9l-0.4-1.2
			l-1.7-1.5l2.3-0.8l2.9-1.9l7-9.7l1-5.2l0.6-2l2.5-12.7l0.9-3.1l-0.9-5.1l3.1-2.6l4.1-3.9l5.1-3.6l5.7-1.5l0.1,1.8l-7,2.2l-6,4.3
			L733,339l-1.3,2.9l2,3.4l2.9-1.8l1.6,2.1l1.1,3.8l2.7,0.3l1.1,2.2l-2.4,2.6l-3.2-0.1l0.2,3l0.1,3.4l-0.5,3.2l2.6,0.5l0.3-1.8
			l6.8-6.5l4.3-1.2l-0.9-5l2.7-3.6l-3.5,0.4l-3.8-0.7l-1-1.6l0.6-3.9l-0.5-2.5l1.6-4.7l2.7-2.2l6.4-3.2l6.9-1.1l2.9,0.2l10.4-2.1
			l2.5,0.9l2.4,3.4l3,1.5l2.5,1.8l0.5,0.8l-0.6,2.8l1,4.9l-2.1,4.7l0.4,8.4l-7,0l-1.5,2.3l0.6,2.8l5.4,0.4l2,3.5l-0.8,4.7l-3.5,3.8
			l-3.5,2.6l3.5,2.6l-2.8,2.4l-6.1,1.9l-7.1-1.4l0.3,1.7l-5.7,1l-0.7,3.3l3.4,1.7l1.1,2.9l2.6,6.9l-2.9,5.8l1.4,2.9l-3.3,3.6
			l-2.6,0.3l2.4,1.9l3.2,3.1l-2.3,1.7l0.1,2.4L762.1,419.7z"/>
		<path vector-effect="non-scaling-stroke" fill="#DADADA" stroke="#FFFFFF" d="M1178.2,389.3l2,3l-0.7,4l1.8,0.5l0.7,2.4l3.8,2.1
			l-0.2,1.1l1.5,1.5l0.9,2.9l4.9,4.3l-2.8,2.6l1.7,2.2l1.9,3.5l-1.1,7.3l-6.7,1.7l-1,2l-8.5,8.9l-12.4,19.1l1.6,1.2l1.5,4.6l0.2,4.8
			l-0.4,1.8l4.5,2.7l0.3,1.5l1.3,1.6l-1.6,0.3l-2.1-1.6l-2.1,0.3l-3-1.7l-2.2-0.2l-3.1-1.5l-2.6,0.3l-5.1-2.4l-3.3-5l-3.8-0.4
			l-4.3-2.7l-7.9,0.1l-4.8,1.8l-1.7,3.5l-7.3-3.4l-6.3,0.1l-2.2,1.3l-5,2.3l-0.1,4.3l-3.6-1.5l-5.5,0.8l0.8-2.8l-0.8-5l-3.5-0.2
			l-4.9-5.9l-5.5,2.8l-0.2,3l-4.9,1.6l-1.5-4l-1.8,0l-0.6-3l-2.3-4.2l-4,0.1l-1.4-5.5l-4.6-1.4l-8.9-4.6l-4.3,1.5l-6.3-5.1l2.6-2.5
			l-1.4-3.7l-8.5,2.1l-11.8-5.3l3.4,7.6l-6.8,2.8l-11.1-9.5l4.4-4l-0.8-3.4l-3.2-0.7l-6.5,0.6l-4.3-4.1l-10.7-2.8l-3.3-4.8l-4.8-1.2
			l-0.9,4.9l-3.4,0l-1.1-1.2l3-13.4l-1.4-3.6l-1.9-4.1l-4.4-2.4l0.5-3.1l-3.2-6.9l0.9-5l-1-8.5l-2.8-2.8l-1.5-4.9l1.9-5.2l-10.4-7.6
			l-2.5-1.8l0.5-3.5l5.3-3.8l0.4-6.9l-6.3-16.2l7.9,2.7l0.4-4.3l-3.3-3.1l-3.9,1.4l-1.6-1.1l-0.5-2.7l2.1,0.8l3.3,0l1.4-1.6
			l18.4-6.8l12-3.2l6.2-1.5l4.3-3l1.8-3.6l1.7-2l4.3-1.6l5-0.7l6.4-4.8l12.4-3.1l10.9-1.7l4.3,1.9l0.3,2.6l2.2,3l1.7,6l5.4,3.2
			l9.6,0.6l7.9-3l1.3-0.6l-1.2,1.9l-3.6,1.4l-2.7,1.5l0.2,1.3l3.1,0.2l4.8-2.5l3.1-3.6l0.5,0l34.5,3.4l2.7,0.1l1.6,0.3l17.6-1.3
			l1.2,0.1l12-1l0.3-0.2l0.4-1.3l0.6-0.3l0.8,0.3l2.8,0.8l-0.3,0.5l1.6,0.9l-0.3,0.7l1.2,0.6l0.9-0.6l0.6,0.2l0,0.7l1.9,1.1l0.9-0.1
			l1.8,0.6l0.9,0.4l1.4,2.1l0.8-0.1l1.2,2l0.9,2.5l-0.9,1.7l1.1,1.2l-0.1,0.3l1.4,3.4l0.4,1.6l1.2,2.1l2.2,6.1l4.7,9.7l2,2.6
			l1.9,1.8l-0.7,2.9l1.9,4.5l1.5,8.5l-3.1,3.7l-6,0.3l-4.4,4.7l-2.3,6.8l1.3,2l4.1,1.7l1.9-0.4l1.8,2.3l1.8,0l2,4.1l-0.7,3.2
			l0.1,2.4l-0.6,2.4l-0.9,1.2l0.6,2.5l0.6,3.5l2.4,2.2L1178.2,389.3z"/>
		<path vector-effect="non-scaling-stroke" fill="#DADADA" stroke="#FFFFFF" d="M699.6,398.7l0.3,3.1l3.2,1.2l1.8-2.2l6.6,3.8
			l7.5-2.7l0.5-2.6l4.1-0.7l0.2-3.6l3.1,0l3.2,2.4l2-3.8l1.9,1.9l1.6,1.9l3.1-1.9l3.8,5l1.3,1.4l6.2-0.7l1.1,1.9l6.9,2.9l-2.4,6.5
			l-0.7,3.2l0.6,3.4l6.6,0.7l0.9,0.2l-0.1,1l2.3,0l1.6,2.4l0.9,0.2l1.1,0.6l-0.5,2l-1.3,1.4l1.2,1.5l2.4,0.1l0.1,0.7l1.1,1.1l-1,2
			l1.8,1.9l-1,0.7l-1-0.4l-0.8,1.7l-1.7,0.9l-1,0.7l0.2,1.5l-0.9,0.4l0.4,0.7l-0.8,0.6l-0.3-1l-0.8-0.2l-0.3,0.8l-1.2-1.1l-1,0.2
			l-0.2,1.4l-1.3,0.7l-0.6,1.2l-0.8,0.7l0.5,1l-0.8,0.6l0.4,1.1l-1.1,0.6l-0.8,0.7l-0.7,1.3l1.3,1l-0.9,0.4l-0.2,1l0.3,1.7l1-0.1
			l0.9,1.9l0.2,0.9l1.1,0.2l-0.2,0.9l1.1,0.7l-0.2,0.6l-0.6,0.6l-0.7,1.3l0.5,0.4l-1.1,0.9l-1.7-0.2l-1,1l-2.5,0.1l-3.6,0.5
			l-0.3-1.4l-1.9-2.7l-1.3,0.4L747,458l-4.1-1l-2.9-3.2l-3.6-0.4l0.5-4.3l-1.9-1.4l1-6.1l-1.9-1l-2.6,2.4l0.2,3.8l-6,1.3l-5.9-0.5
			l-0.8-1.9l1.5-1.7l-0.8-2.2l-1.4,0l1.9-4.3l-1.2-0.9l-3.1-2.7l-6,0.4l-1.7,1.2l-1.4-2.5l-0.1-2.6l-3.6-1.3l-1-1.7l-2.1,1.5
			l-2.5-1.3l-1-4.8l-2.7-4.3l-4.2,1.3l-0.9,2.8l-2.2-1l-2.9-3.9l-1.3-0.1l-1.3-1.9l1.4-2.3l-2.3-4.1l-0.3-1l0.1-0.2l5.6-3l0.8-0.1
			l-0.1-0.6l8.3-4.8l0-0.8l0.7,0.3l0.7,0.1l3.2-1L699.6,398.7z"/>
		<path vector-effect="non-scaling-stroke" fill="#DADADA" stroke="#FFFFFF" d="M1219.8,71.9l1.2-5.7l9.9-9.3l4.5-0.9l1.6-5.7
			l12.5-14l9.1-12l8.1-13.6l8.7-8.5l3.1-6.5l2.2-10l-8.6-7.1l-1.7-3.4l-7.7-5.4l-7.2-1.5l-5.6-4.3l-8.9-6.6l5.3-2.5l2.3-9.6
			l-2.1-6.7l-9.8-3.1l-3-6.9l1.7-2.4l-3.5-5.2l-6.6-1.5l-2-8.5l4.1-1.4l-2-4.5l-5.6-0.8l2.9-3l-0.7-4.8l1.8-2l-4.4-3.4l3.6-1.7
			l4.6,0.5l-7.1-14.3l-3.9-3.3l-19.3-21.4l-2.3-5.7l12.8-20l-0.9-5.3l-7-3.6l-8.5-9.7l-15.7-4.5l-5.7-12.7l3.4-6.8l-0.5-3.9l-5,0.4
			l-2.3-2.4l8.7-4.1l0.5-0.1l2.4,1l1.1-1.6l1.8-1.9l-0.2-1.3l0.3-2.6l-1.1-0.9l0.1-1.4l1.7-1.1l2.4-0.2l1.1,0.5l2.4-2.2l2.1-1.6
			l2,0.4l2.5-1.8l-0.3-2.4l0.9-0.9l-0.3-1.7l-1.1-1.1l-1-0.7l0.7-0.7l5,2.1l3.6,2.3l5.3,0l2.5-0.7l-0.8-2.8l-0.8-1.3l-1.4-1.4
			l0.3-0.7l-2-1.8l3.6,0.5l8.9,1.9l5.6-0.9l0.3-3.5l4.8,0.7l-3.9-4.9l12,4.2l10.7,2.4l1.1,5.1l-13.4,0.1l3.3,2.9l11.2,2.4l9.3,1.6
			l1.9,3.8l8.3-0.5l9.3,0l17.5,0.9l31.7,8.1l29.1,13.6l24.8,12.9l29.2,10l17,14.1l6.8,17.2l-9.7,20.6l-18.3,8.7l-49.5-0.3l-32.9-7.1
			l-19.3-6.2l-35.4-14.2l-4.9,4.4l19.4,13.5l21.4,10.5l17.9,16.5l0.1,12.8l9.7,28.5l18.5,8.1l28.4,10.6l25-1.5l-8-14.6l-33.8-16.8
			l4.6-8.6l41.6,13.1l33.8-1.1l-13.2-24.3l29.7-25.1l31.3-6.1l17.5-19.1l-28.6-20.6l4.1-21.3l-24.6-19.7l42.3-0.5l32.6,21.7
			l-23.7,18.6l25.4,20.7l28.5,1.3L1747.7,413L1583,538.3l-28.9-4.5l-187.7-170.3l-2.6-3l-3.3-3.9l-0.6-4.5l0.8-3.8l-4.3-4.8l2.2-2.2
			l-3.3-3.7l-7-5.9l3.1-2.4l-0.2-3.5l4.2-1l6.9,4l2.3,0.2l5.1-0.4l4.7-2.2l0.5-5.3l5-0.8l0.5-3.7l-6.7-3.1l-3.5-4.5l1.3-2.3
			l-7.6-2.3l-9.1,0.2l2.1-7.6l-2-2.2l-11.1-3.6l-3.5-4.9l-2.7-4.7l-2.9-2l1.2-4.3l-4.2-1l-6.4-4.3l-0.1-4.5l3.9-3l-5.1-9.2l0.2-4
			l0.5-3.5l-1.4-4.3l-3.7,0.3l-3.6-3l-3.8-4.3l-4.2,0.1l-4-1.4l-5.5,0.1l-4.2,2.7l-4.5,2.5l-3.5-2.5l0.9-4.6l-3.7-2.3l-5.3-1.4
			l-3.7,2.7l-6.4-3.5l-5.3-0.3l-6.1-3.1l0.1-0.2l0.6-1.4l-0.4-1.1l1.2-1.1l-2.5-4l0-2.2l-2.4-2.2l0.4-1.6l-1.9-1.1l-2.2-3.7l-2-1.7
			l0.2-1.6l0.6-0.8l-0.3-0.9l-1.5,0.4l-0.5-1.4l-4.8,0.8l0.4-2l1-0.5l-0.2-2.8l-0.9-0.8l0.1-2.5l1-1.7l-0.1-2.7l0.8-1.7l-2.7-1.9
			l-3.9-2.5l-2.3-1.1l0.1-2.6l-0.6-1.2l-3.6,0.6l-1.2-1.2l1.1-4.6l2.5-2.1l4.2-3.8l-3.1-3.2l-0.6-3.3l-5.3-7.2l0.2-6.5l-6-13.5
			l6.7-5.3l2.2-11.2l3.7-0.9l0.9-2.8l-4-3.1l0.8-1l-0.5-3.7l-2.5-3l-0.1-1.8l1.7-1.3l2.4,0.8l0.8,2.3l2,0.6l2.1,0l0.2-2.1l-0.3-2.7
			l1.5-1.4l2,1.4l2.1,0.7l1.5,0l2.3-0.4l3.2-1.2l-0.5-3l0.3-1.9l2.6-0.5l3.2,0.8l3.2-0.1l2.5,0.7l3.1,0.3l1.2,0.7l3,0.6l3.7,0.7
			l1.9-0.7l0.6-1.6l-0.6-1.4l-2.8-0.6l-2.7-0.4l-1.2-1.7l-0.3-1.4l-0.1-1.3l-2.7-0.8l-4.7-1.2l-2.4,0.3l-1.8,1.1l-4.8-0.1l-4.4-0.8
			l-0.9-1.6l-1.4-1.8l-2.3-1.2l-2-0.4l-0.6,1.1l-4.1-0.2l-1.2-1.2l-0.3-1.5l-0.3-1.6l1.7,1.3l0.6-0.5l-1.3-1.8l-1.3-1.6l-0.9-1.3
			l1.2,0l2.4,1.3l2.1,0.8l-0.7-2.2l-0.9-1l-1.1-1.1l-0.7-0.4l0.6-0.9l0.9-1.4l-0.2-0.8l-1.9,1l-2.4,1.1l-1.3,1.5l-1.9,2.5l-3.4,0.8
			l-3,0.4l-2.2-0.8l-0.8-0.4 M1105.7,258.6l1.1-0.7l0.5-0.4l0.4-0.4l0.5,0.2l0.4,0.8l0.6,0.6l0.6,1l1.4,1.1l0.7-0.3l1.8,0.3l2.1,0.6
			l0.8,1.9l2.3,0.4l2.3,0.5l2.7,0.2l0.2,1.2l2.1,0.7l0.9-0.9l3.1-0.4l4,0.4l2.1-1l2.7,3.7l2.9,1.7l2.9,3.4l-1.6,2.1l-1.1,1.4
			l0.6,2.7l-1.5,2l0.3,0.7l-0.3,1.1l1.1,1.5l0.8,2.1l1.3,2.3l0.3,0l-12,1l-1.2-0.1l-17.6,1.3l-1.6-0.3l-2.7-0.1l-34.5-3.4l0.9-0.9
			l1.7-0.8l1.2-1.9l0.3-1.6l1.9,1.1l2-1.3l2.5-0.9l1.5-1.5l1.5-0.4l-1.6-0.9l-2.9,0.2l-2.5,1.2l-1-0.2l-0.7-1.6l-1.3-0.6l-0.4,1.7
			l0.2,1.7l-1.6-0.6l0.2-1.3l1-2.5l-0.4-2.3l-1-4.1l1.2-0.7l3.2,0.6l2.9-0.3l2.3,0.4l3.5-1.5l1.7,1.1l3.9,0.2l2.1-0.5l0.8,1.1
			l3.7,1.1l2.9-1.3l1.7-1.2l-0.7-1.6l-1.1-4.6l-1-2.6l2.4,0.1l-0.3-2.1L1105.7,258.6z"/>
		<path vector-effect="non-scaling-stroke" fill="#DADADA" stroke="#FFFFFF" d="M804.7,530.2l-2-4.1l2.3-9.6l-1.4-2.6l2.2-5.9
			l2.6-2.8l0.2-6.9l1.4-4.6l6.4-6.6l1.9-5.1l-5.2-2.7l-8.8-0.2l-4.7-4l-3.9,2.3l-5.6,0l-3-3.3l-2.1,1.5l-3.7-0.2l-1.2-2.8l-2.8-5
			l-4.1-2.7L590.4,576.2l-4.6-0.5l-4.6-4l-8.1-2.9l-4.5-7.9l-2.6-5.8l-2.1-3.9l5.9,1.8l0.3-3.4l-5.4-2.1l1.4-3.7l-7-1.1l-1.6-3.9
			l0.9-4.4l-9.9-0.5l-5.3-1.8l-0.6,3.1l-1.8-5.2l-6.6-3.6l-12.7-6l-7.9,3.6l-2-6.7l-6.9-2.9l11-2l-7.7-2.1l-1-3.1l7.7,0l-2.9-3.1
			l-6.7,0.5l-2.1-2.8l1.9-3.1l5.4-4.3l7.7-0.7l2.7-2l4.2,2.6l3-1l5,1.3l-0.2-5.3l3.8-1.5l8.8-0.2l1.8,3.8l5,4.8l3.4,2l3-4.1l4.8,0
			l2.6,1.3l4-0.5l3.8-3.3l1.6,3.8l10.1-0.8l-4.7-7.4l0.6-9.1l-3.4-7.5l-3.1-8l-0.5-2.2l-2.6-3.5l2.9-0.2l5,2.7l1.9-1l7.1-1.2l0,2.7
			l1.6,5.2l2.1,5l3.7-1.5l7.7,1.5l6.9,0.5l9.8,0.3l5.8-4l-4.5-2l0.3-7.5l5.5-2.5l7.6-4.2l15-3.5l5.2-7.2l2.4-0.5l-1.6-2.7l0.2-2.9
			l0.5-4.7l1-9.5l-0.3-3.2l5.2-2.9l9.1-2.7l6.8-2.2l1.3-0.1l0.3,1l2.3,4.1l-1.4,2.3l1.3,1.9l1.3,0.1l2.9,3.9l2.2,1l0.9-2.8l4.2-1.3
			l2.7,4.3l1,4.8l2.5,1.3l2.1-1.5l1,1.7l3.6,1.3l0.1,2.6l1.4,2.5l1.7-1.2l6-0.4l3.1,2.7l1.2,0.9l-1.9,4.3l1.4,0l0.8,2.2l-1.5,1.7
			l0.8,1.9l5.9,0.5l6-1.3l-0.2-3.8l2.6-2.4l1.9,1l-1,6.1l1.9,1.4l-0.5,4.3l3.6,0.4l2.9,3.2l4.1,1l0.3,1.7l1.3-0.4l1.9,2.7l0.3,1.4
			l3.6-0.5l2.5-0.1l1-1L804.7,530.2z"/>
		<path vector-effect="non-scaling-stroke" fill="#DADADA" stroke="#FFFFFF" d="M971.5,416.2l-4.9-2.4l0.1-2.4l-4.2-3.6l-4.2,0
			l3.5,4.8l-9.9,4.2l-2.9,2.5l-7.6,0.3l-0.7,4.6l-2.2-1.4l-5.2,3.7l-4.1,1l-1.6,3.2l-2-1.9l-7.1,4l-3.8,5.7l-4.5-3.7l-1.9,2.2
			l6.4,8.8l4.8,0.7l-0.8,4l-1.1,2.7l3.8,5l3.7,7.2l3.1,3.2l4.2-0.5l5.8,7.2l2.8,1.7l4.1,5l2.4-0.5l6.9,6.3l118.2-30.1l-2.3-4.2
			l-4,0.1l-1.4-5.5l-4.6-1.4l-8.9-4.6l-4.3,1.5l-6.3-5.1l2.6-2.5l-1.4-3.7l-8.5,2.1l-11.8-5.3l3.4,7.6l-6.8,2.8l-11.1-9.5l4.4-4
			l-0.8-3.4l-3.2-0.7l-6.5,0.6l-4.3-4.1l-10.7-2.8l-3.3-4.8l-4.8-1.2l-0.9,4.9l-3.4,0L971.5,416.2z"/>
		<path vector-effect="non-scaling-stroke" fill="#DADADA" stroke="#FFFFFF" d="M1366.4,364.7l-9.5-2.4l-0.8,2.9l-4.4,0.1l-4.2,3.7
			l-5.4,6.1l-1.1,5.5l3.8,11l-2.1,1.5l-6.9-2.3l-2.6-4.5l-8.9,1.2l-3.1-1.6l-7.5,4.7l-3-6.7l-3-2.3l-8.5,3.3l-0.3,4.3l-3.5-4l-6-0.4
			l-2.7-3.5l-5.4,3.5l-3.8-1.1l-2.4,2.9l-3.3-2.8l-8.6-0.3l-3.1-5l-4.8,0.8l-8-3.2l-1.5,2.2l-4.8-2.3l-8.7-2.7l-13.4,0.3l-6.3-2
			l-5.8,2.7l-11.5,0.9l-2.5,4.6l-6.1,6.3l-3-0.9l-3.6-1.6l-2.3,0.5l0.7,3.3l0,1.8l-2.4-2.2l-0.6-3.5l-0.6-2.5l0.9-1.2l0.6-2.4
			l-0.1-2.4l0.7-3.2l-2-4.1l-1.8,0l-1.8-2.3l-1.9,0.4l-4.1-1.7l-1.3-2l2.3-6.8l4.4-4.7l6-0.3l3.1-3.7l-1.5-8.5l-1.9-4.5l0.7-2.9
			l-1.9-1.8l-2-2.6l-4.7-9.7l-2.2-6.1l-1.2-2.1l-0.4-1.6l-1.4-3.4l0.7,0.1l2.1,0.8l2.6-0.5l1.1,1.6l0.9-1.6l1.5-0.8l2.2,1l3-1.2
			l2.3-1l1.5,1.8l3.4,1.5l2-2.2l3.6-2.5l0.6,2.9l3.4-3.7l-2.2-2.1l1.1-1.4l2-0.7l3.2,1.1l2.8-4.8l6.3-1.9l2.5,3.6l-1,1.6l3.3,1.7
			l2-1.6l-0.1-2.1l-2.7-3.2l-3.2-0.5l1.5-2.4l0-3.4l1.2-3.6l-0.8-7.7l3.2-4.2l5.3-0.7l1.7-3.9l-0.9-1.5l3.2-1.7l3.9,0l3.6-1.2l1.9-4
			l-5-1.9l-3.5,0.3l1.3-1.7l0.1-2.5l-1.6-2.6l2.7-2.8l-1-2.2l0.1-0.5l0.4-0.4l-0.1-0.3l1.5-0.1l0.9,0.9l0.8,0l0.4-1l1.1-0.4l0.4-1.4
			l2-2.2l2.3-0.2l0.9-0.8l2.1,1.1l1.9,1l1.5-1l5.6,0.7l0.2-2l-0.9-1.6l0.9-1.4l1.3-1.9l1.3,0.1l0.4-1.2l-0.4-0.7l2-0.6l1.5-2.9
			l1.4,0.5l0.6-0.8l1-0.8l0.5,0l6.1,3.1l5.3,0.3l6.4,3.5l3.7-2.7l5.3,1.4l3.7,2.3l-0.9,4.6l3.5,2.5l4.5-2.5l4.2-2.7l5.5-0.1l4,1.4
			l4.2-0.1l3.8,4.3l3.6,3l3.7-0.3l1.4,4.3l-0.5,3.5l-0.2,4l5.1,9.2l-3.9,3l0.1,4.5l6.4,4.3l4.2,1l-1.2,4.3l2.9,2l2.7,4.7l3.5,4.9
			l11.1,3.6l2,2.2l-2.1,7.6l9.1-0.2l7.6,2.3l-1.3,2.3l3.5,4.5l6.7,3.1l-0.5,3.7l-5,0.8l-0.5,5.3l-4.7,2.2l-5.1,0.4l-2.3-0.2l-6.9-4
			l-4.2,1l0.2,3.5l-3.1,2.4l7,5.9l3.3,3.7l-2.2,2.2l4.3,4.8l-0.8,3.8l0.6,4.5l3.3,3.9l2.6,3L1366.4,364.7z"/>
		<path vector-effect="non-scaling-stroke" fill="#DADADA" stroke="#FFFFFF" d="M1178.5,387.4l-0.7-3.3l2.3-0.5l3.6,1.6l3,0.9
			l6.1-6.3l2.5-4.6l11.5-0.9l5.8-2.7l6.3,2l13.4-0.3l8.7,2.7l4.8,2.3l1.5-2.2l8,3.2l4.8-0.8l3.1,5l8.6,0.3l3.3,2.8l2.4-2.9l3.8,1.1
			l5.4-3.5l2.7,3.5l6,0.4l3.5,4l0.3-4.3l8.5-3.3l3,2.3l3,6.7l7.5-4.7l3.1,1.6l8.9-1.2l2.6,4.5l6.9,2.3l2.1-1.5l-3.8-11l1.1-5.5
			l5.4-6.1l4.2-3.7l4.4-0.1l0.8-2.9l9.5,2.4l1.8-0.3l7.2,2.7l5.5-3.5l-1.3-6.6l11.6,1.1l13.6-4.1l14.4,4.8l10.5,13.6l-6.5,6.4
			l8.1,11.9l19.8,2.4l6.7,4.7l6.8,17.9l3.9,6.3l9.7-1.2l9.7,6.2l7.8-0.2l17.3-7.4l16.9,17.4l3.4-6.1l15.2,9.1l12.1-0.3l19.2,8l7,9.9
			l-7.8,10.4l7.2,5.9l-6.1,6.3l10.4,18.3l-1.4,15.7l-23.8-3.5l-11.1,11.3l1.1,7.9l0.4,7.4l-17.4-0.6l-6.9,11.3l-21.1,5.3l-15.6,6.3
			l-14.3,13.7l-20.6,12.3l-295.7-111.4l3,1.7l2.1-0.3l2.1,1.6l1.6-0.3l-1.3-1.6l-0.3-1.5l-4.5-2.7l0.4-1.8l-0.2-4.8l-1.5-4.6
			l-1.6-1.2l12.4-19.1l8.5-8.9l1-2l6.7-1.7l1.1-7.3l-1.9-3.5l-1.7-2.2l2.8-2.6l-4.9-4.3l-0.9-2.9l-1.5-1.5l0.2-1.1l-3.8-2.1
			l-0.7-2.4l-1.8-0.5l0.7-4l-2-3L1178.5,387.4z"/>
		<path vector-effect="non-scaling-stroke" fill="#DADADA" stroke="#FFFFFF" d="M766.4,442l-0.4,2.2l0.4,1.7l1.1,1.7l1.1,0.6
			l-0.3,0.9l2.5,2l0.6,0.9l0.6-0.3l1.9,1l1.6,0.2l0.9,0.1l-0.3,2.7l-1.9,1.9l0,0.7l-1.1,1.7l-0.6,0.7l0.4,0.9l-0.1,2.5l-13.4-1.8
			l0.7,0.2l0.1,0.8l1.2,0.6l1.9,0.2l0.1,1.2l1.3,0.2l1-0.7l0.7,0.7l0.8-1.2l0.4-0.8l1.7-0.2l1.2,0.4l0.8,0.4l0.9,0.6l0.7,0.3
			l-13.3-3.3l1.1-0.9l-0.5-0.4l0.7-1.3l0.6-0.6l0.2-0.6l-1.1-0.7l0.2-0.9l-1.1-0.2l-0.2-0.9l-0.9-1.9l-1,0.1l-0.3-1.7l0.2-1l0.9-0.4
			l-1.3-1l0.7-1.3l0.8-0.7l1.1-0.6l-0.4-1.1l0.8-0.6l-0.5-1l0.8-0.7l0.6-1.2l1.3-0.7l0.2-1.4l1-0.2l1.2,1.1l0.3-0.8l0.8,0.2l0.3,1
			L766.4,442z"/>
		<path vector-effect="non-scaling-stroke" fill="#DADADA" stroke="#FFFFFF" d="M453.8,269.4l1.8-1l0.6,1.1l1.8-0.5l0.4-1.2l1.2-0.5
			l0.3-3.1l2.3,0.9l2.8-0.1l1.9-1l2.8-0.8l1.3-0.8l2,0.6l1.3-0.8l2.3,1.5l2-0.3l2.7,1.3l-0.7,2.7l0.7,1.4l1.1,0.1l-0.1,2.5l0.7,0.4
			l0.8,1.4l1.3,1l0.7,1.1l0,1.3l1.5,0.7l-1-1.3l1.5,0.3l0.6,1.7l-0.4,1l-3.8,3.1l-0.8,2.1l3.4-1.8l2.3-0.2l1.3-0.2l1.5,1.1l1,2.8
			l1.6,2.7l-1.1,2.6l-0.5,2.8l-2.5-1.6l1-3.1l-1.4-2.9l-1.6-0.3l-0.4,1.6l1.6,1.3l-0.1,3.2l-1.2,1.3l1.8-0.4l0.6,0.5l0.7,1.5
			l-1.7,2.5l-4.1,0.7l-0.6-1.5l-1.1,1.1l-0.1,2.1l-1,2.4l-2,2l-1.9,0.8l-0.9-0.7l-1.1-0.7l-1.6-1.4l-0.9,0.2l-0.9,0l1.5,0.2l2.3,1.8
			l0.2,1.2l-1.6,0.8l-2.4-0.6l-1.9,1.8l1.3,2.4l1.3,0.5l0.5,2.7l-0.5,2.4l1.5,3.7l2.1,2.9l-1.2,1.5l0,2.6l-1.3,1.4l-0.8,1.4l2.1,1.5
			l0.5,2.4l0.8,6.4l0.9,2.7l-1.5,3.5l-2.5,2.4l0.3,2.6l-1.8,2.4l0.8,3.4l-4.5,7.4l-3.3-0.3l2.4,1.9l0.7,1.4l1.4,1.1l-1.2,1.9
			l-3.4-0.3l-3.7-1.2l-3.2,0.3l-0.1-1.1l-2.2,3.5l-0.2-1.4l-0.6-1.7l-1.2-0.2l0.8,2.4l-1.5,1.2l-2.2-0.1l0-1.1l-1.6,0l-1.1,0.7
			l-4.6,0.6l-4.2,1l-0.8,1.4l2.3,0.2l-1.2,0.8l-1.4,2.1l-2.2,0.6l-2.7,0.1l-1.9,1.1l1,1.1l-2.8,1.1l-1.6,0.8l-2,0.7l-2.5,0.3
			l-0.4-1.4l-0.5-1l-1.3,0.7l1.1,1.8l-0.9,1.9l-1.7,1.1l-3,0.5l-1.2,1.1l-0.4,1.8l-1.1-0.7l-1.9-0.4l-0.3,1.1l-0.5,1.7l-2.8-1.1
			l-2.3,1.9l-2.2-0.4l-3.3,1.2l-2.8,1.2l-2.9,0.5l0-2.3l-1.6,0l-2.8,1.1l-2.9,1.2l-3-0.1l1.3-2l2.1-0.9l3.3-1.8l-2.7,1.2l-2.2,0.6
			l-1-0.5l2.6-1.8l5.2-1.9l0.4-0.8l-1.5-1.9l-1.7,1.9l-2.4,1.1l-2.1,0.7l-3.8,1.2l-3,0.7l-2.7-0.5l3.5-1.5l1.2-1.3l1-2.3l2.7-0.2
			l2.5-0.6l-0.2-1.3l2.3-1.8l-2.9,1.2l-4.6,1.3l-3.5,0.7l-1.8-0.5l-0.2-1.8l-2.1,1.2l-1.4-0.8l-0.9-1.8l0.6-1.2l2.4-1.2l1.9-2.1
			l3.9-0.9l2.2-0.6l2-1.6l1.5-1.3l-1.9-0.4l-2.8,0.8l-4.7,0.9l-3.2-0.3l-1.3-0.4l-1-1.3l0.7-1.6l1.2,0l1.9-1.2l1.2-2l2.4,0.7
			l2.8,0.6l1.9,0.6l1.8-0.3l1.2-0.7l-0.7-1.4l0.1-2.4l-1.8-1l-0.3-0.9l2.7-0.3l3.8-1.6l0.4-2.9l3.6-0.2l3.2-0.3l6-1.4l4.8-1.4
			l3.1-0.8l-2.6-1.5l-2,0.7l-0.3-0.7l0.1-1.2l-1.4,0.3l-0.7,1.6l-0.7,1.4l-1.7,1.3l-2.2,0.6l-1.7,0.1l0.7-1.4l-2.1,0.2l-1.8,0.8
			l-1.8,0l-3.9,0.1l-1.1,1.3l-3.3,0.7l1.9-1.7l4.1-3.7l2.9-1.7l2.1-2.8l2.5-2.9l-2.7-0.7l1.2-1.3l1-2.3l1.6-2.8l1.8-0.4l2.9,0.8
			l2.3-1.4l0.6-2.3l-1.3-1.2l-2.7,0.1l-7.2,0.2l-3.8,0.8l-1.1-2.4l-2.8-0.9l-2-0.7l1.1-1l0.7-0.7l-2.6-0.6l-3.2-0.1l-1.7-1.2l2.2-1
			l-1.2-2l-0.6-1.1l2.6-0.9l3-0.9l0.3-2.9l0.4-1.9l7.7-1.2l-0.3-2.2l-1.4-1.8l-3-0.1l-4,1l-2.8-2.5l-1.9-0.8l-1.3-1.7l3,0.2l2.3-0.1
			l1.4,1.7l1-1.2l-0.3-1.6l-1.5-1l1.4-1.8l-0.6-2l-1.5-0.2l-1.5,1.9l-0.4,1.9l-1.1-1.1l1.3-6.1l3.1-0.2l2.2,1.1l0.9-1.6l1.1-1.3
			l5.9,1.2l4.3,0.3l1.3-0.6l1.8,2.1l1.3,1.2l1.7-1.1l1.7-1.7l4.5,1.4l3.2,0l2.3,1.7l0.1-1.5l-0.5-1l0.8-0.8l-0.8-0.8l-1.5-0.2
			l-0.3-0.7l2.4-1.3l2.4-2.6l3-0.1l1.8-1.4l2.7-3.7l-0.9-0.3l-2.4,0.3l-0.3-1l-2.9,2.4l0.5-1.4l-2.1-0.1l-3.4-0.6l-2.9-1.8l1.4-2.1
			l3.6-1l2.4-0.1l-0.3-1l-0.8-0.8l2.9-0.6l0.4-1.3l-1.6-1.4l-0.7-1.3l1.5-1.6l1.8-1.5l2-1.2l0.3-1.8l2.2-0.3l3.2-1.1l2.2-1.1
			l0.9,1.4l1.4-1.1l0.3-0.8l2.3-1.2l1.4-0.2l0.7,1.1l0.4,2.1l0.3,2.1l-0.5,1.8l1.9,0.3l1-2l0.1-1.7l-1.1-1.7l0.6-2.1l1.3-1.1
			l2.5-0.4l0.3-1.8l2.7,1.1l2.3,0.8l2,0.9l1.4,2.1l-2.2,1.5l-2.5,1.6l-1.8,1.6L453.8,269.4z"/>
	</g>
</g>
<g>
	<text transform="matrix(1 0 0 1 813 225)" font-family="'Arial-BoldMT'" font-size="11">DK1</text>
	<text transform="matrix(1 0 0 1 877 254)" font-family="'Arial-BoldMT'" font-size="11">DK2</text>
	<text transform="matrix(1 0 0 1 999 -138)" font-family="'Arial-BoldMT'" font-size="11">SE1</text>
	<text transform="matrix(1 0 0 1 940 -19)" font-family="'Arial-BoldMT'" font-size="11">SE2</text>
	<text transform="matrix(1 0 0 1 933 123)" font-family="'Arial-BoldMT'" font-size="11">SE3</text>
	<text transform="matrix(1 0 0 1 927 211)" font-family="'Arial-BoldMT'" font-size="11">SE4</text>
	<text transform="matrix(1 0 0 1 838 67)" font-family="'Arial-BoldMT'" font-size="11">NO1</text>
	<text transform="matrix(1 0 0 1 774 119)" font-family="'Arial-BoldMT'" font-size="11">NO2</text>
	<text transform="matrix(1 0 0 1 805 -2)" font-family="'Arial-BoldMT'" font-size="11">NO3</text>
	<text transform="matrix(1 0 0 1 951 -216)" font-family="'Arial-BoldMT'" font-size="11">NO4</text>
	<text transform="matrix(1 0 0 1 739 74)" font-family="'Arial-BoldMT'" font-size="11">NO5</text>
	<text transform="matrix(1 0 0 1 1156 -5)" font-family="'Arial-BoldMT'" font-size="11">FI</text>
	<text transform="matrix(1 0 0 1 1180 139)" font-family="'Arial-BoldMT'" font-size="11">EE</text>
	<text transform="matrix(1 0 0 1 1182 199)" fill="#FFFFFF" font-family="'Arial-BoldMT'" font-size="11">LV</text>
	<text transform="matrix(1 0 0 1 1161 255)" fill="#FFFFFF" font-family="'Arial-BoldMT'" font-size="11">LT</text>
	<text transform="matrix(1 0 0 1 859 381)" fill="#555555" font-family="'Arial-BoldMT'" font-size="11">DE</text>
	<text transform="matrix(1 0 0 1 571 364)" fill="#FFFFFF" font-family="'Arial-BoldMT'" font-size="11">GB</text>
	<text transform="matrix(1 0 0 1 736 388)" fill="#555555" font-family="'Arial-BoldMT'" font-size="11">NL</text>
	<text transform="matrix(1 0 0 1 1064 381)" fill="#555555" font-family="'Arial-BoldMT'" font-size="11">PL</text>
	<text transform="matrix(1 0 0 1 720 426)" fill="#555555" font-family="'Arial-BoldMT'" font-size="11">BE</text>
	<text transform="matrix(1 0 0 1 1269 -95)" fill="#555555" font-family="'Arial-BoldMT'" font-size="11">RU</text>
	<text transform="matrix(1 0 0 1 685 456)" fill="#555555" font-family="'Arial-BoldMT'" font-size="11">FR</text>
	<text transform="matrix(1 0 0 1 983 454)" fill="#555555" font-family="'Arial-BoldMT'" font-size="11">CZ</text>
	<text transform="matrix(1 0 0 1 1241 313)" fill="#555555" font-family="'Arial-BoldMT'" font-size="11">BLR</text>
	<text transform="matrix(1 0 0 1 1232 424)" fill="#555555" font-family="'Arial-BoldMT'" font-size="11">UKR</text>
	<text transform="matrix(1 0 0 1 758 459)" fill="#555555" font-family="'Arial-BoldMT'" font-size="11">LU</text>
	<text transform="matrix(1 0 0 1 422 332)" fill="#555555" font-family="'Arial-BoldMT'" font-size="11">EIRE</text>
</g>
</svg>
