<?xml version="1.0" encoding="utf-8"?>
<!DOCTYPE svg PUBLIC "-//W3C//DTD SVG 1.1//EN" "http://www.w3.org/Graphics/SVG/1.1/DTD/svg11.dtd">
<svg version="1.1" xmlns="http://www.w3.org/2000/svg" viewBox="0 0 900 700">
	<text transform="matrix(1 0 0 1 339.2662 607.5843)"><tspan x="0" y="0" fill="#231F20" font-family="'FiraSans-Book'" font-size="36">Graham Odds</tspan><tspan x="59.2" y="40" fill="#231F20" font-family="'FiraSans-Book'" font-size="24">@g_odds</tspan></text>
	<g>
		<text transform="matrix(1 0 0 1 292.9773 379.5663)" fill="#231F20" font-family="'FiraSans-Book'" font-size="72">thank you!</text>
		<path d="M463.3,115.2c-55.2,0-100,44.8-100,100s44.8,100,100,100c55.2,0,100-44.8,100-100S518.5,115.2,463.3,115.2z M497.6,155.4
			c0.6-0.7,1.6,4.6,5.4,8.4c3.8,3.8,9,4.7,8.4,5.4c-0.7,0.7-7,0.8-10.8-3C496.8,162.4,496.9,156,497.6,155.4z M478.7,201.5
			c0-8.8,10.7-15.9,23.9-15.9c13.2,0,23.9,7.1,23.9,15.9v0.7h-4.3v-0.7c0-6.4-8.8-11.6-19.6-11.6c-10.8,0-19.6,5.2-19.6,11.6v0.7
			h-4.3L478.7,201.5L478.7,201.5z M423.6,163.7c3.8-3.8,4.8-9,5.4-8.4c0.7,0.7,0.8,7-3,10.8c-3.8,3.8-10.1,3.7-10.8,3
			C414.6,168.5,419.8,167.5,423.6,163.7L423.6,163.7z M400,201.5c0-8.8,10.7-15.9,23.9-15.9c13.2,0,23.9,7.1,23.9,15.9v0.7h-4.3
			v-0.7c0-6.4-8.8-11.6-19.6-11.6c-10.8,0-19.6,5.2-19.6,11.6v0.7H400L400,201.5L400,201.5z M530.5,236.1c-1,1-4.2-0.6-7.8-3.6
			c-16.6,15.8-38,23.8-59.4,23.8c-21.4,0-42.8-8-59.4-23.8c-3.6,3-6.8,4.6-7.8,3.6c-1.2-1.2,1.4-5.8,5.9-10.3
			c4.5-4.5,9.1-7.1,10.3-5.9c1.1,1.1-0.9,4.8-4.5,8.8c31.1,29.4,79.9,29.4,111,0c-3.6-4-5.6-7.7-4.5-8.8c1.2-1.2,5.8,1.4,10.3,5.9
			C529.1,230.3,531.7,234.9,530.5,236.1L530.5,236.1z"/>
	</g>
</svg>
