<?xml version="1.0" encoding="utf-8"?>
<!DOCTYPE svg PUBLIC "-//W3C//DTD SVG 1.1//EN" "http://www.w3.org/Graphics/SVG/1.1/DTD/svg11.dtd">
<svg version="1.1" xmlns="http://www.w3.org/2000/svg" viewBox="0 0 900 700">
	<path fill="#231F20" d="M416.4,272.8c-16.2,0-29.4,13.2-29.4,29.4c0,5.3,1.5,10.3,3.9,14.7c7.2,13,9.1,20.3,10.3,27.4c1,5.9,2.4,7.3,6.8,7.3
		c1.9,0,5,0,8.3,0s6.4,0,8.3,0c4.5,0,5.8-1.4,6.8-7.3c1.2-7.1,3.1-14.4,10.3-27.4c2.4-4.4,3.9-9.3,3.9-14.7
		C445.8,285.9,432.7,272.8,416.4,272.8z M426.9,353.7h-21c-0.9,0-1.6,0.7-1.6,1.6v1.1c0,0.9,0.7,1.6,1.6,1.6h21
		c0.9,0,1.6-0.7,1.6-1.6v-1.1C428.5,354.4,427.8,353.7,426.9,353.7z M426.9,360h-21c-0.9,0-1.6,0.7-1.6,1.6v1c0,0.9,0.7,1.6,1.6,1.6
		h21c0.9,0,1.6-0.7,1.6-1.6v-1C428.5,360.7,427.8,360,426.9,360z M426.9,366.3h-21c-0.9,0-1.6,0.7-1.6,1.6v1.1c0,0.9,0.7,1.6,1.6,1.6
		h21c0.9,0,1.6-0.7,1.6-1.6v-1.1C428.5,367,427.8,366.3,426.9,366.3z M408.5,372.6h15.8c0,3.2-4.2,5.3-7.9,5.3
		C412.8,377.9,408.5,375.8,408.5,372.6z M450.2,252c2.7-4.7-4.6-8.9-7.3-4.2c-1.4,2.4-11.7,20.2-11.7,20.2l7.3,4.2
		C438.6,272.2,447.7,256.4,450.2,252C450.2,252.1,450.2,252.1,450.2,252L450.2,252L450.2,252z M466.6,268.5L466.6,268.5L466.6,268.5
		C466.6,268.5,466.6,268.5,466.6,268.5c-3.7,2.1-19.6,11.3-19.6,11.3l4.2,7.3c0,0,15.9-9.2,19.6-11.3
		C475.5,273,471.3,265.8,466.6,268.5z M420.8,241.9c0,1.3,0,22.4,0,22.4h-8.4c0,0,0-21.1,0-22.4C412.4,236.5,420.8,236.5,420.8,241.9
		z M382.8,252c-2.7-4.7,4.6-8.9,7.3-4.2c1.4,2.4,11.7,20.2,11.7,20.2l-7.3,4.2C394.4,272.2,385.3,256.4,382.8,252
		C382.8,252.1,382.8,252.1,382.8,252L382.8,252L382.8,252z M366.4,268.5L366.4,268.5L366.4,268.5
		C366.4,268.5,366.4,268.5,366.4,268.5c3.7,2.1,19.6,11.3,19.6,11.3l-4.2,7.3c0,0-15.9-9.2-19.6-11.3
		C357.5,273,361.7,265.8,366.4,268.5z"/>
	<polygon fill="#231F20" points="329.1,319.6 314,310.9 314,318 214,318 214,310.9 198.9,319.6 214,328.3 214,323 314,323 314,328.3
		"/>
</svg>
