<?xml version="1.0" encoding="utf-8"?>
<!DOCTYPE svg PUBLIC "-//W3C//DTD SVG 1.1//EN" "http://www.w3.org/Graphics/SVG/1.1/DTD/svg11.dtd">
<svg version="1.1" xmlns="http://www.w3.org/2000/svg" viewBox="0 0 323.9 514.6">
	<path d="M24.6,25.3c-1-2.1-0.3-4.6,1.7-5.6l38-19.3c2-1,4.5-0.1,5.5,2C71,4.5,70.2,7,68.2,8l-38,19.3C28.2,28.3,25.7,27.4,24.6,25.3
		z M66.1,115.9L122.9,229l12.5-6.2l5.3,16.2l4.7,4.9l3.3,5.6l18.1,37l7.5,0.9l5.5-1.9l5-3.5l3.3-4.3l0.6-4.2L173,241.4l3.7-2.2
		l-3.7-8l-1.9-1.7l2-3l17.6-0.3l2.6-0.2l25.1,18.2l4.8,0.9l3.1-0.4l6.5-5.6l3.1-3.6l0.9-6l-37.5-35.4l4.9-5.6l-9.3-9.9l-1.6,0.1
		l-22.2,14.4L118,89.8l-14.8-5.4l-33.4,16.7L66.1,115.9z M323.9,513.7l-1.8-34.3l-5.9-3.7l-154.7,1.8l-4.1-1.4l-4.6-1.8l-4.6-2.7
		l-3.7-2.7l-2.7-4.6l-2.3-5l-1.8-38.6l0.5-0.1l5.8-1l6.8-2.6L167,456l77.2-38.1l24,5.2l5.1-0.7l2.7-2.4l2.1-2.1l-2.1-2.8l-65.6-17.2
		h-4.1l-2.7,3.1l-0.3,5.2l26.4,8.2l-56.6,19.9l-10.8-22.7l1.6-1.1l3.1-4.4l2.4-4l1.7-5l-13.8-28c19.3-7.7,38-15.9,38.9-17.2l3.2,14.6
		l60-27.9l-8.7-26.5l33-16.9l2.3-2.7l1.4-3.2l-0.5-5l-6.4-13.7l-22.9-7.3l-114.9,50.8l-0.5,4.1l-48.5,22.9l0.9,14.6
		c0,0,1.4,1.7,3.5,4.3l-4.7,1.6l-8.2,3.4l-5.5,1.4l-1.5,0.4l-6.6,1h-4.1l-2.7-0.6l-3.4-1l-5.8-2l-3.4-2l-2.7-3.1l-2.7-3.6l-1.9-2.4
		l-1.6-2.6l-1.4-3.1l-1.4-3.4l-1.4-2.7l-1.4-4.5L36,332l-1-4.5l-0.7-5.5l-0.3-7.6v-6.9l1-5.8l0.7-4.1l1-4.8l2.4-5.2l2.7-4.1l3.1-4.1
		l4.5-3.1l71.8-35.4l-49.4-99.2l-47,19.9l-11.3,58.4l-8.6,52.2l-4.7,53l1.3,9.5L6.4,352l7.2,14.4l8.9,13.4l8.6,11.7l8.2,7.9l10,6.9
		l10.3,5.8l11.3,5.8l12.4,3.8l13.4,1.7l0.9,0l-0.2,35.9l-3.7,4.1l-7.3,5l-9.2,2.7c0,0-44.4,3.2-47.6,3.2l-1.8,40.3l44.9-0.5l3.5-6
		l212.7-0.9v6.9L323.9,513.7z M33.4,27.5l35.1,70.4l33.2-16.6L66.6,11L33.4,27.5z"/>
</svg>
