<?xml version="1.0" encoding="utf-8"?>
<!DOCTYPE svg PUBLIC "-//W3C//DTD SVG 1.1//EN" "http://www.w3.org/Graphics/SVG/1.1/DTD/svg11.dtd">
<svg version="1.1" xmlns="http://www.w3.org/2000/svg" viewBox="219.9 -0.4 467.1 706.2">
	<path fill="#231F20" d="M465.6,685c10-9.9,19.7-26.5,25.6-46.5c7.9-27.7,11.1-63.1,10.5-85.5
		c-0.5-13-6.4-41.3-17-66.9c-5.8-14.1-14.8-28.2-20.6-38.1c-6.3-9.9-6.4-31.3-9.6-56.4c0.5,27.1-2.2,40.8,4.7,60.1
		c4.2,11.5,18.5,27.1,22.8,42.3c5.8,20.4,12.2,42.8,11.6,56.4c0,15.7-1,44.9-7.9,76.2c-5.2,25.9-17.3,48.1-37.7,60.7
		c-20.8-4.2-45.3-11.4-59.7-23.6c-28.1-24-52.9-64.2-56.1-99.1c-2.6-28.7,24.3-71,61.9-92.4c31.8-18.3,39.1-39.1,46-72.5
		c-9.5,29.2-18.5,53.7-49.2,69.4c-44.5,23-67.3,61.5-65.2,98.1c3.2,47,22.3,78.8,59.8,104.4c10.9,7.5,28.4,15.4,44.3,20.6
		c-58-13.2-63.6-19.3-80.3-38.8c0-1-4.2-3.7-4.2-4.7c-21.2-24-48.2-64.7-57.7-102.3c-3.2-13-6.4-27.1-2.7-40.2
		c17.5-61.6,55.6-85.6,93.7-111.2c9.5-6.3,18.5-12.5,27.5-18.8c21.2-16.2,26.5-59.5,31.2-83.5c-9,29.8-18,66.3-34.4,78.3
		c-8.5,6.8-19.1,12-28.1,17.7c-39.7,26.6-78.9,51.7-96.9,115.4c-4.2,16.2-1.1,28.2,2.6,43.8c10.1,39.1,37.1,80.9,59.3,106
		c0,0,3.7,3.7,3.7,4.2c10.1,11.5,23.1,19.6,38.3,26.1l0,0c-13.3-3.6-26.1-8.3-38.3-14.1c-61.9-29.8-103.2-93.4-105.9-145.6
		c-5.8-106,46.1-136.8,93.7-175.4c27-21.9,64.1-32.4,85.8-71c4.2-8.3,10-25.8,5.2-45.1c-2.1-6.8-7.3-27.8-11-33l24.6,9.7l29.7,12.7
		c0,0,0,0,0,0l0,0l14.5,7.1c-9.5,35,19.6,71.5,42.9,84.6c23.3,13.1,60.9,37.6,83.6,57.9c39.7,35,60.9,84.6,60.9,136.8
		c0,51.7-22.8,102.3-63.5,135.7c-27.4,22.5-71.1,39.9-107.2,47.3c9.7-11.5,20.3-31.9,28.3-53.6c19.6-51.7,23.3-113.3,15.3-178
		c-0.5-6.3-11.1-62.1-21.2-85.6c-14.3-35-39.7-66.3-42.3-73.1c-4.8-11.5-15.2-35.3-14.4-67.9c-1.6,27.9-2,38.2,3.3,58.5
		c5.8,22.4,35.5,54.8,47.6,91.9c23.3,71,17.5,163.9,0.5,236.5c-3,12-11.2,26.6-22.3,39.9c3.9-7,7.2-14.6,9.6-22.6
		c16.9-58.5,23.8-85.6,15.9-150.3c-1.1-6.3-3.7-27.7-13.8-50.6c-14.8-35-36-68.4-38.6-75.2c-4.8-11-11.1-58.5-12.2-90.8
		c0.5,27.1,2.6,77.8,10.1,97.6c2.1,6.8,21.7,36.5,35.5,72.6c9.5,25.1,11.6,48,13.2,54.8c6.4,29.8-1.6,79.9-12.2,127.4
		c-4.4,21.1-17.3,46.4-33.3,61.7C466.1,684.7,465.8,684.8,465.6,685z M473.5,210.6c40.3-60.8,92-121.2,156.3-177.6
		c-51.3,17.2-96.9,43.3-130.8,90.3C519.2,82.1,552,40.8,588-0.4c-49.2,35-92.1,74.6-119.1,127.4L488,52.3
		c-26.7,46.9-45.5,95.2-53,142.8c-18.8-8.2-39.6-15.4-39.6-15.4l-11.1,7.7c34.4,61.1,20.6,91,3.7,102.5
		c-34.4,23.5-84.7,52.7-109.6,78.3c-48.2,48.5-61.9,95-57.7,156.1c4.8,78.3,62.5,143.5,139.8,169.1c33.9,11,65.1,12.5,100,12.5
		c56.1,0,113.8-14.6,155.6-49.1c44.5-36.5,70.9-91.3,70.9-148.2c0-57.4-24.3-111.7-67.2-150.3c-22.8-20.4-51.3-37.1-81-53.2
		c-13.2-7.3-54-38.6-40.2-83.5C498.5,221.5,484.5,215.2,473.5,210.6L473.5,210.6z M451.4,494c0.5,18.3,8,41.7,11.1,65.7
		c2.7,17.7,1.5,35.6,1,51.2c-0.5,18.1-6.6,50.6-15,66.4c-7.9-3.6-11-7.6-16.1-14.2c-6.3-8.9-10.7-17.7-14.9-28.2
		c-3.2-7.8-6.9-16.8-8.5-27.2c-2.1-15.7-1.5-40.2,16.5-65.2c13.8-19.8,16.9-21.3,21.7-44.3c-6.4,20.4-11.1,22.4-25.9,39.7
		c-16.4,18.8-19.1,46.5-19.1,68.9c0,9.4,3.8,19.8,7.5,29.7c4.2,10.4,7.9,20.8,13.7,28.7c8.8,12.7,20,19.9,25.4,21.3c0,0,0.1,0,0.1,0
		c0.1,0,0.3,0.1,0.4,0.1v-0.6c10.3-11.3,16.5-22.5,18.5-33.8c2.6-13.6,3.3-27.2,4.8-43.4c1.6-13.6,0.4-31.9-3.3-50.6
		C464.1,534.6,455.2,510.7,451.4,494z"/>
</svg>
