<?xml version="1.0" encoding="utf-8"?>
<!DOCTYPE svg PUBLIC "-//W3C//DTD SVG 1.1//EN" "http://www.w3.org/Graphics/SVG/1.1/DTD/svg11.dtd">
<svg version="1.1" xmlns="http://www.w3.org/2000/svg" viewBox="0 0 531 250">
	<path d="M12.8,153.9c-1.9,0.8-3,2.9-2.6,4.9c0.4,2.1,2.3,3.5,4.4,3.5C13.8,159.6,13.2,156.8,12.8,153.9L12.8,153.9z M15.9,166.4
		c-1.7,1.2-2.3,3.5-1.4,5.4c0.9,1.9,3,2.9,5,2.4C18.1,171.7,16.9,169.1,15.9,166.4L15.9,166.4z M21.8,177.8c-1.4,1.5-1.5,3.9-0.2,5.6
		c1.3,1.7,3.6,2.1,5.5,1.2C25.1,182.4,23.4,180.2,21.8,177.8L21.8,177.8z M30,187.6c-1,1.8-0.6,4.1,1.1,5.5s4,1.3,5.6-0.1
		C34.4,191.3,32.1,189.5,30,187.6L30,187.6z M40.3,195.3c-0.5,2,0.4,4.1,2.3,5.1c1.9,0.9,4.2,0.3,5.4-1.3
		C45.4,198,42.8,196.7,40.3,195.3L40.3,195.3z M52,200.5c-0.1,2.1,1.3,3.9,3.4,4.4c2.1,0.5,4.2-0.6,5-2.5
		C57.6,202,54.8,201.3,52,200.5L52,200.5z M64.6,202.9c0.4,2,2.2,3.6,4.3,3.6c2.1,0,3.9-1.5,4.3-3.6c-1.7,0.1-3.5,0.2-5.3,0.1
		C66.8,203,65.7,203,64.6,202.9L64.6,202.9z M77.5,202.4c0.8,1.9,2.9,3,5,2.5s3.5-2.4,3.4-4.4C83.1,201.3,80.3,202,77.5,202.4
		L77.5,202.4z M89.9,199.1c1.2,1.6,3.5,2.2,5.4,1.3c1.9-0.9,2.8-3.1,2.3-5.1C95.1,196.7,92.5,198,89.9,199.1L89.9,199.1z M101.2,193
		c1.6,1.3,3.9,1.4,5.6,0.1c1.7-1.3,2.1-3.7,1.1-5.5C105.8,189.5,103.5,191.4,101.2,193L101.2,193z M110.8,184.5
		c1.8,0.9,4.1,0.5,5.5-1.2c1.3-1.7,1.2-4-0.2-5.6C114.5,180.2,112.7,182.4,110.8,184.5L110.8,184.5z M118.3,174.2
		c2,0.5,4.1-0.5,5-2.4c0.9-1.9,0.3-4.2-1.4-5.4C121,169.1,119.7,171.7,118.3,174.2L118.3,174.2z M123.3,162.3c2.1,0,3.9-1.4,4.4-3.5
		c0.4-2.1-0.7-4.1-2.6-4.9C124.7,156.8,124.1,159.6,123.3,162.3L123.3,162.3z M35.6,45.3c0,18.3,14.9,33.2,33.2,33.2
		c18.3,0,33.2-14.9,33.2-33.2c0-0.4,0-0.9,0-1.3c-17.9,0-32.4-14.2-33.2-31.9C68.1,29.8,53.5,44,35.7,44
		C35.6,44.4,35.6,44.9,35.6,45.3L35.6,45.3z M4.2,150.3c-1.4,16.3,1.1,36.4,12.1,61.4c2.9,6.5,6.8,12.7,11.5,18.6c0,0,13,7.7,41,7.7
		c28,0,41-7.7,41-7.7c4.7-5.9,8.6-12.1,11.5-18.6c11-25,13.5-45.2,12.1-61.4c-1.7,0.7-3.5,1.3-5.3,1.9c2.1,1.7,3.2,4.5,2.6,7.3
		c-0.6,2.9-2.9,5-5.6,5.7c1.8,2.1,2.3,5.2,1,7.9c-1.3,2.7-3.9,4.3-6.7,4.3c1.3,2.5,1.1,5.6-0.8,7.9s-4.8,3.3-7.5,2.6
		c0.7,2.7-0.2,5.7-2.5,7.5c-2.3,1.9-5.4,2.1-7.9,0.9c0,2.8-1.5,5.5-4.2,6.8c-2.7,1.3-5.7,0.9-7.9-0.9c-0.6,2.7-2.7,5-5.6,5.7
		c-2.9,0.7-5.8-0.5-7.5-2.7c-1.2,2.5-3.7,4.3-6.7,4.3c-3,0-5.5-1.7-6.7-4.3c-1.7,2.2-4.6,3.3-7.5,2.7s-5-2.9-5.6-5.7
		c-2.2,1.8-5.2,2.2-7.9,0.9c-2.7-1.3-4.2-4-4.2-6.8c-2.5,1.2-5.6,1-7.9-0.9c-2.3-1.9-3.2-4.8-2.5-7.5c-2.7,0.6-5.7-0.3-7.5-2.6
		c-1.8-2.3-2-5.4-0.8-7.9c-2.8,0-5.4-1.6-6.7-4.3c-1.3-2.7-0.8-5.7,1-7.9c-2.7-0.6-5-2.8-5.6-5.7c-0.6-2.8,0.5-5.5,2.5-7.2
		C7.9,151.6,6,151,4.2,150.3L4.2,150.3z M11.6,121c-2.2,5.3-4.2,11.2-5.7,17.8c-0.4,1.8-0.8,3.7-1,5.7c17.4,6.5,39.6,10.3,63.9,10.3
		c24.2,0,46.5-3.9,63.9-10.3c-0.3-2-0.6-3.9-1-5.7c-1.4-6.6-3.4-12.5-5.7-17.8c-31.5-2.8-55.8-17.9-57.1-36.4
		C67.6,103.1,43.2,118.2,11.6,121L11.6,121z M20.9,48.3C20.9,21.7,42.3,0.2,68.8,0c26.5,0.2,47.9,21.7,47.9,48.3c0,5.9-1,11.5-3,16.7
		l-0.2,0.6c-0.9,2.6-3.7,13.4,4.4,30.3c9.6,20.1,34.9,53.6,7,117.3c-3,6.9-7.1,13.4-12,19.5c1.6,1.3,2.4,2.7,2.4,4.2
		c0,7.2-20.8,13-46.4,13c-25.6,0-46.4-5.8-46.4-13c0-1.5,0.8-2.9,2.4-4.2c-4.9-6.1-9-12.6-12-19.5c-28.1-64-2.4-97.8,7-117.3
		c8.1-16.9,5.3-27.7,4.4-30.3L23.9,65C22,59.8,20.9,54.2,20.9,48.3L20.9,48.3z M62.5,136.7c0-3.5,2.9-6.4,6.4-6.4
		c3.5,0,6.4,2.9,6.4,6.4c0,3.5-2.9,6.4-6.4,6.4C65.4,143.1,62.5,140.2,62.5,136.7L62.5,136.7z M62.5,111.2c0-3.5,2.9-6.4,6.4-6.4
		c3.5,0,6.4,2.9,6.4,6.4s-2.9,6.4-6.4,6.4C65.4,117.6,62.5,114.7,62.5,111.2L62.5,111.2z M83.3,47.9c0,2.1-1.7,3.9-3.9,3.9
		s-3.9-1.7-3.9-3.9c0-2.1,1.7-3.9,3.9-3.9C81.6,44.1,83.3,45.8,83.3,47.9L83.3,47.9z M68.9,64.2c0.5-0.8,2-1.5,5.3-0.5
		c1.5,0.5,2.5-0.1,2.5-0.1c-0.4,0.3-2.1,1.6-2.1,1.6l0,0.4c0,2.1-2.5,3.9-5.7,3.9c-3.1,0-5.7-1.8-5.7-3.9l0-0.4c0,0-1.7-1.3-2.1-1.6
		c0,0,1,0.5,2.5,0.1C66.8,62.7,68.4,63.4,68.9,64.2L68.9,64.2z M53.8,47.9c0-2.1,1.7-3.9,3.9-3.9s3.9,1.7,3.9,3.9
		c0,2.1-1.7,3.9-3.9,3.9S53.8,50.1,53.8,47.9L53.8,47.9z"/>
	<path d="M159.3,165.4c-1.7,0.7-2.7,2.5-2.3,4.4c0.4,1.8,2,3.1,3.8,3C160.1,170.4,159.6,168,159.3,165.4L159.3,165.4z M162,176.4
		c-1.5,1.1-2,3-1.2,4.8c0.8,1.7,2.7,2.6,4.4,2.1C164,181.1,162.9,178.8,162,176.4L162,176.4z M167.2,186.4c-1.2,1.4-1.3,3.4-0.1,4.9
		c1.2,1.5,3.2,1.9,4.8,1.1C170.1,190.5,168.6,188.5,167.2,186.4L167.2,186.4z M174.5,195.1c-0.9,1.6-0.5,3.6,1,4.8s3.5,1.1,4.9-0.1
		C178.3,198.4,176.3,196.8,174.5,195.1L174.5,195.1z M183.5,201.8c-0.5,1.8,0.3,3.6,2,4.5c1.7,0.8,3.7,0.3,4.8-1.1
		C187.9,204.2,185.7,203.1,183.5,201.8L183.5,201.8z M193.8,206.4c-0.1,1.8,1.1,3.5,3,3.9c1.8,0.4,3.7-0.5,4.4-2.2
		C198.7,207.7,196.2,207.2,193.8,206.4L193.8,206.4z M204.9,208.5c0.3,1.8,1.9,3.1,3.8,3.1c1.9,0,3.4-1.4,3.8-3.1
		c-1.5,0.1-3.1,0.2-4.7,0.1C206.8,208.6,205.9,208.6,204.9,208.5L204.9,208.5z M216.2,208.1c0.7,1.7,2.6,2.6,4.4,2.2
		c1.8-0.4,3.1-2.1,3-3.9C221.2,207.2,218.7,207.7,216.2,208.1L216.2,208.1z M227.1,205.2c1.1,1.4,3.1,2,4.8,1.1
		c1.7-0.8,2.5-2.7,2-4.5C231.7,203.1,229.4,204.2,227.1,205.2L227.1,205.2z M237,199.8c1.4,1.2,3.5,1.2,4.9,0.1
		c1.5-1.2,1.8-3.2,1-4.8C241.1,196.8,239.1,198.4,237,199.8L237,199.8z M245.5,192.4c1.6,0.8,3.6,0.4,4.8-1c1.2-1.5,1.1-3.5-0.1-4.9
		C248.8,188.5,247.2,190.5,245.5,192.4L245.5,192.4z M252.2,183.3c1.8,0.4,3.6-0.4,4.4-2.1c0.8-1.7,0.2-3.7-1.2-4.8
		C254.5,178.8,253.4,181.1,252.2,183.3L252.2,183.3z M256.5,172.8c1.8,0,3.5-1.2,3.8-3.1c0.4-1.8-0.6-3.6-2.3-4.3
		C257.8,168,257.3,170.5,256.5,172.8L256.5,172.8z M179.4,69.9c0,16.1,13.1,29.2,29.2,29.2c16.1,0,29.2-13.1,29.2-29.2
		c0-0.4,0-0.8,0-1.2c-15.7,0-28.5-12.5-29.2-28c-0.6,15.6-13.4,28-29.2,28C179.4,69.1,179.4,69.5,179.4,69.9L179.4,69.9z
		 M151.7,162.3c-1.3,14.3,1,32,10.6,54.1c2.5,5.7,6,11.2,10.1,16.4c0,0,11.5,6.8,36.1,6.8c24.6,0,36.1-6.8,36.1-6.8
		c4.2-5.2,7.6-10.6,10.1-16.4c9.7-22,11.9-39.7,10.6-54.1c-1.5,0.6-3.1,1.1-4.7,1.7c1.8,1.5,2.8,3.9,2.3,6.4c-0.5,2.6-2.5,4.4-4.9,5
		c1.6,1.9,2,4.6,0.9,6.9c-1.1,2.4-3.4,3.8-5.9,3.8c1.1,2.2,0.9,4.9-0.7,7c-1.6,2.1-4.2,2.9-6.6,2.3c0.6,2.4-0.2,5-2.2,6.6
		c-2,1.6-4.8,1.9-6.9,0.8c0,2.4-1.3,4.8-3.7,6c-2.3,1.1-5,0.8-6.9-0.8c-0.5,2.4-2.4,4.4-4.9,5c-2.5,0.6-5.1-0.4-6.6-2.3
		c-1,2.2-3.3,3.8-5.9,3.8c-2.6,0-4.9-1.5-5.9-3.8c-1.5,1.9-4,2.9-6.6,2.3c-2.5-0.6-4.4-2.6-4.9-5c-1.9,1.5-4.6,1.9-6.9,0.8
		c-2.3-1.1-3.7-3.5-3.7-6c-2.2,1.1-4.9,0.9-6.9-0.8c-2-1.6-2.8-4.3-2.2-6.6c-2.4,0.6-5-0.3-6.6-2.3c-1.6-2.1-1.8-4.8-0.7-7
		c-2.5,0-4.8-1.4-5.9-3.8c-1.1-2.4-0.7-5.1,0.9-6.9c-2.4-0.5-4.4-2.4-4.9-5c-0.5-2.4,0.4-4.9,2.2-6.4
		C154.9,163.4,153.3,162.9,151.7,162.3L151.7,162.3z M158.3,136.5c-2,4.7-3.7,9.9-5,15.6c-0.4,1.6-0.7,3.3-0.9,5
		c15.3,5.7,34.9,9.1,56.2,9.1c21.3,0,40.9-3.4,56.2-9.1c-0.3-1.7-0.6-3.4-0.9-5c-1.2-5.8-3-11-5-15.7c-27.7-2.5-49.1-15.8-50.3-32
		C207.5,120.7,186,134,158.3,136.5L158.3,136.5z M166.4,72.5c0-23.3,18.8-42.3,42.1-42.5c23.3,0.2,42.1,19.1,42.1,42.5
		c0,5.2-0.9,10.1-2.6,14.7l-0.2,0.6c-0.8,2.3-3.3,11.8,3.9,26.7c8.5,17.7,30.7,47.2,6.1,103.3c-2.7,6.1-6.3,11.8-10.6,17.1
		c1.4,1.1,2.1,2.4,2.1,3.7c0,6.3-18.3,11.5-40.8,11.5c-22.6,0-40.8-5.1-40.8-11.5c0-1.3,0.7-2.5,2.1-3.7c-4.3-5.4-7.9-11.1-10.6-17.1
		c-24.7-56.3-2.1-86,6.1-103.3c7.1-14.9,4.7-24.4,3.9-26.7l-0.2-0.6C167.3,82.6,166.4,77.7,166.4,72.5L166.4,72.5z M203,150.3
		c0-3.1,2.5-5.6,5.6-5.6c3.1,0,5.6,2.5,5.6,5.6c0,3.1-2.5,5.6-5.6,5.6C205.6,155.9,203,153.4,203,150.3L203,150.3z M203,127.9
		c0-3.1,2.5-5.6,5.6-5.6c3.1,0,5.6,2.5,5.6,5.6c0,3.1-2.5,5.6-5.6,5.6C205.6,133.5,203,131,203,127.9L203,127.9z M221.3,72.2
		c0,1.9-1.5,3.4-3.4,3.4c-1.9,0-3.4-1.5-3.4-3.4c0-1.9,1.5-3.4,3.4-3.4C219.8,68.8,221.3,70.3,221.3,72.2L221.3,72.2z M208.6,86.5
		c0.4-0.7,1.8-1.3,4.7-0.4c1.3,0.4,2.2-0.1,2.2-0.1c-0.3,0.3-1.9,1.4-1.9,1.4l0,0.4c0,1.9-2.2,3.4-5,3.4c-2.8,0-5-1.5-5-3.4l0-0.4
		c0,0-1.5-1.2-1.9-1.4c0,0,0.9,0.5,2.2,0.1C206.8,85.2,208.2,85.8,208.6,86.5L208.6,86.5z M195.4,72.2c0-1.9,1.5-3.4,3.4-3.4
		c1.9,0,3.4,1.5,3.4,3.4c0,1.9-1.5,3.4-3.4,3.4C196.9,75.6,195.4,74.1,195.4,72.2L195.4,72.2z"/>
	<path d="M288.7,180.8c-1.4,0.6-2.2,2.1-1.9,3.6c0.3,1.5,1.7,2.5,3.1,2.5C289.4,184.9,288.9,182.9,288.7,180.8L288.7,180.8z
		 M290.9,189.8c-1.2,0.9-1.7,2.5-1,3.9c0.6,1.4,2.2,2.1,3.6,1.7C292.5,193.6,291.6,191.7,290.9,189.8L290.9,189.8z M295.1,198
		c-1,1.1-1.1,2.8-0.1,4c0.9,1.2,2.6,1.5,3.9,0.9C297.5,201.3,296.3,199.7,295.1,198L295.1,198z M301.1,205.1c-0.7,1.3-0.4,3,0.8,3.9
		s2.9,0.9,4,0C304.2,207.8,302.6,206.5,301.1,205.1L301.1,205.1z M308.5,210.6c-0.4,1.4,0.3,3,1.7,3.7c1.4,0.7,3,0.2,3.9-0.9
		C312.1,212.5,310.2,211.6,308.5,210.6L308.5,210.6z M316.9,214.3c-0.1,1.5,0.9,2.8,2.4,3.2c1.5,0.3,3-0.4,3.6-1.8
		C320.9,215.4,318.9,214.9,316.9,214.3L316.9,214.3z M326,216.1c0.3,1.5,1.6,2.6,3.1,2.6c1.5,0,2.8-1.1,3.1-2.6
		c-1.3,0.1-2.5,0.1-3.8,0.1C327.6,216.2,326.8,216.1,326,216.1L326,216.1z M335.2,215.7c0.6,1.4,2.1,2.1,3.6,1.8
		c1.5-0.3,2.5-1.7,2.4-3.2C339.3,214.9,337.3,215.4,335.2,215.7L335.2,215.7z M344.2,213.3c0.9,1.2,2.5,1.6,3.9,0.9
		c1.4-0.7,2.1-2.2,1.7-3.7C347.9,211.6,346.1,212.5,344.2,213.3L344.2,213.3z M352.3,209c1.1,1,2.8,1,4,0c1.2-1,1.5-2.6,0.8-3.9
		C355.6,206.5,354,207.8,352.3,209L352.3,209z M359.2,202.9c1.3,0.7,3,0.4,3.9-0.9c0.9-1.2,0.9-2.9-0.1-4
		C361.9,199.7,360.6,201.4,359.2,202.9L359.2,202.9z M364.7,195.4c1.4,0.4,3-0.3,3.6-1.7c0.6-1.4,0.2-3-1-3.9
		C366.5,191.7,365.7,193.6,364.7,195.4L364.7,195.4z M368.2,186.9c1.5,0,2.8-1,3.1-2.5c0.3-1.5-0.5-3-1.9-3.6
		C369.3,182.9,368.8,184.9,368.2,186.9L368.2,186.9z M305.1,102.6c0,13.2,10.7,23.9,23.9,23.9c13.2,0,23.9-10.7,23.9-23.9
		c0-0.3,0-0.6,0-0.9c-12.9,0-23.4-10.2-23.9-22.9c-0.5,12.8-11,22.9-23.9,22.9C305.1,102,305.1,102.3,305.1,102.6L305.1,102.6z
		 M282.5,178.2c-1,11.7,0.8,26.2,8.7,44.2c2.1,4.7,4.9,9.2,8.3,13.4c0,0,9.4,5.5,29.5,5.5c20.1,0,29.5-5.5,29.5-5.5
		c3.4-4.2,6.2-8.7,8.3-13.4c7.9-18,9.7-32.5,8.7-44.2c-1.2,0.5-2.5,0.9-3.8,1.4c1.5,1.2,2.3,3.2,1.9,5.2c-0.4,2.1-2.1,3.6-4,4.1
		c1.3,1.5,1.6,3.7,0.7,5.7c-0.9,1.9-2.8,3.1-4.8,3.1c0.9,1.8,0.8,4-0.5,5.7s-3.4,2.4-5.4,1.9c0.5,1.9-0.2,4.1-1.8,5.4
		c-1.7,1.3-3.9,1.5-5.7,0.6c0,2-1.1,3.9-3,4.9c-1.9,0.9-4.1,0.6-5.7-0.6c-0.4,2-1.9,3.6-4,4.1c-2.1,0.5-4.2-0.3-5.4-1.9
		c-0.8,1.8-2.7,3.1-4.8,3.1c-2.1,0-4-1.3-4.8-3.1c-1.2,1.6-3.3,2.4-5.4,1.9c-2.1-0.5-3.6-2.1-4-4.1c-1.6,1.3-3.8,1.6-5.7,0.6
		c-1.9-0.9-3-2.9-3-4.9c-1.8,0.9-4,0.7-5.7-0.6c-1.7-1.3-2.3-3.5-1.8-5.4c-2,0.5-4.1-0.2-5.4-1.9c-1.3-1.7-1.5-3.9-0.5-5.7
		c-2,0-3.9-1.1-4.8-3.1c-0.9-1.9-0.5-4.1,0.7-5.7c-2-0.4-3.6-2-4-4.1c-0.4-2,0.3-4,1.8-5.2C285.1,179.2,283.8,178.7,282.5,178.2
		L282.5,178.2z M287.8,157.1c-1.6,3.8-3.1,8.1-4.1,12.8c-0.3,1.3-0.5,2.7-0.8,4.1c12.5,4.7,28.5,7.4,46,7.4c17.5,0,33.5-2.8,46-7.4
		c-0.2-1.4-0.5-2.8-0.8-4.1c-1-4.7-2.5-9-4.1-12.8c-22.7-2-40.2-12.9-41.1-26.2C328.1,144.2,310.6,155.1,287.8,157.1L287.8,157.1z
		 M294.5,104.8c0-19.1,15.4-34.6,34.5-34.8c19.1,0.2,34.5,15.7,34.5,34.8c0,4.2-0.8,8.3-2.1,12.1l-0.2,0.5c-0.7,1.9-2.7,9.7,3.2,21.8
		c6.9,14.5,25.2,38.6,5,84.5c-2.2,5-5.1,9.6-8.7,14c1.2,0.9,1.7,2,1.7,3c0,5.2-14.9,9.4-33.4,9.4c-18.5,0-33.4-4.2-33.4-9.4
		c0-1.1,0.6-2.1,1.7-3c-3.5-4.4-6.5-9.1-8.7-14c-20.2-46.1-1.7-70.4,5-84.5c5.8-12.2,3.8-19.9,3.2-21.8l-0.2-0.5
		C295.3,113.1,294.5,109,294.5,104.8L294.5,104.8z M324.5,168.4c0-2.5,2.1-4.6,4.6-4.6c2.5,0,4.6,2.1,4.6,4.6c0,2.5-2.1,4.6-4.6,4.6
		C326.5,173,324.5,171,324.5,168.4L324.5,168.4z M324.5,150.1c0-2.5,2.1-4.6,4.6-4.6c2.5,0,4.6,2.1,4.6,4.6c0,2.5-2.1,4.6-4.6,4.6
		C326.5,154.7,324.5,152.6,324.5,150.1L324.5,150.1z M339.4,104.5c0,1.5-1.2,2.8-2.8,2.8c-1.5,0-2.8-1.3-2.8-2.8
		c0-1.5,1.2-2.8,2.8-2.8C338.2,101.7,339.4,103,339.4,104.5L339.4,104.5z M329,116.2c0.3-0.6,1.4-1.1,3.8-0.3
		c1.1,0.3,1.8-0.1,1.8-0.1c-0.3,0.2-1.5,1.2-1.5,1.2l0,0.3c0,1.5-1.8,2.8-4.1,2.8c-2.3,0-4.1-1.3-4.1-2.8l0-0.3c0,0-1.3-0.9-1.5-1.2
		c0,0,0.7,0.4,1.8,0.1C327.6,115.2,328.7,115.7,329,116.2L329,116.2z M318.2,104.5c0-1.5,1.2-2.8,2.8-2.8c1.5,0,2.8,1.2,2.8,2.8
		c0,1.5-1.2,2.8-2.8,2.8C319.4,107.3,318.2,106.1,318.2,104.5L318.2,104.5z"/>
	<path d="M395.8,196.2c-1.1,0.4-1.7,1.6-1.4,2.8c0.2,1.2,1.3,2,2.4,1.9C396.4,199.4,396,197.8,395.8,196.2L395.8,196.2z M397.6,203.2
		c-0.9,0.7-1.3,1.9-0.8,3c0.5,1.1,1.7,1.6,2.8,1.3C398.8,206.1,398.1,204.7,397.6,203.2L397.6,203.2z M400.8,209.6
		c-0.8,0.9-0.8,2.2-0.1,3.1c0.7,0.9,2,1.2,3.1,0.7C402.7,212.2,401.7,210.9,400.8,209.6L400.8,209.6z M405.5,215
		c-0.5,1-0.3,2.3,0.6,3.1c0.9,0.8,2.2,0.7,3.1,0C407.9,217.2,406.6,216.1,405.5,215L405.5,215z M411.2,219.4
		c-0.3,1.1,0.2,2.3,1.3,2.8c1.1,0.5,2.3,0.2,3-0.7C414,220.9,412.6,220.2,411.2,219.4L411.2,219.4z M417.8,222.3
		c0,1.2,0.7,2.2,1.9,2.5c1.2,0.3,2.3-0.3,2.8-1.4C420.9,223.1,419.3,222.7,417.8,222.3L417.8,222.3z M424.9,223.6
		c0.2,1.1,1.2,2,2.4,2c1.2,0,2.2-0.9,2.4-2c-1,0.1-2,0.1-3,0.1C426.1,223.7,425.5,223.7,424.9,223.6L424.9,223.6z M432,223.3
		c0.5,1.1,1.6,1.7,2.8,1.4c1.2-0.3,1.9-1.3,1.9-2.5C435.2,222.7,433.6,223.1,432,223.3L432,223.3z M439,221.5c0.7,0.9,2,1.3,3,0.7
		c1.1-0.5,1.6-1.7,1.3-2.8C441.9,220.2,440.5,220.9,439,221.5L439,221.5z M445.3,218.1c0.9,0.7,2.2,0.8,3.1,0c0.9-0.8,1.2-2,0.6-3.1
		C447.9,216.1,446.6,217.2,445.3,218.1L445.3,218.1z M450.7,213.3c1,0.5,2.3,0.3,3.1-0.7c0.7-0.9,0.7-2.3-0.1-3.1
		C452.8,210.9,451.8,212.2,450.7,213.3L450.7,213.3z M454.9,207.5c1.1,0.3,2.3-0.3,2.8-1.3c0.5-1.1,0.1-2.3-0.8-3
		C456.4,204.7,455.7,206.1,454.9,207.5L454.9,207.5z M457.7,200.9c1.2,0,2.2-0.8,2.4-1.9c0.2-1.2-0.4-2.3-1.4-2.8
		C458.5,197.8,458.2,199.4,457.7,200.9L457.7,200.9z M408.6,135.4c0,10.3,8.3,18.6,18.6,18.6c10.3,0,18.6-8.3,18.6-18.6
		c0-0.2,0-0.5,0-0.7c-10,0-18.2-7.9-18.6-17.8c-0.4,9.9-8.5,17.8-18.6,17.8C408.6,134.9,408.6,135.1,408.6,135.4L408.6,135.4z
		 M391,194.2c-0.8,9.1,0.6,20.4,6.8,34.4c1.6,3.7,3.8,7.1,6.4,10.4c0,0,7.3,4.3,23,4.3c15.7,0,23-4.3,23-4.3
		c2.6-3.3,4.8-6.8,6.4-10.4c6.2-14,7.6-25.3,6.8-34.4c-1,0.4-2,0.7-3,1.1c1.2,1,1.8,2.5,1.4,4.1c-0.3,1.6-1.6,2.8-3.1,3.2
		c1,1.2,1.3,2.9,0.6,4.4c-0.7,1.5-2.2,2.4-3.8,2.4c0.7,1.4,0.6,3.1-0.4,4.4c-1,1.3-2.7,1.8-4.2,1.5c0.4,1.5-0.1,3.2-1.4,4.2
		c-1.3,1-3,1.2-4.4,0.5c0,1.6-0.8,3.1-2.3,3.8c-1.5,0.7-3.2,0.5-4.4-0.5c-0.3,1.5-1.5,2.8-3.1,3.2c-1.6,0.4-3.2-0.3-4.2-1.5
		c-0.7,1.4-2.1,2.4-3.8,2.4c-1.7,0-3.1-1-3.8-2.4c-1,1.2-2.6,1.9-4.2,1.5c-1.6-0.4-2.8-1.6-3.1-3.2c-1.2,1-2.9,1.2-4.4,0.5
		c-1.5-0.7-2.4-2.2-2.3-3.8c-1.4,0.7-3.1,0.5-4.4-0.5c-1.3-1-1.8-2.7-1.4-4.2c-1.5,0.4-3.2-0.2-4.2-1.5c-1-1.3-1.1-3-0.4-4.4
		c-1.6,0-3.1-0.9-3.8-2.4c-0.7-1.5-0.4-3.2,0.6-4.4c-1.5-0.3-2.8-1.5-3.1-3.2c-0.3-1.6,0.3-3.1,1.4-4C393,194.9,392,194.6,391,194.2
		L391,194.2z M395.2,177.8c-1.2,3-2.4,6.3-3.2,10c-0.2,1-0.4,2.1-0.6,3.2c9.7,3.6,22.2,5.8,35.8,5.8c13.6,0,26-2.2,35.8-5.8
		c-0.2-1.1-0.4-2.2-0.6-3.2c-0.8-3.7-1.9-7-3.2-10c-17.6-1.6-31.2-10-32-20.4C426.5,167.7,412.8,176.2,395.2,177.8L395.2,177.8z
		 M400.4,137c0-14.9,12-26.9,26.8-27c14.8,0.1,26.8,12.2,26.8,27c0,3.3-0.6,6.5-1.7,9.4l-0.1,0.4c-0.5,1.5-2.1,7.5,2.5,17
		c5.4,11.3,19.6,30,3.9,65.7c-1.7,3.9-4,7.5-6.7,10.9c0.9,0.7,1.3,1.5,1.3,2.3c0,4-11.6,7.3-26,7.3c-14.4,0-26-3.3-26-7.3
		c0-0.8,0.4-1.6,1.3-2.3c-2.8-3.4-5-7.1-6.7-10.9c-15.7-35.8-1.3-54.8,3.9-65.7c4.5-9.5,3-15.5,2.5-17l-0.1-0.4
		C401,143.5,400.4,140.3,400.4,137L400.4,137z M423.7,186.6c0-2,1.6-3.6,3.6-3.6c2,0,3.6,1.6,3.6,3.6c0,2-1.6,3.6-3.6,3.6
		C425.3,190.1,423.7,188.5,423.7,186.6L423.7,186.6z M423.7,172.3c0-2,1.6-3.6,3.6-3.6c2,0,3.6,1.6,3.6,3.6c0,2-1.6,3.6-3.6,3.6
		C425.3,175.9,423.7,174.3,423.7,172.3L423.7,172.3z M435.3,136.8c0,1.2-1,2.2-2.2,2.2c-1.2,0-2.2-1-2.2-2.2c0-1.2,1-2.2,2.2-2.2
		C434.3,134.7,435.3,135.6,435.3,136.8L435.3,136.8z M427.2,146c0.3-0.4,1.1-0.8,3-0.3c0.8,0.3,1.4-0.1,1.4,0
		c-0.2,0.2-1.2,0.9-1.2,0.9l0,0.2c0,1.2-1.4,2.2-3.2,2.2c-1.8,0-3.2-1-3.2-2.2l0-0.2c0,0-1-0.7-1.2-0.9c0,0,0.6,0.3,1.4,0
		C426.1,145.1,426.9,145.5,427.2,146L427.2,146z M418.8,136.8c0-1.2,1-2.2,2.2-2.2c1.2,0,2.2,1,2.2,2.2c0,1.2-1,2.2-2.2,2.2
		C419.8,139,418.8,138,418.8,136.8L418.8,136.8z"/>
	<path d="M481.1,211.6c-0.8,0.3-1.2,1.1-1,2c0.2,0.8,0.9,1.4,1.7,1.4C481.5,213.8,481.3,212.7,481.1,211.6L481.1,211.6z M482.4,216.5
		c-0.7,0.5-0.9,1.4-0.6,2.2c0.4,0.8,1.2,1.2,2,1C483.3,218.7,482.8,217.6,482.4,216.5L482.4,216.5z M484.7,221.1
		c-0.5,0.6-0.6,1.6-0.1,2.2c0.5,0.7,1.4,0.9,2.2,0.5C486.1,223,485.3,222.1,484.7,221.1L484.7,221.1z M488,225
		c-0.4,0.7-0.2,1.7,0.4,2.2c0.7,0.5,1.6,0.5,2.2,0C489.7,226.5,488.9,225.8,488,225L488,225z M492.1,228.1c-0.2,0.8,0.2,1.7,0.9,2
		c0.8,0.4,1.7,0.1,2.2-0.5C494.1,229.2,493.1,228.7,492.1,228.1L492.1,228.1z M496.8,230.2c0,0.8,0.5,1.6,1.4,1.8
		c0.8,0.2,1.7-0.2,2-1C499,230.8,497.9,230.5,496.8,230.2L496.8,230.2z M501.9,231.1c0.2,0.8,0.9,1.4,1.7,1.4c0.9,0,1.6-0.6,1.7-1.4
		c-0.7,0.1-1.4,0.1-2.1,0.1C502.7,231.2,502.3,231.2,501.9,231.1L501.9,231.1z M507,231c0.3,0.8,1.2,1.2,2,1c0.8-0.2,1.4-0.9,1.4-1.8
		C509.3,230.5,508.1,230.8,507,231L507,231z M511.9,229.6c0.5,0.7,1.4,0.9,2.2,0.5c0.8-0.4,1.1-1.2,0.9-2
		C514,228.7,513,229.2,511.9,229.6L511.9,229.6z M516.5,227.2c0.6,0.5,1.6,0.6,2.2,0c0.7-0.5,0.8-1.5,0.4-2.2
		C518.3,225.8,517.4,226.5,516.5,227.2L516.5,227.2z M520.3,223.8c0.7,0.4,1.7,0.2,2.2-0.5c0.5-0.7,0.5-1.6-0.1-2.2
		C521.8,222.1,521.1,223,520.3,223.8L520.3,223.8z M523.3,219.7c0.8,0.2,1.7-0.2,2-1c0.4-0.8,0.1-1.7-0.6-2.2
		C524.4,217.6,523.9,218.7,523.3,219.7L523.3,219.7z M525.3,214.9c0.8,0,1.6-0.6,1.7-1.4c0.2-0.8-0.3-1.7-1-2
		C525.9,212.7,525.7,213.8,525.3,214.9L525.3,214.9z M490.3,168.1c0,7.3,5.9,13.3,13.3,13.3c7.3,0,13.3-5.9,13.3-13.3
		c0-0.2,0-0.4,0-0.5c-7.1,0-13-5.7-13.3-12.7c-0.3,7.1-6.1,12.7-13.3,12.7C490.3,167.8,490.3,167.9,490.3,168.1L490.3,168.1z
		 M477.7,210.1c-0.6,6.5,0.4,14.6,4.8,24.6c1.1,2.6,2.7,5.1,4.6,7.4c0,0,5.2,3.1,16.4,3.1c11.2,0,16.4-3.1,16.4-3.1
		c1.9-2.3,3.5-4.8,4.6-7.4c4.4-10,5.4-18.1,4.8-24.6c-0.7,0.3-1.4,0.5-2.1,0.8c0.8,0.7,1.3,1.8,1,2.9c-0.2,1.2-1.1,2-2.2,2.3
		c0.7,0.9,0.9,2.1,0.4,3.2c-0.5,1.1-1.6,1.7-2.7,1.7c0.5,1,0.4,2.2-0.3,3.2c-0.7,0.9-1.9,1.3-3,1.1c0.3,1.1-0.1,2.3-1,3
		c-0.9,0.7-2.2,0.8-3.2,0.4c0,1.1-0.6,2.2-1.7,2.7c-1.1,0.5-2.3,0.3-3.2-0.4c-0.2,1.1-1.1,2-2.2,2.3c-1.2,0.3-2.3-0.2-3-1.1
		c-0.5,1-1.5,1.7-2.7,1.7c-1.2,0-2.2-0.7-2.7-1.7c-0.7,0.9-1.8,1.3-3,1.1c-1.2-0.3-2-1.2-2.2-2.3c-0.9,0.7-2.1,0.9-3.2,0.4
		c-1.1-0.5-1.7-1.6-1.7-2.7c-1,0.5-2.2,0.4-3.2-0.4c-0.9-0.7-1.3-1.9-1-3c-1.1,0.3-2.3-0.1-3-1.1c-0.7-0.9-0.8-2.2-0.3-3.2
		c-1.1,0-2.2-0.6-2.7-1.7c-0.5-1.1-0.3-2.3,0.4-3.2c-1.1-0.2-2-1.1-2.2-2.3c-0.2-1.1,0.2-2.2,1-2.9
		C479.1,210.7,478.4,210.4,477.7,210.1L477.7,210.1z M480.7,198.4c-0.9,2.1-1.7,4.5-2.3,7.1c-0.2,0.7-0.3,1.5-0.4,2.3
		c7,2.6,15.9,4.1,25.6,4.1c9.7,0,18.6-1.5,25.6-4.1c-0.1-0.8-0.3-1.5-0.4-2.3c-0.6-2.6-1.4-5-2.3-7.1c-12.6-1.1-22.3-7.2-22.9-14.6
		C503,191.2,493.3,197.3,480.7,198.4L480.7,198.4z M484.4,169.3c0-10.6,8.6-19.2,19.2-19.3c10.6,0.1,19.2,8.7,19.2,19.3
		c0,2.4-0.4,4.6-1.2,6.7l-0.1,0.3c-0.4,1-1.5,5.4,1.8,12.1c3.9,8,14,21.5,2.8,46.9c-1.2,2.8-2.8,5.3-4.8,7.8c0.6,0.5,0.9,1.1,0.9,1.7
		c0,2.9-8.3,5.2-18.5,5.2c-10.3,0-18.6-2.3-18.6-5.2c0-0.6,0.3-1.2,0.9-1.7c-2-2.4-3.6-5-4.8-7.8c-11.2-25.6-1-39.1,2.8-46.9
		c3.2-6.8,2.1-11.1,1.8-12.1l-0.1-0.3C484.8,173.9,484.4,171.7,484.4,169.3L484.4,169.3z M501,204.7c0-1.4,1.1-2.6,2.6-2.6
		c1.4,0,2.6,1.1,2.6,2.6s-1.1,2.6-2.6,2.6C502.2,207.2,501,206.1,501,204.7L501,204.7z M501,194.5c0-1.4,1.1-2.6,2.6-2.6
		c1.4,0,2.6,1.1,2.6,2.6c0,1.4-1.1,2.6-2.6,2.6C502.2,197,501,195.9,501,194.5L501,194.5z M509.3,169.2c0,0.9-0.7,1.6-1.5,1.6
		s-1.5-0.7-1.5-1.6c0-0.9,0.7-1.5,1.5-1.5C508.6,167.6,509.3,168.3,509.3,169.2L509.3,169.2z M503.5,175.7c0.2-0.3,0.8-0.6,2.1-0.2
		c0.6,0.2,1,0,1,0c-0.2,0.1-0.8,0.7-0.8,0.7l0,0.2c0,0.9-1,1.6-2.3,1.6c-1.3,0-2.3-0.7-2.3-1.6l0-0.2c0,0-0.7-0.5-0.8-0.7
		c0,0,0.4,0.2,1,0C502.7,175.1,503.3,175.4,503.5,175.7L503.5,175.7z M497.5,169.2c0-0.9,0.7-1.5,1.6-1.5c0.9,0,1.6,0.7,1.6,1.5
		c0,0.9-0.7,1.6-1.6,1.6C498.2,170.7,497.5,170,497.5,169.2L497.5,169.2z"/>
</svg>
