<?xml version="1.0" encoding="utf-8"?>
<!DOCTYPE svg PUBLIC "-//W3C//DTD SVG 1.1//EN" "http://www.w3.org/Graphics/SVG/1.1/DTD/svg11.dtd">
<svg version="1.1" xmlns="http://www.w3.org/2000/svg" viewBox="0 0 884.1 448.3">
	<g>
		<g>
			<path fill="#231F20" d="M48,240.7c0.1-0.2,0.2-0.2,0.2,0l4.6,10.5c0.1,0.1,0.1,0.2-0.1,0.2h-1c-0.1,0-0.2,0-0.2-0.1l-1.1-2.4h-4.7
				l-1.1,2.4c-0.1,0.1-0.1,0.1-0.2,0.1h-1c-0.1,0-0.1-0.1-0.1-0.2L48,240.7z M46.3,247.6H50l-1.8-4.2c-0.1-0.1-0.1-0.1-0.1,0
				L46.3,247.6z"/>
			<path fill="#231F20" d="M57.2,251.5c-0.2,0-0.3-0.1-0.3-0.2v-10.4c0-0.1,0-0.2,0.1-0.2h1c0.2,0,0.2,0.1,0.2,0.2v9.2
				c0,0.1,0,0.1,0.1,0.1h3.5c0.1,0,0.2,0.1,0.2,0.2v0.9c0,0.1-0.1,0.2-0.2,0.2H57.2z"/>
			<path fill="#231F20" d="M68.6,251.5c-0.1,0-0.2,0-0.2-0.2v-9.2c0-0.1,0-0.2-0.1-0.2H65c-0.1,0-0.2,0-0.2-0.1v-0.9
				c0-0.1,0.1-0.1,0.1-0.1h8.4c0.1,0,0.2,0,0.2,0.1v1c0,0.1-0.1,0.1-0.2,0.1h-3.4c-0.1,0-0.1,0.1-0.1,0.1v9.2c0,0.1,0,0.2-0.1,0.2
				L68.6,251.5L68.6,251.5z"/>
			<path fill="#231F20" d="M82.1,240.5c3.1,0,5.6,2.5,5.6,5.6c0,3.1-2.5,5.5-5.6,5.5c-3.1,0-5.6-2.4-5.6-5.5
				C76.5,243,79,240.5,82.1,240.5z M82.1,250.4c2.4,0,4.3-1.9,4.3-4.3s-1.9-4.3-4.3-4.3c-2.4,0-4.3,1.9-4.3,4.3
				S79.7,250.4,82.1,250.4z"/>
			<path fill="#231F20" d="M97.2,250.4c1.1,0,2-0.2,2.7-0.5v-3.4c0-0.1-0.1-0.2-0.2-0.2h-3c-0.1,0-0.2-0.1-0.2-0.2v-0.9
				c0-0.1,0.1-0.2,0.2-0.2h4.1c0.2,0,0.2,0.1,0.2,0.2v5.2c0,0.2,0,0.2-0.2,0.3c-1,0.5-2.4,0.9-3.8,0.9c-3.1,0-5.5-2.3-5.5-5.5
				c0-3.2,2.5-5.6,5.7-5.6c1.3,0,2.5,0.3,3.5,0.9c0.1,0.1,0.2,0.1,0.2,0.2v0.9c0,0.1-0.1,0.2-0.2,0.1c-0.9-0.5-2.1-0.9-3.5-0.9
				c-2.6,0-4.3,1.9-4.3,4.3C92.9,248.4,94.8,250.4,97.2,250.4z"/>
			<path fill="#231F20" d="M106.8,240.8c0-0.1,0.1-0.1,0.1-0.1h5.3c0.2,0,0.2,0.1,0.2,0.1v0.9c0,0.1,0,0.2-0.2,0.2h-4.2
				c0,0-0.1,0-0.1,0.1v3.4c0,0.1,0,0.1,0.1,0.1h4.2c0.1,0,0.1,0.1,0.1,0.2v0.7c0,0.2-0.1,0.2-0.2,0.2H108c-0.1,0-0.1,0-0.1,0.1v3.6
				c0,0.1,0,0.1,0.1,0.1h4.2c0.1,0,0.1,0.1,0.1,0.2v0.7c0,0.1-0.1,0.2-0.2,0.2h-5.3c-0.1,0-0.2,0-0.2-0.2v-10.5H106.8z"/>
			<path fill="#231F20" d="M120.4,251.5c-0.1,0-0.2,0-0.2-0.2v-9.2c0-0.1,0-0.2-0.1-0.2h-3.4c-0.1,0-0.2,0-0.2-0.1v-0.9
				c0-0.1,0.1-0.1,0.1-0.1h8.4c0.1,0,0.2,0,0.2,0.1v1c0,0.1-0.1,0.1-0.2,0.1h-3.4c-0.1,0-0.1,0.1-0.1,0.1v9.2c0,0.1,0,0.2-0.1,0.2
				L120.4,251.5L120.4,251.5z"/>
			<path fill="#231F20" d="M129.9,251.5c-0.1,0-0.2-0.1-0.2-0.1v-10.4c0-0.1,0.1-0.2,0.2-0.2h1c0.1,0,0.1,0.1,0.1,0.1v4.4
				c0,0.1,0,0.1,0.1,0.1h4.8c0.1,0,0.1-0.1,0.1-0.1v-4.4c0-0.1,0.1-0.1,0.2-0.1h1c0.1,0,0.2,0.1,0.2,0.2v10.4c0,0.1-0.1,0.2-0.1,0.2
				h-1c-0.2,0-0.2-0.1-0.2-0.2v-4.8c0-0.1-0.1-0.1-0.1-0.1h-4.8c-0.1,0-0.1,0-0.1,0.1v4.7c0,0.1-0.1,0.2-0.2,0.2H129.9L129.9,251.5z"
				/>
			<path fill="#231F20" d="M142.6,240.8c0-0.1,0.1-0.1,0.1-0.1h5.3c0.2,0,0.2,0.1,0.2,0.1v0.9c0,0.1,0,0.2-0.2,0.2h-4.2
				c0,0-0.1,0-0.1,0.1v3.4c0,0.1,0,0.1,0.1,0.1h4.2c0.1,0,0.1,0.1,0.1,0.2v0.7c0,0.2-0.1,0.2-0.2,0.2h-4.2c-0.1,0-0.1,0-0.1,0.1v3.6
				c0,0.1,0,0.1,0.1,0.1h4.2c0.1,0,0.1,0.1,0.1,0.2v0.7c0,0.1-0.1,0.2-0.2,0.2h-5.2c-0.1,0-0.2,0-0.2-0.2v-10.5H142.6z"/>
			<path fill="#231F20" d="M155.6,240.7c3,0,3.9,1.1,3.9,3c0,1.4-0.5,2.6-2,3l3.7,4.6c0.1,0.1,0.1,0.2-0.1,0.2h-1.1
				c-0.1,0-0.2-0.1-0.2-0.1l-3.6-4.4h-1.4c-0.2,0-0.2,0.1-0.2,0.2v4.2c0,0.1,0,0.2-0.1,0.2h-1c-0.1,0-0.2-0.1-0.2-0.2V241
				c0-0.2,0.1-0.2,0.2-0.2h2.2V240.7z M154.5,245.5c0,0.2,0,0.2,0.2,0.2h1c1.7,0,2.5-0.6,2.5-1.9c0-1.4-0.9-1.9-2.5-1.9h-1
				c-0.2,0-0.2,0-0.2,0.2L154.5,245.5L154.5,245.5z"/>
			<path fill="#231F20" d="M175.5,251.6c-1,0-1.9-0.2-2.4-0.5c-0.1-0.1-0.2-0.1-0.2-0.2v-1c0-0.1,0.1-0.1,0.2-0.1
				c0.6,0.4,1.4,0.6,2.2,0.6c1.5,0,2.3-0.6,2.3-1.9c0-1.5-1.3-2-2.4-2.6c-1.1-0.5-2.1-1.2-2.1-2.9c0-1.5,1-2.5,2.9-2.5
				c0.9,0,1.7,0.2,2.2,0.5c0.1,0.1,0.1,0.1,0.1,0.2v1c0,0.1-0.1,0.1-0.2,0.1c-0.5-0.3-1.1-0.6-1.9-0.6c-1.3,0-1.8,0.6-1.8,1.5
				c0,1.1,0.9,1.5,1.9,2c1.2,0.6,2.6,1.3,2.6,3.4C178.8,250.7,177.4,251.6,175.5,251.6z"/>
			<path fill="#231F20" d="M192.5,251.5c-0.1,0-0.2-0.1-0.2-0.2v-7.5c0-0.1-0.1-0.1-0.1,0l-3.6,4.3c-0.2,0.2-0.2,0.2-0.3,0.1
				l-3.6-4.3c-0.1-0.1-0.2-0.1-0.2,0.1v7.5c0,0.1,0,0.2-0.1,0.2h-1c-0.2,0-0.2-0.1-0.2-0.2v-10.5c0-0.1,0.1-0.1,0.2-0.1l4.9,5.6
				c0.1,0.2,0.2,0.2,0.3,0.1l4.8-5.5c0.1-0.1,0.2-0.1,0.2,0.1v10.5c0,0.1,0,0.2-0.1,0.2h-1V251.5z"/>
			<path fill="#231F20" d="M202.1,240.7c0.1-0.2,0.2-0.2,0.2,0l4.6,10.5c0.1,0.1,0.1,0.2-0.1,0.2h-1c-0.1,0-0.2,0-0.2-0.1l-1.1-2.4
				h-4.7l-1.1,2.4c-0.1,0.1-0.1,0.1-0.2,0.1h-1c-0.1,0-0.1-0.1-0.1-0.2L202.1,240.7z M200.4,247.6h3.7l-1.8-4.2
				c-0.1-0.1-0.1-0.1-0.1,0L200.4,247.6z"/>
			<path fill="#231F20" d="M213.8,240.7c3,0,3.9,1.1,3.9,3c0,1.4-0.5,2.6-2,3l3.7,4.6c0.1,0.1,0.1,0.2-0.1,0.2h-1.2
				c-0.1,0-0.2-0.1-0.2-0.1l-3.6-4.4h-1.4c-0.2,0-0.2,0.1-0.2,0.2v4.2c0,0.1,0,0.2-0.1,0.2h-1c-0.1,0-0.2-0.1-0.2-0.2V241
				c0-0.2,0.1-0.2,0.2-0.2h2.2V240.7z M212.7,245.5c0,0.2,0,0.2,0.2,0.2h1c1.7,0,2.5-0.6,2.5-1.9c0-1.4-0.9-1.9-2.5-1.9h-1
				c-0.2,0-0.2,0-0.2,0.2V245.5z"/>
			<path fill="#231F20" d="M225.8,251.5c-0.1,0-0.2,0-0.2-0.2v-9.2c0-0.1,0-0.2-0.1-0.2h-3.4c-0.1,0-0.2,0-0.2-0.1v-0.9
				c0-0.1,0.1-0.1,0.1-0.1h8.4c0.1,0,0.2,0,0.2,0.1v1c0,0.1-0.1,0.1-0.2,0.1h-3.4c-0.1,0-0.1,0.1-0.1,0.1v9.2c0,0.1,0,0.2-0.1,0.2
				L225.8,251.5L225.8,251.5z"/>
			<path fill="#231F20" d="M234.9,240.8c0-0.1,0.1-0.1,0.1-0.1h5.3c0.2,0,0.2,0.1,0.2,0.1v0.9c0,0.1,0,0.2-0.2,0.2h-4.2
				c0,0-0.1,0-0.1,0.1v3.4c0,0.1,0,0.1,0.1,0.1h4.2c0.1,0,0.1,0.1,0.1,0.2v0.7c0,0.2-0.1,0.2-0.2,0.2h-4.2c-0.1,0-0.1,0-0.1,0.1v3.6
				c0,0.1,0,0.1,0.1,0.1h4.2c0.1,0,0.1,0.1,0.1,0.2v0.7c0,0.1-0.1,0.2-0.2,0.2H235c-0.1,0-0.2,0-0.2-0.2v-10.5H234.9z"/>
			<path fill="#231F20" d="M247.7,240.7c3,0,3.9,1.1,3.9,3c0,1.4-0.5,2.6-2,3l3.7,4.6c0.1,0.1,0.1,0.2-0.1,0.2H252
				c-0.1,0-0.2-0.1-0.2-0.1l-3.6-4.4h-1.4c-0.2,0-0.2,0.1-0.2,0.2v4.2c0,0.1,0,0.2-0.1,0.2h-1c-0.1,0-0.2-0.1-0.2-0.2V241
				c0-0.2,0.1-0.2,0.2-0.2h2.2V240.7z M246.5,245.5c0,0.2,0,0.2,0.2,0.2h1c1.7,0,2.5-0.6,2.5-1.9c0-1.4-0.9-1.9-2.5-1.9h-1
				c-0.2,0-0.2,0-0.2,0.2L246.5,245.5L246.5,245.5z"/>
		</g>
		<g>
			<path fill="#231F20" d="M7.2,206.6c-3.3,0-5.3-0.9-6-1.3c-0.7-0.8-1.1-3.3-1.1-5.7c0.2-0.5,1.1-0.5,1.4-0.1
				c0.7,2.3,3.1,5.6,6.1,5.6c2.6,0,3.8-1.8,3.8-3.6c0-2.8-2.7-4.6-4.8-5.6c-2.6-1.3-5.3-3.4-5.3-6.9c0-4,3.1-6.8,8.3-6.8
				c1.2,0,2.6,0.1,4,0.6c0.5,0.1,0.8,0.2,1.2,0.3c0.3,0.8,0.6,2.7,0.6,5.1c-0.2,0.4-1.1,0.5-1.4,0.1c-0.6-1.8-2.1-4.4-4.7-4.4
				c-2.3,0-3.6,1.5-3.6,3.3c0,1.7,1.5,3.1,3.2,4l2.3,1.3c2.2,1.2,5,3.2,5,7.1C16.1,203.7,12.5,206.6,7.2,206.6z"/>
			<path fill="#231F20" d="M47.3,183c0,0.6,0.1,3.5,0.4,5.5c-0.1,0.4-1.1,0.6-1.4,0.2c-1-3.3-3.2-5.1-6.7-5.1
				c-3.9,0-8.1,3.4-8.1,10.4c0,7.1,4.1,10.8,8.3,10.8c4.3,0,6.3-3.1,7.2-5.5c0.3-0.3,1.1-0.2,1.4,0.2c-0.2,2.6-0.9,4.7-1.4,5.6
				c-1.9,0.5-4.4,1.3-7.2,1.3c-3.5,0-7-0.8-9.5-2.7c-2.6-1.9-4.5-4.9-4.5-9.3c0-4.3,1.8-7.3,4.3-9.4c2.5-2.1,6.1-3.1,9.8-3.1
				C43.7,182.1,46.3,182.9,47.3,183z"/>
			<path fill="#231F20" d="M83,194.2c0,7.7-5.2,12.3-12.8,12.3c-7.1,0-12.3-4.7-12.3-12.1c0-7,5.2-12.4,12.6-12.4
				C77.9,182.1,83,187,83,194.2z M70.2,183.7c-4.4,0-6.7,4.1-6.7,10c0,4.3,1.5,11.3,7.3,11.3c4.7,0,6.4-4.6,6.4-10.2
				C77.3,188.6,74.6,183.7,70.2,183.7z"/>
			<path fill="#231F20" d="M100.5,185.3c0-0.9,0-1-0.9-1h-2.2c-2.6,0-3.3,1.4-4.4,4c-0.4,0.2-1.1,0.1-1.3-0.3c0.7-2.4,0.9-4.7,1.2-6
				c0.1-0.1,0.3-0.2,0.5-0.2c0.2,0,0.3,0.1,0.5,0.1c0.2,0.6,0.3,0.7,3,0.7h13.2c2.3,0,2.8-0.1,3.2-0.8c0.1-0.1,0.2-0.1,0.5-0.1
				c0.2,0,0.5,0.1,0.5,0.2c-0.3,1.2-0.6,4.1-0.5,6.1c-0.2,0.3-1.1,0.4-1.3,0.1c-0.6-2.3-1.1-3.9-3.8-3.9h-2.1c-0.9,0-1,0.1-1,1v15.6
				c0,3.3,0.2,3.6,1.8,3.8l1.4,0.2c0.2,0.2,0.2,1,0,1.3c-2.3-0.1-4.1-0.1-5.7-0.1c-1.7,0-3.5,0.1-6,0.1c-0.3-0.2-0.3-1,0-1.3l1.6-0.2
				c1.6-0.2,1.8-0.5,1.8-3.8L100.5,185.3L100.5,185.3z"/>
			<path fill="#231F20" d="M131.7,185.3c0-0.9,0-1-0.9-1h-2.2c-2.6,0-3.3,1.4-4.4,4c-0.4,0.2-1.1,0.1-1.3-0.3c0.7-2.4,0.9-4.7,1.2-6
				c0.1-0.1,0.3-0.2,0.5-0.2c0.2,0,0.3,0.1,0.5,0.1c0.2,0.6,0.3,0.7,3,0.7h13.2c2.3,0,2.8-0.1,3.2-0.8c0.1-0.1,0.2-0.1,0.5-0.1
				c0.2,0,0.5,0.1,0.5,0.2c-0.3,1.2-0.6,4.1-0.5,6.1c-0.2,0.3-1.1,0.4-1.3,0.1c-0.6-2.3-1.1-3.9-3.8-3.9h-2.1c-0.9,0-1,0.1-1,1v15.6
				c0,3.3,0.2,3.6,1.8,3.8l1.4,0.2c0.2,0.2,0.2,1,0,1.3c-2.3-0.1-4.1-0.1-5.7-0.1c-1.7,0-3.5,0.1-6,0.1c-0.3-0.2-0.3-1,0-1.3l1.6-0.2
				c1.6-0.2,1.8-0.5,1.8-3.8L131.7,185.3L131.7,185.3z"/>
		</g>
		<g>
			<path fill="#231F20" d="M166.5,187.9c0-3.7-0.1-4.3-2.3-4.4l-0.9-0.1c-0.2-0.1-0.1-0.8,0.1-0.9c2,0.1,3.2,0.1,4.6,0.1
				c1.4,0,2.6-0.1,4.4-0.1c0.2,0.1,0.3,0.7,0.1,0.9l-0.9,0.1c-2.1,0.2-2.2,0.7-2.2,4.4v12.3c0,2.2,0.1,3.1,0.7,3.8
				c0.4,0.4,1.1,0.8,3.9,0.8c3,0,3.8-0.1,4.3-0.5c0.7-0.4,1.7-1.7,2.3-3.5c0.2-0.2,0.9-0.1,0.9,0.2c0,0.4-1,4-1.5,5
				c-1.8-0.1-5.2-0.1-8.8-0.1h-3.2c-1.5,0-2.6,0.1-4.6,0.1c-0.2-0.1-0.3-0.7-0.1-0.9l1.1-0.1c2-0.2,2.1-0.7,2.1-4.4L166.5,187.9
				L166.5,187.9z"/>
			<path fill="#231F20" d="M189.6,194.5c0-7.1,5.3-12.5,12.6-12.5c8.2,0,12.3,5.9,12.3,12.1c0,7.2-5.5,12.3-12.3,12.3
				C194.3,206.6,189.6,200.9,189.6,194.5z M210.9,195.3c0-5.9-2.6-12.1-9.3-12.1c-3.7,0-8.5,2.5-8.5,10.2c0,5.2,2.6,12.1,9.5,12.1
				C206.9,205.5,210.9,202.3,210.9,195.3z"/>
			<path fill="#231F20" d="M244.7,202.4c0,1.4,0.2,2.3,0.9,2.5c0.1,0.1,0.1,0.3-0.1,0.4c-0.4,0-1.1,0.1-1.7,0.3
				c-1.9,0.5-4.4,0.9-6.3,0.9c-4.2,0-8.1-1.2-10.8-3.9c-2.1-2.1-3.2-5-3.2-8c0-3,1-6,3.2-8.4c2.4-2.5,5.9-4.2,11.2-4.2
				c2,0,3.9,0.4,4.5,0.5c0.7,0.1,1.8,0.4,2.2,0.3c0,1.2,0.2,3,0.5,5.1c-0.1,0.3-0.7,0.3-1,0.1c-1-3.8-3.6-5-7.3-5
				c-6.9,0-9.9,4.9-9.9,10.2c0,6.8,3.5,12.1,10.6,12.1c2.2,0,3.5-0.5,3.9-1.1c0.2-0.2,0.3-0.9,0.3-2V201c0-3-0.1-3.2-2.3-3.4
				l-1.5-0.2c-0.3-0.1-0.2-0.8,0-0.9c1,0.1,3,0.1,5.1,0.1c1.4,0,2.6-0.1,3.8-0.1c0.2,0.1,0.3,0.7,0.1,0.9l-0.6,0.1
				c-1.5,0.2-1.5,1.2-1.5,3L244.7,202.4L244.7,202.4z"/>
			<path fill="#231F20" d="M259.8,188c0-3.8-0.1-4.4-2.2-4.6l-0.9-0.1c-0.2-0.1-0.1-0.8,0.1-0.9c1.8,0.1,3,0.1,4.4,0.1
				c1.4,0,2.6-0.1,4.4-0.1c0.2,0.1,0.3,0.7,0.1,0.9l-0.8,0.1c-2.1,0.2-2.2,0.8-2.2,4.6v12.6c0,3.8,0.1,4.3,2.2,4.5l0.9,0.1
				c0.2,0.1,0.1,0.8-0.1,0.9c-1.8-0.1-3-0.1-4.4-0.1c-1.5,0-2.7,0.1-4.4,0.1c-0.2-0.1-0.3-0.7-0.1-0.9l0.9-0.1
				c2.1-0.2,2.2-0.7,2.2-4.5V188H259.8z"/>
			<path fill="#231F20" d="M279.2,185.1c2.6-2,5.9-3,9.6-3c1.9,0,4.6,0.4,6.3,0.9c0.4,0.1,0.7,0.2,1,0.1c0.1,0.8,0.2,3.1,0.5,5.2
				c-0.2,0.2-0.7,0.3-1,0.1c-0.5-2.4-2.1-5.2-7.3-5.2c-5.4,0-10,3.4-10,10.8c0,7.5,4.7,11.6,10.5,11.6c4.6,0,6.6-3,7.4-5.1
				c0.2-0.2,0.8-0.1,0.9,0.1c-0.2,1.8-1.2,4.2-1.7,4.8c-0.4,0.1-0.9,0.2-1.3,0.3c-0.8,0.3-3.4,0.8-5.6,0.8c-3.2,0-6.3-0.6-8.8-2.4
				c-2.8-1.9-5-5.2-5-9.7C274.8,190.5,276.5,187.1,279.2,185.1z"/>
		</g>
		<rect x="0.1" y="222.6" fill="#231F20" width="297.6" height="0.6"/>
	</g>
	<g>
		<g>
			<path fill="#588DC0" d="M674.7,227.2c-4.6,0-7.9,2.4-9,6.3c-1.1-3.9-4.4-6.3-9-6.3c-5.6,0-9.4,3.7-9.4,9.2c0,0.3,0,0.6,0,0.9l0,0
				V251v0.1c0,0.2,0,0.5,0,1.2c0,2-2,3.9-4.2,4.3c-0.1,0,0,0,0,0l8.9,0v-12.1l0.4,0.2c1.3,0.6,2.7,0.9,4.3,0.9c4.6,0,7.9-2.4,9-6.3
				c1.1,3.9,4.4,6.3,9,6.3c5.6,0,9.4-3.7,9.4-9.2C684.1,230.9,680.3,227.2,674.7,227.2z M656.7,241.8c-2.7,0-4.7-2.3-4.7-5.4
				c0-3,2-5.3,4.7-5.3c2.7,0,4.7,2.2,4.7,5.3C661.4,239.5,659.4,241.8,656.7,241.8z M674.7,241.8c-2.7,0-4.7-2.3-4.7-5.4
				c0-3,2-5.3,4.7-5.3c2.7,0,4.7,2.2,4.7,5.3C679.4,239.5,677.4,241.8,674.7,241.8z"/>
			<g>
				<path fill="#588DC0" d="M632.6,243c1.3,1.2,3.4,2.6,6.4,2.6c4.9,0,7.2-1.7,7.2-5.2c0-3.8-3.2-5.1-5.8-6.1
					c-1.6-0.6-2.9-1.2-2.9-2.2c0-1.6,1.6-1.6,2.2-1.6c1.4,0,2.8,0.4,4.1,1.2l1.9-2.6c-1.7-1.3-3.5-1.8-6.4-1.8
					c-2.8,0-6.1,1.2-6.1,4.8c0,3.6,2.7,4.7,5.1,5.7c1.7,0.7,3.2,1.3,3.2,2.7c0,0.8-0.4,1.8-2.6,1.8c-1.5,0-3.3-1.1-4.5-2.1L632.6,243
					L632.6,243z"/>
			</g>
			<path fill="#588DC0" d="M690,227.9v-5.9h-4.7v5.9H681c0,0,0,0,0,0c2.2,0.3,4.3,3.2,4.3,4.8c0,1.8,0,0.5,0,0.5V245h4.7v-13h4.1v-4
				H690z"/>
		</g>
		<g>
			<path fill="#00427A" d="M673.7,176.6v38.6c0,0,0,2.4-0.5,3.9c-1,2.8-3.3,4.9-6.3,5.5c-0.1,0,0,0,0,0l14.6,0v-47.9H673.7z"/>
			<path fill="#00427A" d="M657.2,195.3c-7.1,0-12.5,3.6-14.5,9.5c-2.1-5.8-7.4-9.5-14.5-9.5c-7.3,0-12.7,3.8-14.7,9.9
				c-1.9-6.1-7.3-9.9-14.7-9.9c-8.7,0-14.8,5.4-15.4,13.6c3.5-4.3,9-8.5,16.1-7.3c4.1,0.4,7,4,7,8.8c0,5.1-3.3,8.8-7.8,8.8
				c-4.5,0-7.8-3.7-7.8-8.9c0-3.7,1.9-6.8,4.7-8.1c-8.3,1.7-12,12.9-12.3,16.6v17.5c0,0,0-1.7,0,1.3c0,3-3.3,6.4-6.8,7
				c-0.1,0,0,0,0,0l14.6,0v-21l0.7,0.4c2.1,0.9,4.5,1.4,7.1,1.4c7.3,0,12.7-3.8,14.7-9.9c1.9,6.1,7.3,9.9,14.7,9.9
				c7.1,0,12.5-3.6,14.5-9.5c2.1,5.8,7.4,9.5,14.5,9.5c9.3,0,15.5-6.1,15.5-15.1C672.6,201.3,666.4,195.3,657.2,195.3z M628.1,219.2
				c-4.5,0-7.8-3.7-7.8-8.9c0-5,3.3-8.8,7.8-8.8c4.5,0,7.8,3.7,7.8,8.8C635.9,215.5,632.6,219.2,628.1,219.2z M657.2,219.2
				c-4.5,0-7.8-3.7-7.8-8.9c0-5,3.3-8.8,7.8-8.8c4.5,0,7.8,3.7,7.8,8.8C664.9,215.5,661.7,219.2,657.2,219.2z"/>
			<path fill="#00427A" d="M585.5,196.1l-14.6,0v21.1l-0.7-0.3c-2.1-1-4.5-1.5-7.1-1.5c-5.4,0-9.8,2.1-12.5,5.7v-5.7
				c-4.8,0-11.8-0.2-15.2,4.8c-2.5,3.6-2.1,6.7-2.1,6.7v0.9c-1.1-7.5-7-12.4-15.3-12.4c-7.7,0-13.3,4.2-14.9,10.8
				c-0.3-10-11.5-10.8-14.1-10.8c-2.5,0-14.1,0.9-14.1,11.3c0,2.4,0,17.9,0,17.9h7.7v-14.8c0-5.5,1.8-7.4,6.4-7.5
				c4.4,0,6.4,2,6.4,7.5v5.5v0.3c0,0.3,0,0.8,0,1.8c0,3.3-3.3,6.4-6.8,7c-0.1,0,0,0,0,0l14.6,0c0,0,0-5,0-9.8
				c1.7,6.6,7.2,10.8,14.9,10.8c8.3,0,14.1-4.9,15.3-12.4v2.2v0.5c0,0.3,0,0.7,0,1.3c0,3.3-2.6,6.8-6.1,7.4c-0.1,0,0,0,0,0l13.8,0
				v-15.4c0-4.7,2.2-7,8.6-6.6c-1.2,2.2-1.9,4.9-1.9,7.8c0,9,6.2,15.1,15.5,15.1c8.7,0,14.8-5.4,15.5-13.6c-3.5,4.3-9.1,8.6-16.3,7.3
				c-4.1-0.4-6.9-4-6.9-8.8c0-5,3.3-8.8,7.8-8.8c4.5,0,7.8,3.7,7.8,8.8c0,3.9-1.9,6.9-4.7,8.2c8.5-1.7,12.1-13,12.5-16.7v-16.9v-0.2
				c0-0.2,0-0.8,0-1.8C578.6,200.3,581.9,196.8,585.5,196.1C585.6,196.1,585.5,196.1,585.5,196.1z M518,239.4c-4.5,0-7.8-3.7-7.8-8.9
				c0-5,3.3-8.8,7.8-8.8c4.5,0,7.8,3.7,7.8,8.8C525.8,235.7,522.5,239.4,518,239.4z"/>
		</g>
	</g>
	<path fill="#00427A" d="M513.2,45.5c0.1-0.1,1.6-2.1,5.1-3.4c0,0,0.6-0.2,1.5-0.5c-3-1.8-5.9-2.9-5.9-2.9c-3-1.1-4-2.1-4.2-2.7
		c0-0.1-0.1-0.1-0.1-0.2c0,0,0,0,0,0c0,0,0-0.1,0-0.2v0c-0.1-0.4-0.4-1.5-0.4-1.8c0,0,0,0.1-0.1,0.2c0-0.3,0-0.5,0-0.8
		c0,0,0,0-0.1,0.1c1-1.3,1.8-2.8,2.4-4.3c0.9-0.9,1.4-3.2,1.4-3.2c0.6-1.7,0.4-2.6,0.2-3c0.1-0.3,1.6-4.8-0.5-8.3
		c0,0-0.7-3.3-4.7-4.8c-3.6-2.2-9-0.9-9-0.9c-6.6,1.1-8,8.8-8,8.8c-0.4,3.5,0.6,5.7,0.6,5.8c-0.3,0.8,0.3,3,0.3,3
		c0.2,1.3,0.9,1.7,1.1,1.8c0.5,1.7,1.2,3.3,2.2,4.7c0,0,0,0,0,0c0,0,0.1,0.5,0,1.3c0-0.1,0-0.1,0-0.1c0,0.3-0.4,1.4-0.4,1.6
		c0,0,0,0,0,0c-0.3,0.4-0.6,0.8-0.9,1.1c-2.4,1.9-8.3,3.7-8.3,3.7c-2.6,1-3.6,2.5-3.6,2.5c-3.8,5.6-4.2,11.2-4.2,11.2
		c0,2.9,1.3,3.2,1.3,3.2c8.7,3.9,22.6,4.1,22.6,4.1c2.2,0,4.3,0,6.4-0.1c0-0.2,0-0.4,0-0.7C507.5,60.6,508.2,53,513.2,45.5z
		 M601.5,44.2c-3.8-3.4-9.5-5.5-9.5-5.5c-3-1.1-4-2.1-4.2-2.7c0-0.1-0.1-0.1-0.1-0.2c0,0,0,0,0,0c0,0,0-0.1,0-0.2v0
		c-0.1-0.4-0.4-1.5-0.4-1.8c0,0,0,0.1-0.1,0.2c0-0.3,0-0.5,0-0.8c0,0,0,0-0.1,0.1c1-1.3,1.8-2.8,2.4-4.3c0.9-0.9,1.4-3.2,1.4-3.2
		c0.6-1.7,0.4-2.6,0.2-3c0.1-0.3,1.6-4.8-0.5-8.3c0,0-0.7-3.3-4.7-4.8c-3.6-2.2-9-0.9-9-0.9c-6.6,1.1-8,8.8-8,8.8
		c-0.4,3.5,0.6,5.7,0.6,5.8c-0.3,0.8,0.3,3,0.3,3c0.2,1.3,0.9,1.7,1.1,1.8c0.5,1.7,1.2,3.3,2.2,4.7c0,0,0,0,0,0c0,0,0.1,0.5,0,1.3
		c0-0.1,0-0.1,0-0.1c0,0.3-0.4,1.4-0.4,1.6c0,0,0,0,0,0c-0.3,0.4-0.6,0.8-0.9,1.1c-2.4,1.9-8.3,3.7-8.3,3.7c-0.8,0.3-1.4,0.6-1.9,1
		c2.5,1.3,5.7,3.1,8.2,5.4c0.2,0.1,5.3,4,4.8,14.3c2.9,0.2,4.9,0.3,4.9,0.3c14,0.3,24-3.5,24-3.5c1.5-0.9,1.5-1.7,1.5-1.7
		C605.9,47.4,601.5,44.2,601.5,44.2z M569.1,47.6c-2.6-2.3-5.9-4.2-8.4-5.5c-2.3-1.2-4-1.8-4.1-1.8c-4-1.4-5.4-2.8-5.9-3.8l-0.2-0.6
		c-0.1-0.2-0.1-0.4-0.2-0.6l-0.3,1.1l-0.2-2.7c0-0.4,0-0.8,0-1.2l0-0.1c1.3-1.7,2.4-3.6,3.1-5.6l0.1-0.2c1.1-1.1,1.7-4,1.7-4
		c0.8-2.3,0.5-3.3,0.3-3.7l-0.1-0.2l0.1-0.2c0.1-0.3,2-6.2-0.7-10.8l0-0.1c0,0-1-4.2-5.9-6.1c-1.9-1.1-4.2-1.7-7-1.7
		c-2.6,0-4.7,0.5-4.8,0.5c-8.4,1.4-10.3,11.4-10.3,11.5c-0.5,4.5,0.7,7.4,0.8,7.5l0.1,0.2l-0.1,0.2c-0.3,0.7,0.1,2.7,0.4,3.8
		c0.3,1.6,1,2.1,1.2,2.2l0.2,0.1l0,0.2c0.6,2.1,1.6,4.2,2.9,6.1l2.3,3.2l-2.1-2c0,0.2,0,0.5-0.1,0.8l-0.3,2.6l-0.2-0.9
		c0,0.1-0.1,0.2-0.1,0.3l-0.1,0.1c-0.4,0.6-0.9,1.1-1.3,1.6c-2.3,1.8-6.6,3.4-9.2,4.3c-1.2,0.4-2,0.7-2.1,0.7
		c-3.2,1.2-4.6,3.1-4.6,3.1c-4.9,7.3-5.6,14.7-5.6,14.7c0,0.2,0,0.4,0,0.6c0.2,2.7,1.3,3.2,1.4,3.2c11.5,5.1,29.8,5.5,30,5.5
		c18.5,0.4,31.8-4.6,31.9-4.7c1.6-1,1.8-1.9,1.8-1.9c0.1-0.8,0.1-1.5,0.2-2.2C574,51.3,569.1,47.6,569.1,47.6z"/>
	<path fill="#00427A" d="M792.3,76.5c0.1-0.1,1.6-2.1,5.1-3.4c0,0,0.6-0.2,1.5-0.5c-3-1.8-5.9-2.9-5.9-2.9c-3-1.1-4-2.1-4.2-2.7
		c0-0.1-0.1-0.1-0.1-0.2c0,0,0,0,0,0c0,0,0-0.1,0-0.2v0c-0.1-0.4-0.4-1.5-0.4-1.8c0,0,0,0.1-0.1,0.2c0-0.3,0-0.5,0-0.8
		c0,0,0,0-0.1,0.1c1-1.3,1.8-2.8,2.4-4.3c0.9-0.9,1.4-3.2,1.4-3.2c0.6-1.7,0.4-2.6,0.2-3c0.1-0.3,1.6-4.8-0.5-8.3
		c0,0-0.7-3.3-4.7-4.8c-3.6-2.2-9-0.9-9-0.9c-6.6,1.1-8,8.8-8,8.8c-0.4,3.5,0.6,5.7,0.6,5.8c-0.3,0.8,0.3,3,0.3,3
		c0.2,1.3,0.9,1.7,1.1,1.8c0.5,1.7,1.2,3.3,2.2,4.7c0,0,0,0,0,0c0,0,0.1,0.5,0,1.3c0-0.1,0-0.1,0-0.1c0,0.3-0.4,1.4-0.4,1.6
		c0,0,0,0,0,0c-0.3,0.4-0.6,0.8-0.9,1.1c-2.4,1.9-8.3,3.7-8.3,3.7c-2.6,1-3.6,2.5-3.6,2.5c-3.8,5.6-4.2,11.2-4.2,11.2
		c0,2.9,1.3,3.2,1.3,3.2c8.7,3.9,22.6,4.1,22.6,4.1c2.2,0,4.3,0,6.4-0.1c0-0.2,0-0.4,0-0.7C786.6,91.6,787.3,84,792.3,76.5z
		 M880.6,75.2c-3.8-3.4-9.5-5.5-9.5-5.5c-3-1.1-4-2.1-4.2-2.7c0-0.1-0.1-0.1-0.1-0.2c0,0,0,0,0,0c0,0,0-0.1,0-0.2v0
		c-0.1-0.4-0.4-1.5-0.4-1.8c0,0,0,0.1-0.1,0.2c0-0.3,0-0.5,0-0.8c0,0,0,0-0.1,0.1c1-1.3,1.8-2.8,2.4-4.3c0.9-0.9,1.4-3.2,1.4-3.2
		c0.6-1.7,0.4-2.6,0.2-3c0.1-0.3,1.6-4.8-0.5-8.3c0,0-0.7-3.3-4.7-4.8c-3.6-2.2-9-0.9-9-0.9c-6.6,1.1-8,8.8-8,8.8
		c-0.4,3.5,0.6,5.7,0.6,5.8c-0.3,0.8,0.3,3,0.3,3c0.2,1.3,0.9,1.7,1.1,1.8c0.5,1.7,1.2,3.3,2.2,4.7c0,0,0,0,0,0c0,0,0.1,0.5,0,1.3
		c0-0.1,0-0.1,0-0.1c0,0.3-0.4,1.4-0.4,1.6c0,0,0,0,0,0c-0.3,0.4-0.6,0.8-0.9,1.1c-2.4,1.9-8.3,3.7-8.3,3.7c-0.8,0.3-1.4,0.6-1.9,1
		c2.5,1.3,5.7,3.1,8.2,5.4c0.2,0.1,5.3,4,4.8,14.3c2.9,0.2,4.9,0.3,4.9,0.3c14,0.3,24-3.5,24-3.5c1.5-0.9,1.5-1.7,1.5-1.7
		C885,78.4,880.6,75.2,880.6,75.2z M848.1,78.6c-2.6-2.3-5.9-4.2-8.4-5.5c-2.3-1.2-4-1.8-4.1-1.8c-4-1.4-5.4-2.8-5.9-3.8l-0.2-0.6
		c-0.1-0.2-0.1-0.4-0.2-0.6l-0.3,1.1l-0.2-2.7c0-0.4,0-0.8,0-1.2l0-0.1c1.3-1.7,2.4-3.6,3.1-5.6l0.1-0.2c1.1-1.1,1.7-4,1.7-4
		c0.8-2.3,0.5-3.3,0.3-3.7l-0.1-0.2l0.1-0.2c0.1-0.3,2-6.2-0.7-10.8l0-0.1c0,0-1-4.2-5.9-6.1c-1.9-1.1-4.2-1.7-7-1.7
		c-2.6,0-4.7,0.5-4.8,0.5c-8.4,1.4-10.3,11.4-10.3,11.5c-0.5,4.5,0.7,7.4,0.8,7.5l0.1,0.2l-0.1,0.2c-0.3,0.7,0.1,2.7,0.4,3.8
		c0.3,1.6,1,2.1,1.2,2.2l0.2,0.1l0,0.2c0.6,2.1,1.6,4.2,2.9,6.1l2.3,3.2l-2.1-2c0,0.2,0,0.5-0.1,0.8l-0.3,2.6l-0.2-0.9
		c0,0.1-0.1,0.2-0.1,0.3l-0.1,0.1c-0.4,0.6-0.9,1.1-1.3,1.6c-2.3,1.8-6.6,3.4-9.2,4.3c-1.2,0.4-2,0.7-2.1,0.7
		c-3.2,1.2-4.6,3.1-4.6,3.1c-4.9,7.3-5.6,14.7-5.6,14.7c0,0.2,0,0.4,0,0.6c0.2,2.7,1.3,3.2,1.4,3.2c11.5,5.1,29.8,5.5,30,5.5
		c18.5,0.4,31.8-4.6,31.9-4.7c1.6-1,1.8-1.9,1.8-1.9c0.1-0.8,0.1-1.5,0.2-2.2C853.1,82.3,848.2,78.6,848.1,78.6z"/>
	<path fill="#00427A" d="M788.4,330c0.1-0.1,1.6-2.1,5.1-3.4c0,0,0.6-0.2,1.5-0.5c-3-1.8-5.9-2.9-5.9-2.9c-3-1.1-4-2.1-4.2-2.7
		c0-0.1-0.1-0.1-0.1-0.2c0,0,0,0,0,0c0,0,0-0.1,0-0.2v0c-0.1-0.4-0.4-1.5-0.4-1.8c0,0,0,0.1-0.1,0.2c0-0.3,0-0.5,0-0.8
		c0,0,0,0-0.1,0.1c1-1.3,1.8-2.8,2.4-4.3c0.9-0.9,1.4-3.2,1.4-3.2c0.6-1.7,0.4-2.6,0.2-3c0.1-0.3,1.6-4.8-0.5-8.3
		c0,0-0.7-3.3-4.7-4.8c-3.6-2.2-9-0.9-9-0.9c-6.6,1.1-8,8.8-8,8.8c-0.4,3.5,0.6,5.7,0.6,5.8c-0.3,0.8,0.3,3,0.3,3
		c0.2,1.3,0.9,1.7,1.1,1.8c0.5,1.7,1.2,3.3,2.2,4.7c0,0,0,0,0,0c0,0,0.1,0.5,0,1.3c0-0.1,0-0.1,0-0.1c0,0.3-0.4,1.4-0.4,1.6
		c0,0,0,0,0,0c-0.3,0.4-0.6,0.8-0.9,1.1c-2.4,1.9-8.3,3.7-8.3,3.7c-2.6,1-3.6,2.5-3.6,2.5c-3.8,5.6-4.2,11.2-4.2,11.2
		c0,2.9,1.3,3.2,1.3,3.2c8.7,3.9,22.6,4.1,22.6,4.1c2.2,0,4.3,0,6.4-0.1c0-0.2,0-0.4,0-0.7C782.7,345.1,783.4,337.5,788.4,330z
		 M876.7,328.7c-3.8-3.4-9.5-5.5-9.5-5.5c-3-1.1-4-2.1-4.2-2.7c0-0.1-0.1-0.1-0.1-0.2c0,0,0,0,0,0c0,0,0-0.1,0-0.2v0
		c-0.1-0.4-0.4-1.5-0.4-1.8c0,0,0,0.1-0.1,0.2c0-0.3,0-0.5,0-0.8c0,0,0,0-0.1,0.1c1-1.3,1.8-2.8,2.4-4.3c0.9-0.9,1.4-3.2,1.4-3.2
		c0.6-1.7,0.4-2.6,0.2-3c0.1-0.3,1.6-4.8-0.5-8.3c0,0-0.7-3.3-4.7-4.8c-3.6-2.2-9-0.9-9-0.9c-6.6,1.1-8,8.8-8,8.8
		c-0.4,3.5,0.6,5.7,0.6,5.8c-0.3,0.8,0.3,3,0.3,3c0.2,1.3,0.9,1.7,1.1,1.8c0.5,1.7,1.2,3.3,2.2,4.7c0,0,0,0,0,0c0,0,0.1,0.5,0,1.3
		c0-0.1,0-0.1,0-0.1c0,0.3-0.4,1.4-0.4,1.6c0,0,0,0,0,0c-0.3,0.4-0.6,0.8-0.9,1.1c-2.4,1.9-8.3,3.7-8.3,3.7c-0.8,0.3-1.4,0.6-1.9,1
		c2.5,1.3,5.7,3.1,8.2,5.4c0.2,0.1,5.3,4,4.8,14.3c2.9,0.2,4.9,0.3,4.9,0.3c14,0.3,24-3.5,24-3.5c1.5-0.9,1.5-1.7,1.5-1.7
		C881.1,331.9,876.7,328.7,876.7,328.7z M844.3,332.1c-2.6-2.3-5.9-4.2-8.4-5.5c-2.3-1.2-4-1.8-4.1-1.8c-4-1.4-5.4-2.8-5.9-3.8
		l-0.2-0.6c-0.1-0.2-0.1-0.4-0.2-0.6l-0.3,1.1l-0.2-2.7c0-0.4,0-0.8,0-1.2l0-0.1c1.3-1.7,2.4-3.6,3.1-5.6l0.1-0.2
		c1.1-1.1,1.7-4,1.7-4c0.8-2.3,0.5-3.3,0.3-3.7l-0.1-0.2l0.1-0.2c0.1-0.3,2-6.2-0.7-10.8l0-0.1c0,0-1-4.2-5.9-6.1
		c-1.9-1.1-4.2-1.7-7-1.7c-2.6,0-4.7,0.5-4.8,0.5c-8.4,1.4-10.3,11.4-10.3,11.5c-0.5,4.5,0.7,7.4,0.8,7.5l0.1,0.2l-0.1,0.2
		c-0.3,0.7,0.1,2.7,0.4,3.8c0.3,1.6,1,2.1,1.2,2.2l0.2,0.1l0,0.2c0.6,2.1,1.6,4.2,2.9,6.1l2.3,3.2l-2.1-2c0,0.2,0,0.5-0.1,0.8
		l-0.3,2.6l-0.2-0.9c0,0.1-0.1,0.2-0.1,0.3l-0.1,0.1c-0.4,0.6-0.9,1.1-1.3,1.6c-2.3,1.8-6.6,3.4-9.2,4.3c-1.2,0.4-2,0.7-2.1,0.7
		c-3.2,1.2-4.6,3.1-4.6,3.1c-4.9,7.3-5.6,14.7-5.6,14.7c0,0.2,0,0.4,0,0.6c0.2,2.7,1.3,3.2,1.4,3.2c11.5,5.1,29.8,5.5,30,5.5
		c18.5,0.4,31.8-4.6,31.9-4.7c1.6-1,1.8-1.9,1.8-1.9c0.1-0.8,0.1-1.5,0.2-2.2C849.2,335.8,844.3,332.1,844.3,332.1z"/>
	<path fill="#00427A" d="M506.3,423.8c0.1-0.1,1.6-2.1,5.1-3.4c0,0,0.6-0.2,1.5-0.5c-3-1.8-5.9-2.9-5.9-2.9c-3-1.1-4-2.1-4.2-2.7
		c0-0.1-0.1-0.1-0.1-0.2c0,0,0,0,0,0c0,0,0-0.1,0-0.2v0c-0.1-0.4-0.4-1.5-0.4-1.8c0,0,0,0.1-0.1,0.2c0-0.3,0-0.5,0-0.8
		c0,0,0,0-0.1,0.1c1-1.3,1.8-2.8,2.4-4.3c0.9-0.9,1.4-3.2,1.4-3.2c0.6-1.7,0.4-2.6,0.2-3c0.1-0.3,1.6-4.8-0.5-8.3
		c0,0-0.7-3.3-4.7-4.8c-3.6-2.2-9-0.9-9-0.9c-6.6,1.1-8,8.8-8,8.8c-0.4,3.5,0.6,5.7,0.6,5.8c-0.3,0.8,0.3,3,0.3,3
		c0.2,1.3,0.9,1.7,1.1,1.8c0.5,1.7,1.2,3.3,2.2,4.7c0,0,0,0,0,0c0,0,0.1,0.5,0,1.3c0-0.1,0-0.1,0-0.1c0,0.3-0.4,1.4-0.4,1.6
		c0,0,0,0,0,0c-0.3,0.4-0.6,0.8-0.9,1.1c-2.4,1.9-8.3,3.7-8.3,3.7c-2.6,1-3.6,2.5-3.6,2.5c-3.8,5.6-4.2,11.2-4.2,11.2
		c0,2.9,1.3,3.2,1.3,3.2c8.7,3.9,22.6,4.1,22.6,4.1c2.2,0,4.3,0,6.4-0.1c0-0.2,0-0.4,0-0.7C500.6,438.9,501.2,431.3,506.3,423.8z
		 M594.5,422.5c-3.8-3.4-9.5-5.5-9.5-5.5c-3-1.1-4-2.1-4.2-2.7c0-0.1-0.1-0.1-0.1-0.2c0,0,0,0,0,0c0,0,0-0.1,0-0.2v0
		c-0.1-0.4-0.4-1.5-0.4-1.8c0,0,0,0.1-0.1,0.2c0-0.3,0-0.5,0-0.8c0,0,0,0-0.1,0.1c1-1.3,1.8-2.8,2.4-4.3c0.9-0.9,1.4-3.2,1.4-3.2
		c0.6-1.7,0.4-2.6,0.2-3c0.1-0.3,1.6-4.8-0.5-8.3c0,0-0.7-3.3-4.7-4.8c-3.6-2.2-9-0.9-9-0.9c-6.6,1.1-8,8.8-8,8.8
		c-0.4,3.5,0.6,5.7,0.6,5.8c-0.3,0.8,0.3,3,0.3,3c0.2,1.3,0.9,1.7,1.1,1.8c0.5,1.7,1.2,3.3,2.2,4.7c0,0,0,0,0,0c0,0,0.1,0.5,0,1.3
		c0-0.1,0-0.1,0-0.1c0,0.3-0.4,1.4-0.4,1.6c0,0,0,0,0,0c-0.3,0.4-0.6,0.8-0.9,1.1c-2.4,1.9-8.3,3.7-8.3,3.7c-0.8,0.3-1.4,0.6-1.9,1
		c2.5,1.3,5.7,3.1,8.2,5.4c0.2,0.1,5.3,4,4.8,14.3c2.9,0.2,4.9,0.3,4.9,0.3c14,0.3,24-3.5,24-3.5c1.5-0.9,1.5-1.7,1.5-1.7
		C598.9,425.7,594.5,422.5,594.5,422.5z M562.1,425.9c-2.6-2.3-5.9-4.2-8.4-5.5c-2.3-1.2-4-1.8-4.1-1.8c-4-1.4-5.4-2.8-5.9-3.8
		l-0.2-0.6c-0.1-0.2-0.1-0.4-0.2-0.6l-0.3,1.1l-0.2-2.7c0-0.4,0-0.8,0-1.2l0-0.1c1.3-1.7,2.4-3.6,3.1-5.6l0.1-0.2
		c1.1-1.1,1.7-4,1.7-4c0.8-2.3,0.5-3.3,0.3-3.7l-0.1-0.2l0.1-0.2c0.1-0.3,2-6.2-0.7-10.8l0-0.1c0,0-1-4.2-5.9-6.1
		c-1.9-1.1-4.2-1.7-7-1.7c-2.6,0-4.7,0.5-4.8,0.5c-8.4,1.4-10.3,11.4-10.3,11.5c-0.5,4.5,0.7,7.4,0.8,7.5l0.1,0.2l-0.1,0.2
		c-0.3,0.7,0.1,2.7,0.4,3.8c0.3,1.6,1,2.1,1.2,2.2l0.2,0.1l0,0.2c0.6,2.1,1.6,4.2,2.9,6.1l2.3,3.2l-2.1-2c0,0.2,0,0.5-0.1,0.8
		l-0.3,2.6l-0.2-0.9c0,0.1-0.1,0.2-0.1,0.3l-0.1,0.1c-0.4,0.6-0.9,1.1-1.3,1.6c-2.3,1.8-6.6,3.4-9.2,4.3c-1.2,0.4-2,0.7-2.1,0.7
		c-3.2,1.2-4.6,3.1-4.6,3.1c-4.9,7.3-5.6,14.7-5.6,14.7c0,0.2,0,0.4,0,0.6c0.2,2.7,1.3,3.2,1.4,3.2c11.5,5.1,29.8,5.5,30,5.5
		c18.5,0.4,31.8-4.6,31.9-4.7c1.6-1,1.8-1.9,1.8-1.9c0.1-0.8,0.1-1.5,0.2-2.2C567,429.6,562.2,425.9,562.1,425.9z"/>
	<polygon fill="#00427A" points="450.8,216.6 435.7,207.9 435.7,214.6 335.7,214.6 335.7,207.9 320.6,216.6 335.7,225.3 335.7,219.6
		435.7,219.6 435.7,225.3 "/>
	<path fill="#00427A" d="M344.7,157.2l1.5,2.6l-10.7,6.4l-1.5-2.6L344.7,157.2z M355.4,150.7l1.5,2.6l10.7-6.4l-1.5-2.6L355.4,150.7z
		 M323.4,170l-3.8,2.3l-1.9-3.2l-5.1,9.2l10.5-0.2l-1.9-3.2l3.8-2.3L323.4,170z M376.8,137.9l1.5,2.6L389,134l-1.5-2.6L376.8,137.9z
		 M419.5,112.2l1.5,2.6l10.7-6.4l-1.5-2.6L419.5,112.2z M440.8,99.3l1.5,2.6l10.7-6.4l-1.5-2.6L440.8,99.3z M462.1,86.4l1.5,2.6
		l3.8-2.3l-1.5-2.6L462.1,86.4z M474.5,80.7l-10.5,0.2l1.9,3.2l1.3-0.8l1.5,2.6l-1.3,0.8l1.9,3.2L474.5,80.7z M398.1,125l1.5,2.6
		l10.7-6.4l-1.5-2.6L398.1,125z"/>
	<path fill="#00427A" d="M319.9,265.9l-4.5-3.9l2-2.3l4.5,3.9L319.9,265.9z M445.2,374.8l-9-7.8l2-2.3l9,7.8L445.2,374.8z
		 M427.3,359.3l-9-7.8l2-2.3l9,7.8L427.3,359.3z M409.4,343.7l-9-7.8l2-2.3l9,7.8L409.4,343.7z M391.5,328.2l-9-7.8l2-2.3l9,7.8
		L391.5,328.2z M373.6,312.6l-9-7.8l2-2.3l9,7.8L373.6,312.6z M355.7,297.1l-9-7.8l2-2.3l9,7.8L355.7,297.1z M337.8,281.5l-9-7.8
		l2-2.3l9,7.8L337.8,281.5z M458.7,386.5l-4.5-3.9l2-2.3l4.5,3.9L458.7,386.5z M314.1,265.8l-3.4-9.9l10.3,2L314.1,265.8z
		 M455.1,388.3l10.3,2l-3.4-9.9L455.1,388.3z"/>
	<polygon fill="#00427A" points="563.9,159.7 554,98.5 560.2,97.5 549.2,84 543,100.3 549.1,99.3 558.9,160.5 552.8,161.5 563.8,175
		570,158.7 "/>
	<polygon fill="#00427A" points="557.4,286.4 563.5,287.5 557.6,271.1 546.4,284.5 552.5,285.6 541.6,346.6 535.4,345.5 541.3,361.9
		552.6,348.6 546.5,347.5 "/>
	<polygon fill="#00427A" points="762.9,124.3 767.7,107.5 750.7,111.7 755.1,116.2 710.7,159.3 706.3,154.8 701.5,171.6 718.5,167.3
		714.1,162.9 758.6,119.8 "/>
	<polygon fill="#00427A" points="755.4,294 746.9,278.8 743.7,284.1 709.3,263.5 712.5,258.1 695.1,257.9 703.6,273.1 706.8,267.8
		741.2,288.4 738,293.7 "/>
</svg>
