<svg width="900" height="1200"><g transform="translate(0,0)"><path class="line" d="M0,8.47413793103448L113.11714285714287,8.47413793103448L113.14285714285715,8.47413793103448L128.57142857142856,8.47413793103448L128.59714285714284,9.681034482758621L133.2,9.681034482758621L133.22571428571428,9.681034482758621L136.54285714285714,9.681034482758621L136.56857142857143,17.905172413793103L136.79999999999998,17.905172413793103L136.8257142857143,29.31896551724138L137.05714285714285,29.31896551724138L137.08285714285714,29.31896551724138L137.82857142857142,29.31896551724138L137.8542857142857,30.310344827586206L138.6,30.310344827586206L138.62571428571428,30.310344827586206L142.2,30.310344827586206L142.2257142857143,48.71551724137932L900,48.71551724137932"></path><line class="origin" x1="0" x2="900" y1="15.948275862068966" y2="15.948275862068966"></line><line class="origin" x1="128.57142857142856" x2="128.57142857142856" y1="0" y2="50"></line></g><g transform="translate(0,50)"><path class="line" d="M0,8.431034482758621L113.11714285714287,8.431034482758621L113.14285714285715,8.482758620689651L128.57142857142856,8.482758620689651L128.59714285714284,9.935344827586206L133.2,9.935344827586206L133.22571428571428,9.935344827586206L136.54285714285714,9.935344827586206L136.56857142857143,18.150862068965516L136.79999999999998,18.150862068965516L136.8257142857143,29.323275862068964L137.05714285714285,29.323275862068964L137.08285714285714,29.323275862068964L137.82857142857142,29.323275862068964L137.8542857142857,30.314655172413797L138.6,30.314655172413797L138.62571428571428,30.314655172413797L142.2,30.314655172413797L142.2257142857143,48.71982758620689L900,48.71982758620689"></path><line class="origin" x1="0" x2="900" y1="15.948275862068966" y2="15.948275862068966"></line><line class="origin" x1="128.57142857142856" x2="128.57142857142856" y1="0" y2="50"></line></g><g transform="translate(0,100)"><path class="line" d="M0,9.538793103448274L113.11714285714287,9.538793103448274L113.14285714285715,14.012931034482762L128.57142857142856,14.012931034482762L128.59714285714284,14.991379310344827L133.2,14.991379310344827L133.22571428571428,14.991379310344827L136.54285714285714,14.991379310344827L136.56857142857143,23.198275862068968L136.79999999999998,23.198275862068968L136.8257142857143,28.05603448275862L137.05714285714285,28.05603448275862L137.08285714285714,28.05603448275862L137.82857142857142,28.05603448275862L137.8542857142857,29.04741379310345L138.6,29.04741379310345L138.62571428571428,29.04741379310345L142.2,29.04741379310345L142.2257142857143,47.452586206896555L900,47.452586206896555"></path><line class="origin" x1="0" x2="900" y1="15.948275862068966" y2="15.948275862068966"></line><line class="origin" x1="128.57142857142856" x2="128.57142857142856" y1="0" y2="50"></line></g><g transform="translate(0,150)"><path class="line" d="M0,9.625L113.11714285714287,9.625L113.14285714285715,14.504310344827587L128.57142857142856,14.504310344827587L128.59714285714284,15.413793103448276L133.2,15.413793103448276L133.22571428571428,15.413793103448276L136.54285714285714,15.413793103448276L136.56857142857143,23.625L136.79999999999998,23.625L136.8257142857143,27.94827586206896L137.05714285714285,27.94827586206896L137.08285714285714,27.94827586206896L137.82857142857142,27.94827586206896L137.8542857142857,28.939655172413794L138.6,28.939655172413794L138.62571428571428,28.939655172413794L142.2,28.939655172413794L142.2257142857143,47.3448275862069L900,47.3448275862069"></path><line class="origin" x1="0" x2="900" y1="15.948275862068966" y2="15.948275862068966"></line><line class="origin" x1="128.57142857142856" x2="128.57142857142856" y1="0" y2="50"></line></g><g transform="translate(0,200)"><path class="line" d="M0,8.40948275862069L113.11714285714287,8.40948275862069L113.14285714285715,10.58189655172414L128.57142857142856,10.58189655172414L128.59714285714284,11.620689655172416L133.2,11.620689655172416L133.22571428571428,11.620689655172416L136.54285714285714,11.620689655172416L136.56857142857143,19.853448275862068L136.79999999999998,19.853448275862068L136.8257142857143,27.745689655172413L137.05714285714285,27.745689655172413L137.08285714285714,27.745689655172413L137.82857142857142,27.745689655172413L137.8542857142857,28.737068965517242L138.6,28.737068965517242L138.62571428571428,28.737068965517242L142.2,28.737068965517242L142.2257142857143,47.14224137931035L900,47.14224137931035"></path><line class="origin" x1="0" x2="900" y1="15.948275862068966" y2="15.948275862068966"></line><line class="origin" x1="128.57142857142856" x2="128.57142857142856" y1="0" y2="50"></line></g><g transform="translate(0,250)"><path class="line" d="M0,8.431034482758621L113.11714285714287,8.431034482758621L113.14285714285715,10.004310344827589L128.57142857142856,10.004310344827589L128.59714285714284,10.61206896551724L133.2,10.61206896551724L133.22571428571428,10.61206896551724L136.54285714285714,10.61206896551724L136.56857142857143,18.844827586206897L136.79999999999998,18.844827586206897L136.8257142857143,27.560344827586203L137.05714285714285,27.560344827586203L137.08285714285714,27.560344827586203L137.82857142857142,27.560344827586203L137.8542857142857,28.551724137931032L138.6,28.551724137931032L138.62571428571428,28.551724137931032L142.2,28.551724137931032L142.2257142857143,46.956896551724135L900,46.956896551724135"></path><line class="origin" x1="0" x2="900" y1="15.948275862068966" y2="15.948275862068966"></line><line class="origin" x1="128.57142857142856" x2="128.57142857142856" y1="0" y2="50"></line></g><g transform="translate(0,300)"><path class="line" d="M0,6.896551724137934L113.11714285714287,6.896551724137934L113.14285714285715,6.896551724137934L128.57142857142856,6.896551724137934L128.59714285714284,7.250000000000001L133.2,7.250000000000001L133.22571428571428,7.250000000000001L136.54285714285714,7.250000000000001L136.56857142857143,16.948275862068968L136.79999999999998,16.948275862068968L136.8257142857143,27.206896551724142L137.05714285714285,27.206896551724142L137.08285714285714,27.206896551724142L137.82857142857142,27.206896551724142L137.8542857142857,27.206896551724142L138.6,27.206896551724142L138.62571428571428,28.500000000000004L142.2,28.500000000000004L142.2257142857143,46.9051724137931L900,46.9051724137931"></path><line class="origin" x1="0" x2="900" y1="15.948275862068966" y2="15.948275862068966"></line><line class="origin" x1="128.57142857142856" x2="128.57142857142856" y1="0" y2="50"></line></g><g transform="translate(0,350)"><path class="line" d="M0,0.6896551724137945L113.11714285714287,0.6896551724137945L113.14285714285715,2.844827586206894L128.57142857142856,2.844827586206894L128.59714285714284,3.094827586206894L133.2,3.094827586206894L133.22571428571428,3.094827586206894L136.54285714285714,3.094827586206894L136.56857142857143,12.793103448275861L136.79999999999998,12.793103448275861L136.8257142857143,23.08189655172414L137.05714285714285,23.08189655172414L137.08285714285714,23.08189655172414L137.82857142857142,23.08189655172414L137.8542857142857,23.08189655172414L138.6,23.08189655172414L138.62571428571428,24.375000000000004L142.2,24.375000000000004L142.2257142857143,39.89224137931034L900,39.89224137931034"></path><line class="origin" x1="0" x2="900" y1="15.948275862068966" y2="15.948275862068966"></line><line class="origin" x1="128.57142857142856" x2="128.57142857142856" y1="0" y2="50"></line></g><g transform="translate(0,400)"><path class="line" d="M0,1.0043103448275859L113.11714285714287,1.0043103448275859L113.14285714285715,3.159482758620685L128.57142857142856,3.159482758620685L128.59714285714284,3.2672413793103425L133.2,3.2672413793103425L133.22571428571428,3.2672413793103425L136.54285714285714,3.2672413793103425L136.56857142857143,12.96551724137931L136.79999999999998,12.96551724137931L136.8257142857143,23.254310344827587L137.05714285714285,23.254310344827587L137.08285714285714,23.254310344827587L137.82857142857142,23.254310344827587L137.8542857142857,23.254310344827587L138.6,23.254310344827587L138.62571428571428,24.547413793103452L142.2,24.547413793103452L142.2257142857143,40.064655172413794L900,40.064655172413794"></path><line class="origin" x1="0" x2="900" y1="15.948275862068966" y2="15.948275862068966"></line><line class="origin" x1="128.57142857142856" x2="128.57142857142856" y1="0" y2="50"></line></g><g transform="translate(0,450)"><path class="line" d="M0,0.5948275862068919L113.11714285714287,0.5948275862068919L113.14285714285715,2.749999999999997L128.57142857142856,2.749999999999997L128.59714285714284,2.931034482758621L133.2,2.931034482758621L133.22571428571428,3.254310344827588L136.54285714285714,3.254310344827588L136.56857142857143,12.95258620689655L136.79999999999998,12.95258620689655L136.8257142857143,23.24137931034483L137.05714285714285,23.24137931034483L137.08285714285714,23.24137931034483L137.82857142857142,23.24137931034483L137.8542857142857,23.24137931034483L138.6,23.24137931034483L138.62571428571428,24.53448275862069L142.2,24.53448275862069L142.2257142857143,40.05172413793104L900,40.05172413793104"></path><line class="origin" x1="0" x2="900" y1="15.948275862068966" y2="15.948275862068966"></line><line class="origin" x1="128.57142857142856" x2="128.57142857142856" y1="0" y2="50"></line></g><g transform="translate(0,500)"><path class="line" d="M0,0.7112068965517249L113.11714285714287,0.7112068965517249L113.14285714285715,2.86637931034483L128.57142857142856,2.86637931034483L128.59714285714284,3.150862068965515L133.2,3.150862068965515L133.22571428571428,4.6465517241379315L136.54285714285714,4.6465517241379315L136.56857142857143,14.344827586206893L136.79999999999998,14.344827586206893L136.8257142857143,24.63362068965517L137.05714285714285,24.63362068965517L137.08285714285714,24.63362068965517L137.82857142857142,24.63362068965517L137.8542857142857,24.63362068965517L138.6,24.63362068965517L138.62571428571428,25.926724137931036L142.2,25.926724137931036L142.2257142857143,41.443965517241374L900,41.443965517241374"></path><line class="origin" x1="0" x2="900" y1="15.948275862068966" y2="15.948275862068966"></line><line class="origin" x1="128.57142857142856" x2="128.57142857142856" y1="0" y2="50"></line></g><g transform="translate(0,550)"><path class="line" d="M0,2.1982758620689657L113.11714285714287,2.1982758620689657L113.14285714285715,4.353448275862071L128.57142857142856,4.353448275862071L128.59714285714284,4.551724137931029L133.2,4.551724137931029L133.22571428571428,6.064655172413796L136.54285714285714,6.064655172413796L136.56857142857143,15.762931034482763L136.79999999999998,15.762931034482763L136.8257142857143,26.051724137931032L137.05714285714285,26.051724137931032L137.08285714285714,26.051724137931032L137.82857142857142,26.051724137931032L137.8542857142857,26.051724137931032L138.6,26.051724137931032L138.62571428571428,27.3448275862069L142.2,27.3448275862069L142.2257142857143,42.86206896551724L900,42.86206896551724"></path><line class="origin" x1="0" x2="900" y1="15.948275862068966" y2="15.948275862068966"></line><line class="origin" x1="128.57142857142856" x2="128.57142857142856" y1="0" y2="50"></line></g><g transform="translate(0,600)"><path class="line" d="M0,3.4439655172413817L113.11714285714287,3.4439655172413817L113.14285714285715,5.599137931034487L128.57142857142856,5.599137931034487L128.59714285714284,5.76293103448276L133.2,5.76293103448276L133.22571428571428,7.107758620689653L136.54285714285714,7.107758620689653L136.56857142857143,15.34051724137931L136.79999999999998,15.34051724137931L136.8257142857143,27.0948275862069L137.05714285714285,27.0948275862069L137.08285714285714,27.0948275862069L137.82857142857142,27.0948275862069L137.8542857142857,28.086206896551722L138.6,28.086206896551722L138.62571428571428,28.086206896551722L142.2,28.086206896551722L142.2257142857143,43.603448275862064L900,43.603448275862064"></path><line class="origin" x1="0" x2="900" y1="15.948275862068966" y2="15.948275862068966"></line><line class="origin" x1="128.57142857142856" x2="128.57142857142856" y1="0" y2="50"></line></g><g transform="translate(0,650)"><path class="line" d="M0,4.6465517241379315L113.11714285714287,4.6465517241379315L113.14285714285715,6.801724137931031L128.57142857142856,6.801724137931031L128.59714285714284,6.961206896551725L133.2,6.961206896551725L133.22571428571428,8.219827586206897L136.54285714285714,8.219827586206897L136.56857142857143,16.45258620689655L136.79999999999998,16.45258620689655L136.8257142857143,28.206896551724135L137.05714285714285,28.206896551724135L137.08285714285714,28.206896551724135L137.82857142857142,28.206896551724135L137.8542857142857,29.198275862068968L138.6,29.198275862068968L138.62571428571428,29.198275862068968L142.2,29.198275862068968L142.2257142857143,44.71551724137931L900,44.71551724137931"></path><line class="origin" x1="0" x2="900" y1="15.948275862068966" y2="15.948275862068966"></line><line class="origin" x1="128.57142857142856" x2="128.57142857142856" y1="0" y2="50"></line></g><g transform="translate(0,700)"><path class="line" d="M0,5.28879310344828L113.11714285714287,5.28879310344828L113.14285714285715,7.44396551724138L128.57142857142856,7.44396551724138L128.59714285714284,7.4655172413793105L133.2,7.4655172413793105L133.22571428571428,8.715517241379311L136.54285714285714,8.715517241379311L136.56857142857143,16.948275862068968L136.79999999999998,16.948275862068968L136.8257142857143,28.70258620689655L137.05714285714285,28.70258620689655L137.08285714285714,28.70258620689655L137.82857142857142,28.70258620689655L137.8542857142857,29.693965517241377L138.6,29.693965517241377L138.62571428571428,29.693965517241377L142.2,29.693965517241377L142.2257142857143,45.21120689655172L900,45.21120689655172"></path><line class="origin" x1="0" x2="900" y1="15.948275862068966" y2="15.948275862068966"></line><line class="origin" x1="128.57142857142856" x2="128.57142857142856" y1="0" y2="50"></line></g><g transform="translate(0,750)"><path class="line" d="M0,8.63793103448276L113.11714285714287,8.63793103448276L113.14285714285715,10.79310344827586L128.57142857142856,10.79310344827586L128.59714285714284,10.823275862068964L133.2,10.823275862068964L133.22571428571428,12.073275862068966L136.54285714285714,12.073275862068966L136.56857142857143,21.771551724137932L136.79999999999998,21.771551724137932L136.8257142857143,31.74137931034483L137.05714285714285,31.74137931034483L137.08285714285714,31.74137931034483L137.82857142857142,31.74137931034483L137.8542857142857,31.74137931034483L138.6,31.74137931034483L138.62571428571428,33.03448275862068L142.2,33.03448275862068L142.2257142857143,48.55172413793103L900,48.55172413793103"></path><line class="origin" x1="0" x2="900" y1="15.948275862068966" y2="15.948275862068966"></line><line class="origin" x1="128.57142857142856" x2="128.57142857142856" y1="0" y2="50"></line></g><g transform="translate(0,800)"><path class="line" d="M0,7.18534482758621L113.11714285714287,7.18534482758621L113.14285714285715,9.340517241379315L128.57142857142856,9.340517241379315L128.59714285714284,9.383620689655176L133.2,9.383620689655176L133.22571428571428,10.633620689655176L136.54285714285714,10.633620689655176L136.56857142857143,20.33189655172414L136.79999999999998,20.33189655172414L136.8257142857143,30.620689655172413L137.05714285714285,30.620689655172413L137.08285714285714,30.620689655172413L137.82857142857142,30.620689655172413L137.8542857142857,30.620689655172413L138.6,30.620689655172413L138.62571428571428,31.913793103448274L142.2,31.913793103448274L142.2257142857143,47.43103448275862L900,47.43103448275862"></path><line class="origin" x1="0" x2="900" y1="15.948275862068966" y2="15.948275862068966"></line><line class="origin" x1="128.57142857142856" x2="128.57142857142856" y1="0" y2="50"></line></g><g transform="translate(0,850)"><path class="line" d="M0,7.060344827586206L113.11714285714287,7.060344827586206L113.14285714285715,9.215517241379306L128.57142857142856,9.215517241379306L128.59714285714284,9.254310344827587L133.2,9.254310344827587L133.22571428571428,10.504310344827589L136.54285714285714,10.504310344827589L136.56857142857143,20.202586206896555L136.79999999999998,20.202586206896555L136.8257142857143,30.491379310344826L137.05714285714285,30.491379310344826L137.08285714285714,30.491379310344826L137.82857142857142,30.491379310344826L137.8542857142857,30.491379310344826L138.6,30.491379310344826L138.62571428571428,31.78448275862069L142.2,31.78448275862069L142.2257142857143,47.30172413793103L900,47.30172413793103"></path><line class="origin" x1="0" x2="900" y1="15.948275862068966" y2="15.948275862068966"></line><line class="origin" x1="128.57142857142856" x2="128.57142857142856" y1="0" y2="50"></line></g><g transform="translate(0,900)"><path class="line" d="M0,4.07758620689655L113.11714285714287,4.07758620689655L113.14285714285715,6.232758620689655L128.57142857142856,6.232758620689655L128.59714285714284,6.3017241379310365L133.2,6.3017241379310365L133.22571428571428,7.603448275862068L136.54285714285714,7.603448275862068L136.56857142857143,15.836206896551724L136.79999999999998,15.836206896551724L136.8257142857143,27.59051724137931L137.05714285714285,27.59051724137931L137.08285714285714,27.59051724137931L137.82857142857142,27.59051724137931L137.8542857142857,28.58189655172414L138.6,28.58189655172414L138.62571428571428,28.58189655172414L142.2,28.58189655172414L142.2257142857143,44.099137931034484L900,44.099137931034484"></path><line class="origin" x1="0" x2="900" y1="15.948275862068966" y2="15.948275862068966"></line><line class="origin" x1="128.57142857142856" x2="128.57142857142856" y1="0" y2="50"></line></g><g transform="translate(0,950)"><path class="line" d="M0,0.3706896551724126L113.11714285714287,0.3706896551724126L113.14285714285715,2.525862068965512L128.57142857142856,2.525862068965512L128.59714285714284,2.6120689655172393L133.2,2.6120689655172393L133.22571428571428,4.125000000000001L136.54285714285714,4.125000000000001L136.56857142857143,13.823275862068968L136.79999999999998,13.823275862068968L136.8257142857143,24.112068965517242L137.05714285714285,24.112068965517242L137.08285714285714,24.112068965517242L137.82857142857142,24.112068965517242L137.8542857142857,24.112068965517242L138.6,24.112068965517242L138.62571428571428,25.405172413793103L142.2,25.405172413793103L142.2257142857143,40.922413793103445L900,40.922413793103445"></path><line class="origin" x1="0" x2="900" y1="15.948275862068966" y2="15.948275862068966"></line><line class="origin" x1="128.57142857142856" x2="128.57142857142856" y1="0" y2="50"></line></g><g transform="translate(0,1000)"><path class="line" d="M0,0.25862068965517016L113.11714285714287,0.25862068965517016L113.14285714285715,2.413793103448275L128.57142857142856,2.413793103448275L128.59714285714284,2.543103448275863L133.2,2.543103448275863L133.22571428571428,3.7284482758620676L136.54285714285714,3.7284482758620676L136.56857142857143,13.426724137931034L136.79999999999998,13.426724137931034L136.8257142857143,23.715517241379313L137.05714285714285,23.715517241379313L137.08285714285714,23.715517241379313L137.82857142857142,23.715517241379313L137.8542857142857,23.715517241379313L138.6,23.715517241379313L138.62571428571428,25.008620689655174L142.2,25.008620689655174L142.2257142857143,40.525862068965516L900,40.525862068965516"></path><line class="origin" x1="0" x2="900" y1="15.948275862068966" y2="15.948275862068966"></line><line class="origin" x1="128.57142857142856" x2="128.57142857142856" y1="0" y2="50"></line></g><g transform="translate(0,1050)"><path class="line" d="M0,1.7155172413793107L113.11714285714287,1.7155172413793107L113.14285714285715,3.87068965517241L128.57142857142856,3.87068965517241L128.59714285714284,4.030172413793104L133.2,4.030172413793104L133.22571428571428,4.038793103448279L136.54285714285714,4.038793103448279L136.56857142857143,13.73706896551724L136.79999999999998,13.73706896551724L136.8257142857143,24.025862068965516L137.05714285714285,24.025862068965516L137.08285714285714,24.025862068965516L137.82857142857142,24.025862068965516L137.8542857142857,24.025862068965516L138.6,24.025862068965516L138.62571428571428,25.318965517241377L142.2,25.318965517241377L142.2257142857143,40.83620689655172L900,40.83620689655172"></path><line class="origin" x1="0" x2="900" y1="15.948275862068966" y2="15.948275862068966"></line><line class="origin" x1="128.57142857142856" x2="128.57142857142856" y1="0" y2="50"></line></g><g transform="translate(0,1100)"><path class="line" d="M0,5.745689655172415L113.11714285714287,5.745689655172415L113.14285714285715,5.745689655172415L128.57142857142856,5.745689655172415L128.59714285714284,5.900862068965518L133.2,5.900862068965518L133.22571428571428,5.900862068965518L136.54285714285714,5.900862068965518L136.56857142857143,14.133620689655174L136.79999999999998,14.133620689655174L136.8257142857143,25.887931034482758L137.05714285714285,25.887931034482758L137.08285714285714,25.887931034482758L137.82857142857142,25.887931034482758L137.8542857142857,26.87931034482759L138.6,26.87931034482759L138.62571428571428,26.87931034482759L142.2,26.87931034482759L142.2257142857143,45.28448275862069L900,45.28448275862069"></path><line class="origin" x1="0" x2="900" y1="15.948275862068966" y2="15.948275862068966"></line><line class="origin" x1="128.57142857142856" x2="128.57142857142856" y1="0" y2="50"></line></g><g transform="translate(0,1150)"><path class="line" d="M0,9.431034482758621L113.11714285714287,9.431034482758621L113.14285714285715,9.431034482758621L128.57142857142856,9.431034482758621L128.59714285714284,9.534482758620694L133.2,9.534482758620694L133.22571428571428,9.534482758620694L136.54285714285714,9.534482758620694L136.56857142857143,19.232758620689655L136.79999999999998,19.232758620689655L136.8257142857143,19.232758620689655L137.05714285714285,19.232758620689655L137.08285714285714,29.422413793103452L137.82857142857142,29.422413793103452L137.8542857142857,29.422413793103452L138.6,29.422413793103452L138.62571428571428,30.71551724137931L142.2,30.71551724137931L142.2257142857143,49.12068965517242L900,49.12068965517242"></path><line class="origin" x1="0" x2="900" y1="15.948275862068966" y2="15.948275862068966"></line><line class="origin" x1="128.57142857142856" x2="128.57142857142856" y1="0" y2="50"></line></g></svg>
