<?xml version="1.0" encoding="utf-8"?>
<!DOCTYPE svg PUBLIC "-//W3C//DTD SVG 1.1//EN" "http://www.w3.org/Graphics/SVG/1.1/DTD/svg11.dtd">
<svg version="1.1" xmlns="http://www.w3.org/2000/svg" viewBox="0 0 543.6 470.4">
	<path fill="#00427A" d="M543.6,233.2c0-35.4-34.6-66.5-90.1-87.5c1-3.5,2-7,2.8-10.4c5.5-23.2,7-43.7,5.2-61.2
		c2.8-2.3,5.3-4.8,7.4-7.8c13.5-18.7,9.3-44.9-9.3-58.4c-7.2-5.2-15.7-8-24.5-8c-10.6,0-20.7,4.1-28.3,11.1c-2.7-0.3-5.3-0.7-8.1-0.7
		c-33,0-74.5,20.2-116.4,54.7c-42-34.5-83.4-54.7-116.4-54.7c-14.3,0-26.7,3.7-36.9,11.1c-26.3,19-33.6,59.4-20.8,113.7
		c0.8,3.4,1.9,7,2.9,10.5c-30.2,11.4-54.2,25.9-69.7,42.4C18.5,188.5,0,207.1,0,230c0,20.8,15.3,38,35.2,41.2
		c15,19.5,41.3,36.5,75.8,49.5c-1,3.5-2,7-2.8,10.5c-12.8,54.3-5.5,94.7,20.8,113.7c10.2,7.4,22.6,11.1,36.9,11.1c0,0,0,0,0,0
		c33,0,74.4-20.2,116.4-54.7c42,34.5,83.4,54.7,116.4,54.7c1.6,0,3-0.2,4.6-0.3c7.9,9.3,19.5,14.8,31.8,14.8c8.8,0,17.3-2.7,24.5-8
		c9-6.5,15-16.2,16.8-27.3c1.8-11-0.9-22.1-7.4-31.1c-2.2-3.1-4.9-5.8-7.8-8.1c2.5-18.3,1.1-40-4.8-64.9c-0.8-3.4-1.9-6.9-2.8-10.4
		C509,299.7,543.6,268.6,543.6,233.2z M435.1,20.9c4.4,0,8.6,1.4,12.2,4c9.3,6.8,11.4,19.9,4.7,29.2c-3.9,5.4-10.3,8.6-17,8.6
		c-4.4,0-8.7-1.4-12.2-4c-9.3-6.8-11.4-19.9-4.7-29.2C422.1,24.1,428.4,20.9,435.1,20.9z M394.5,31.7c-1.4,5.4-1.7,11.1-0.8,16.8
		c1.8,11,7.7,20.7,16.8,27.3c7.2,5.2,15.7,8,24.5,8c0,0,0,0,0,0c2.2,0,4.3-0.2,6.4-0.6c0.5,13.7-1.2,29.6-5.4,47.4
		c-0.7,2.8-1.5,5.6-2.3,8.5c-27.8-8.6-59.6-14.8-94.2-18.1C326,105.6,312.2,91.6,298.3,79C333.5,50.6,367.6,33.3,394.5,31.7z
		 M358.4,288.4c-9.4,13-19.2,25.3-29.3,37c-15,1.2-30.6,1.9-46.9,1.9c-16.3,0-31.9-0.7-46.9-1.9c-10-11.7-19.8-24-29.3-37
		c-13.2-18.2-25-36.7-35.4-55.2c10.4-18.5,22.2-37,35.4-55.2c9.4-13,19.2-25.3,29.3-37c15-1.2,30.6-1.9,46.9-1.9
		c16.3,0,31.9,0.7,46.9,1.9c10,11.7,19.8,24,29.2,37c13.2,18.2,25,36.7,35.4,55.2C383.4,251.7,371.6,270.2,358.4,288.4z M405.4,254.9
		c9,17.9,16.4,35.6,22.2,52.6c-20.3,6.2-43.3,11.4-68.8,14.8c5.6-7,11.1-14.2,16.5-21.7C386.3,285.6,396.3,270.3,405.4,254.9z
		 M282.2,373.7c-9-8.1-18.1-16.8-27-26.2c8.9,0.4,17.9,0.6,27,0.6c9.1,0,18.1-0.2,27-0.6C300.3,357,291.3,365.7,282.2,373.7z
		 M205.6,322.3c-25.5-3.4-48.5-8.5-68.8-14.7c5.8-17.1,13.2-34.8,22.2-52.7c9.1,15.4,19.1,30.7,30,45.7
		C194.5,308.1,200,315.3,205.6,322.3z M159.1,211.5c-9-17.9-16.4-35.6-22.2-52.7c20.3-6.3,43.3-11.3,68.8-14.8
		c-5.6,7-11.1,14.2-16.5,21.7C178.2,180.8,168.2,196.1,159.1,211.5z M282.2,92.7c9,8.1,18,16.8,27,26.1c-8.9-0.4-17.9-0.6-27-0.6
		c-9.2,0-18.1,0.3-27,0.6C264.2,109.5,273.2,100.8,282.2,92.7z M375.4,165.7c-5.4-7.5-10.9-14.6-16.5-21.7
		c25.5,3.4,48.5,8.5,68.8,14.8c-5.8,17.1-13.2,34.7-22.2,52.6C396.3,196.1,386.3,180.8,375.4,165.7z M128.5,130.5
		c-10.6-44.9-6-78.5,12.7-92c6.5-4.7,14.8-7.1,24.6-7.1c27.5,0,63.4,17.8,100.4,47.7c-13.9,12.6-27.7,26.6-41.2,41.9
		c-34.6,3.3-66.4,9.5-94.2,18.1C130,136.2,129.1,133.3,128.5,130.5z M41.8,209.1c11.5,0,20.9,9.4,20.9,20.9s-9.4,20.9-20.9,20.9
		c-11.5,0-20.9-9.4-20.9-20.9S30.3,209.1,41.8,209.1z M59.8,267.5c14-6.8,23.8-21,23.8-37.6c0-14.7-7.7-27.6-19.2-35.1
		c12.7-10.7,30.5-20.7,52.7-29.3c7.5,21.9,17.4,44.6,29.7,67.5c-12.3,23-22.3,45.7-29.7,67.6C92.1,291.3,72.7,279.8,59.8,267.5z
		 M165.8,435c-9.8,0-18.1-2.4-24.6-7.1c-18.7-13.5-23.3-47.1-12.7-92c0.7-2.8,1.5-5.7,2.3-8.5c27.7,8.5,59.6,14.7,94.2,18
		c13.5,15.3,27.3,29.4,41.2,41.9C229.2,417.3,193.3,435,165.8,435z M455.7,431.9c-0.9,5.5-3.9,10.3-8.4,13.6
		c-9,6.5-22.7,4.3-29.2-4.7c-6.8-9.3-4.7-22.4,4.7-29.2c3.6-2.6,7.8-4,12.2-4c6.7,0,13,3.2,17,8.6
		C455.3,420.9,456.6,426.4,455.7,431.9z M436,335.9c4.6,19.6,6.1,36.8,5,51.4c-2-0.3-4-0.5-6-0.5c-8.8,0-17.3,2.7-24.5,8
		c-13,9.4-18.8,25-16.6,39.9c-26.8-1.9-60.7-19.1-95.6-47.3c13.9-12.6,27.7-26.6,41.1-41.9c34.6-3.3,66.5-9.5,94.3-18.1
		C434.5,330.3,435.4,333.1,436,335.9z M447.4,300.8c-7.5-21.9-17.4-44.6-29.7-67.6c12.3-22.9,22.3-45.7,29.7-67.5
		c47.5,18.2,75.3,43.3,75.3,67.6C522.7,257.5,494.9,282.6,447.4,300.8z"/>
	<path d="M247.7,195.2l-14.1,26c-7.5-5.1-12.9-11.9-15.4-20.3c-5-16.9,3.3-35.3,19.7-48c-3.3,8.2-4,16.8-1.6,25.1
		C238.4,184.8,242.3,190.6,247.7,195.2z"/>
	<path d="M314.8,195.2l14.1,26c7.5-5.1,12.9-11.9,15.4-20.3c5-16.9-3.3-35.3-19.7-48c3.3,8.2,4,16.8,1.6,25.1
		C324.1,184.8,320.3,190.6,314.8,195.2z"/>
	<path fill="#00427A" d="M281.8,290.2c-30.3,0-55-24.7-55-55c0-30.3,24.7-55,55-55s55,24.7,55,55
		C336.8,265.5,312.1,290.2,281.8,290.2z M281.8,190.2c-24.8,0-45,20.2-45,45c0,24.8,20.2,45,45,45s45-20.2,45-45
		C326.8,210.4,306.6,190.2,281.8,190.2z"/>
	<rect x="298.5" y="208.1" transform="matrix(0.4062 0.9138 -0.9138 0.4062 377.8923 -145.6887)" width="5" height="19.7"/>
	<rect x="254.2" y="215.4" transform="matrix(0.9138 0.4061 -0.4061 0.9138 111.2651 -88.4567)" width="19.7" height="5"/>
	<circle cx="266" cy="227.9" r="5"/>
	<circle cx="299" cy="227.9" r="5"/>
	<path d="M283.4,255.9c-10.9,0-20.5-3.3-26.3-8.3c0.1,10.7,11.5,19.3,25.5,19.3c13.4,0,24.3-7.9,25.4-17.9
		C302,253.2,293.2,255.9,283.4,255.9z"/>
</svg>
