<?xml version="1.0" encoding="utf-8"?>
<!DOCTYPE svg PUBLIC "-//W3C//DTD SVG 1.1//EN" "http://www.w3.org/Graphics/SVG/1.1/DTD/svg11.dtd">
<svg version="1.1" xmlns="http://www.w3.org/2000/svg" viewBox="0 0 810 500">
	<g class=="smile">
		<rect x="293" y="203" width="223" height="123"/>
		<path fill="#FFFFFF" d="M401.9,269.6c0-1.1,0.1-2.1,0.2-2.9s0.4-1.5,0.7-2.2s0.7-1.3,1.2-1.9s1.1-1.3,1.9-2.1
			c0.5-0.5,1-1.1,1.5-1.6s0.9-1,1.3-1.5s0.7-1.1,0.9-1.7s0.3-1.3,0.3-2.1c0-1.6-0.4-2.9-1.3-3.9s-2.1-1.4-3.8-1.4
			c-0.7,0-1.3,0.1-2,0.3s-1.2,0.5-1.7,0.8s-0.9,0.9-1.2,1.5s-0.4,1.3-0.4,2.1h-4.3c0-1.3,0.3-2.5,0.8-3.6s1.2-1.9,2-2.7
			s1.9-1.3,3-1.7s2.4-0.6,3.8-0.6c1.5,0,2.8,0.2,4,0.6s2.1,1,2.9,1.8s1.4,1.7,1.8,2.8s0.6,2.3,0.6,3.7c0,1.1-0.2,2.1-0.5,3
			s-0.8,1.8-1.3,2.6s-1.2,1.6-1.9,2.4s-1.4,1.5-2.2,2.2c-0.9,0.8-1.4,1.7-1.7,2.7s-0.4,2.1-0.4,3.2H401.9z M401.7,277.1
			c0-0.7,0.2-1.3,0.6-1.8s1.1-0.7,1.9-0.7s1.5,0.2,1.9,0.7s0.7,1.1,0.7,1.8s-0.2,1.3-0.7,1.7s-1.1,0.7-1.9,0.7s-1.5-0.2-1.9-0.7
			S401.7,277.8,401.7,277.1z"/>
	</g>
	<g class=="smile">
		<path fill="#FFFFFF" d="M68.3,50.3c-20.7,0-37.5,16.8-37.5,37.5s16.8,37.5,37.5,37.5s37.5-16.8,37.5-37.5S89,50.3,68.3,50.3
			L68.3,50.3z"/>
		<path d="M68.3,57.4C85,57.4,98.6,71,98.6,87.8S85,118.1,68.3,118.1s-30.4-13.6-30.4-30.4S51.5,57.4,68.3,57.4 M68.3,52.4
			c-19.6,0-35.4,15.9-35.4,35.4s15.9,35.4,35.4,35.4s35.4-15.9,35.4-35.4S87.8,52.4,68.3,52.4L68.3,52.4z M58.2,70.1
			c-2.8,0-5.1,3.4-5.1,7.6c0,4.2,2.3,7.6,5.1,7.6s5.1-3.4,5.1-7.6C63.2,73.5,61,70.1,58.2,70.1z M78.4,70.1c-2.8,0-5.1,3.4-5.1,7.6
			c0,4.2,2.3,7.6,5.1,7.6s5.1-3.4,5.1-7.6C83.5,73.5,81.2,70.1,78.4,70.1z M90.9,93.6c0.4-1.3-0.4-2.7-1.7-3.1
			c-1.3-0.4-2.7,0.4-3.1,1.7c-2.3,7.9-9.6,13.4-17.8,13.4S52.8,100,50.5,92.1c-0.4-1.3-1.8-2.1-3.1-1.7c-1.3,0.4-2.1,1.8-1.7,3.1
			c2.9,10,12.2,17,22.7,17S88,103.6,90.9,93.6z"/>
	</g>
	<g class=="smile">
		<path fill="#FFFFFF" d="M749.6,43.7c-20.7,0-37.5,16.8-37.5,37.5s16.8,37.5,37.5,37.5c20.7,0,37.5-16.8,37.5-37.5
			S770.3,43.7,749.6,43.7L749.6,43.7z"/>
		<path d="M749.6,50.8c16.7,0,30.4,13.6,30.4,30.4s-13.6,30.4-30.4,30.4c-16.7,0-30.4-13.6-30.4-30.4S732.9,50.8,749.6,50.8
			 M749.6,45.7c-19.6,0-35.4,15.9-35.4,35.4s15.9,35.4,35.4,35.4c19.6,0,35.4-15.9,35.4-35.4S769.2,45.7,749.6,45.7L749.6,45.7z
			 M739.5,63.5c-2.8,0-5.1,3.4-5.1,7.6c0,4.2,2.3,7.6,5.1,7.6c2.8,0,5.1-3.4,5.1-7.6C744.6,66.9,742.3,63.5,739.5,63.5z M759.7,63.5
			c-2.8,0-5.1,3.4-5.1,7.6c0,4.2,2.3,7.6,5.1,7.6c2.8,0,5.1-3.4,5.1-7.6C764.8,66.9,762.5,63.5,759.7,63.5z M772.3,86.9
			c0.4-1.3-0.4-2.7-1.7-3.1c-1.3-0.4-2.7,0.4-3.1,1.7c-2.3,7.9-9.6,13.4-17.8,13.4c-8.2,0-15.5-5.5-17.8-13.4
			c-0.4-1.3-1.8-2.1-3.1-1.7c-1.3,0.4-2.1,1.8-1.7,3.1c2.9,10,12.2,17,22.7,17C760.1,103.9,769.4,96.9,772.3,86.9z"/>
	</g>
	<g class=="smile">
		<path fill="#FFFFFF" d="M749.6,394.7c-20.7,0-37.5,16.8-37.5,37.5s16.8,37.5,37.5,37.5c20.7,0,37.5-16.8,37.5-37.5
			S770.3,394.7,749.6,394.7L749.6,394.7z"/>
		<path d="M749.6,401.8c16.7,0,30.4,13.6,30.4,30.4c0,16.7-13.6,30.4-30.4,30.4c-16.7,0-30.4-13.6-30.4-30.4
			C719.3,415.4,732.9,401.8,749.6,401.8 M749.6,396.7c-19.6,0-35.4,15.9-35.4,35.4c0,19.6,15.9,35.4,35.4,35.4
			c19.6,0,35.4-15.9,35.4-35.4C785,412.6,769.2,396.7,749.6,396.7L749.6,396.7z M739.5,414.5c-2.8,0-5.1,3.4-5.1,7.6
			c0,4.2,2.3,7.6,5.1,7.6c2.8,0,5.1-3.4,5.1-7.6C744.6,417.9,742.3,414.5,739.5,414.5z M759.7,414.5c-2.8,0-5.1,3.4-5.1,7.6
			c0,4.2,2.3,7.6,5.1,7.6c2.8,0,5.1-3.4,5.1-7.6C764.8,417.9,762.5,414.5,759.7,414.5z M772.3,437.9c0.4-1.3-0.4-2.7-1.7-3.1
			c-1.3-0.4-2.7,0.4-3.1,1.7c-2.3,7.9-9.6,13.4-17.8,13.4c-8.2,0-15.5-5.5-17.8-13.4c-0.4-1.3-1.8-2.1-3.1-1.7
			c-1.3,0.4-2.1,1.8-1.7,3.1c2.9,10,12.2,17,22.7,17C760.1,454.9,769.4,447.9,772.3,437.9z"/>
	</g>
	<g class=="smile">
		<path fill="#FFFFFF" d="M68.3,394.7c-20.7,0-37.5,16.8-37.5,37.5s16.8,37.5,37.5,37.5s37.5-16.8,37.5-37.5S89,394.7,68.3,394.7
			L68.3,394.7z"/>
		<path d="M68.3,401.8c16.7,0,30.4,13.6,30.4,30.4c0,16.7-13.6,30.4-30.4,30.4s-30.4-13.6-30.4-30.4
			C37.9,415.4,51.5,401.8,68.3,401.8 M68.3,396.7c-19.6,0-35.4,15.9-35.4,35.4c0,19.6,15.9,35.4,35.4,35.4s35.4-15.9,35.4-35.4
			C103.7,412.6,87.8,396.7,68.3,396.7L68.3,396.7z M58.2,414.5c-2.8,0-5.1,3.4-5.1,7.6c0,4.2,2.3,7.6,5.1,7.6s5.1-3.4,5.1-7.6
			C63.2,417.9,61,414.5,58.2,414.5z M78.4,414.5c-2.8,0-5.1,3.4-5.1,7.6c0,4.2,2.3,7.6,5.1,7.6c2.8,0,5.1-3.4,5.1-7.6
			C83.5,417.9,81.2,414.5,78.4,414.5z M90.9,437.9c0.4-1.3-0.4-2.7-1.7-3.1c-1.3-0.4-2.7,0.4-3.1,1.7c-2.3,7.9-9.6,13.4-17.8,13.4
			s-15.5-5.5-17.8-13.4c-0.4-1.3-1.8-2.1-3.1-1.7c-1.3,0.4-2.1,1.8-1.7,3.1c2.9,10,12.2,17,22.7,17S88,447.9,90.9,437.9z"/>
	</g>
</svg>
