<?xml version="1.0" encoding="utf-8"?>
<!DOCTYPE svg PUBLIC "-//W3C//DTD SVG 1.1//EN" "http://www.w3.org/Graphics/SVG/1.1/DTD/svg11.dtd">
<svg version="1.1" xmlns="http://www.w3.org/2000/svg" viewBox="0 0 810 500">
	<g class="arrows">
		<polygon points="565.6,165.7 545.6,165.7 549.4,172.2 269.9,333.5 272.4,337.9 551.9,176.5 555.6,183 		"/>
		<polygon points="587.9,206.5 585.4,202.1 305.9,363.5 302.2,357 292.2,374.3 312.2,374.3 308.4,367.8 		"/>
	</g>
	<g class="arrows">
		<polygon points="587.6,336 577.6,318.7 573.8,325.3 294.4,164 291.9,168.4 571.3,329.7 567.6,336 		"/>
		<polygon points="565.9,371.6 286.5,210.3 290.2,204 270.2,204 280.2,221.3 284,214.6 563.4,376 		"/>
	</g>
	<g class="arrows">
		<polygon points="599.3,88 582,78 582,85 259,85 259,90 582,90 582,98 		"/>
		<polygon points="598,129 276,129 276,122 258.7,132 276,142 276,134 598,134 		"/>
	</g>
	<g class="arrows">
		<polygon points="599.3,418 582,408 582,415 259,415 259,420 582,420 582,428 		"/>
		<polygon points="598,459 276,459 276,452 258.7,462 276,472 276,464 598,464 		"/>
	</g>
	<path class="producer fossil" d="M217.3,89c0-0.1,0-0.1,0-0.2c0-0.1,0-0.3,0-0.4c0-0.1,0-0.2-0.1-0.3c0-0.1-0.1-0.2-0.1-0.3
		c0-0.1-0.1-0.2-0.1-0.3c0-0.1-0.1-0.2-0.1-0.3c-0.1-0.1-0.1-0.2-0.2-0.3c0-0.1-0.1-0.1-0.2-0.2c0,0-0.1-0.1-0.1-0.1
		c0,0-0.1-0.1-0.2-0.1c-0.1-0.1-0.1-0.1-0.2-0.2c-0.1-0.1-0.2-0.1-0.3-0.2c-0.1,0-0.1-0.1-0.2-0.1c-0.1-0.1-0.2-0.1-0.4-0.1
		c0,0-0.1,0-0.1,0l-35.6-10.1L176.4,53H194v7.5c0,1.8,1.3,3.2,3,3.2c1.7,0,3-1.4,3-3.2V49.7c0-0.1,0-0.1,0-0.2c0-0.1,0-0.2,0-0.3
		c0-0.1,0-0.2-0.1-0.4c0-0.1,0-0.2-0.1-0.2c0-0.1-0.1-0.2-0.1-0.4c0-0.1-0.1-0.1-0.1-0.2c-0.1-0.1-0.1-0.2-0.2-0.3
		c0-0.1-0.1-0.1-0.1-0.2c0,0-0.1-0.1-0.1-0.1c-0.1-0.1-0.1-0.1-0.2-0.2c-0.1,0-0.1-0.1-0.2-0.1c-0.1-0.1-0.2-0.2-0.4-0.2
		c0,0-0.1,0-0.1-0.1l-20.7-10.6c-0.4-0.2-0.9-0.3-1.4-0.3h-20.7c-0.5,0-1,0-1.4,0.3l-20.7,10.7c-0.1,0-0.1,0.1-0.2,0.1
		c-0.1,0-0.1,0.1-0.2,0.1c-0.1,0.1-0.2,0.1-0.3,0.2c0,0-0.1,0.1-0.1,0.1c0,0,0,0.1-0.1,0.1c-0.1,0.1-0.1,0.2-0.2,0.3
		c0,0.1-0.1,0.1-0.1,0.2c-0.1,0.1-0.1,0.2-0.2,0.3c0,0.1-0.1,0.1-0.1,0.2c0,0.1-0.1,0.2-0.1,0.4c0,0.1,0,0.2,0,0.2
		c0,0.1,0,0.2,0,0.4c0,0.1,0,0.1,0,0.2v10.7c0,1.8,1.4,3,3.1,3c1.7,0,3.1-1.4,3.1-3.4H138v-7h17.6l-2.9,22.9L117,85.9
		c-0.1,0-0.1,0-0.2,0.1c-0.1,0-0.2,0.1-0.3,0.1c-0.1,0.1-0.2,0.1-0.3,0.2c-0.1,0-0.1,0.1-0.2,0.1c-0.1,0.1-0.2,0.2-0.3,0.2
		c0,0-0.1,0.1-0.1,0.1c0,0,0,0.1-0.1,0.1c-0.1,0.1-0.1,0.2-0.2,0.3c-0.1,0.1-0.1,0.1-0.1,0.2c-0.1,0.1-0.1,0.2-0.2,0.3
		c0,0.1-0.1,0.1-0.1,0.2c0,0.1-0.1,0.2-0.1,0.4c0,0.1,0,0.1-0.1,0.2c0,0.1,0.1,0.3,0.1,0.4c0,0.1,0.1,0.1,0.1,0.2v10.7
		c0,1.8,1.3,3.2,3,3.2c1.7,0,3-1.4,3-3.2V92h11c0,0,0,0.5,0,0.6v7.1c0,1.8,1.3,3.2,3,3.2c1.7,0,3-1.4,3-3.2v-7.1
		c0-0.1,0.1-0.6,0.1-0.6h12.4l-7.9,62H121v-20.6l-28-26.2v22.2l-25-23.7v23.7l-27-26.7V82H15v72H0v18h114.3H205v-18h-15.6l-7.9-62
		h12.4c0,0,0.1,0.5,0.1,0.6v7.1c0,1.8,1.3,3.2,3,3.2c1.7,0,3-1.4,3-3.2v-7.1c0-0.1,0.1-0.6,0.1-0.6H211v7.7c0,1.8,1.4,3.2,3.2,3.2
		c1.7,0,3.1-1.4,3.1-3.2L217.3,89z M180.2,130.7l-10.4-7.2l8.7-6L180.2,130.7z M154.6,154l11.4-6.5l11.4,6.5H154.6z M166,142.7
		l-13.2-7.5l13.2-9.1l13.2,9.1L166,142.7z M161.9,82l-3.4,4h-0.8l0.6-4H161.9z M159,75.1l0.1-0.6l0.5,0.6H159z M173.9,82l0.5,4h-0.8
		l-3.4-4H173.9z M172.4,75.1l0.5-0.6l0.1,0.6H172.4z M167.1,75H165l-3.2-3.9l4.2-5.4l4.2,5.4L167.1,75z M168.2,86h-4.4l2.2-2.7
		L168.2,86z M168.7,62.2l2.3-3l0.9,7.3L168.7,62.2z M166,58.8l-4.2-5.5l0-0.4h8.3l0,0.4L166,58.8z M163.4,62.2l-3.3,4.2l0.9-7.3
		L163.4,62.2z M158.7,92h14.7l0.1,0.2l-7.4,6.7l-7.4-6.7L158.7,92z M176.4,113.8l-10.4,7.2l-10.3-7.2l10.3-9.2L176.4,113.8z
		 M177.4,109.1l-8.2-7.3l6.5-5.8L177.4,109.1z M148.2,47l8.3-5h19.2l8.3,5h-11c0,0,0,0,0,0h-13.8c0,0,0,0,0,0H148.2z M156.3,96
		l6.5,5.8l-8.2,7.3L156.3,96z M153.6,117.5l8.7,6l-10.4,7.2L153.6,117.5z M141,86l10.8-3.1l-0.4,3.1H141z M150.8,139l10.9,6.2
		l-12.6,7.1L150.8,139z M183,152.3l-12.6-7.1l10.9-6.2L183,152.3z M180.7,86l-0.4-3.1l10.8,3.1H180.7z M72.8,73.8
		c-2,0-4.2-0.2-6.7-0.5c-4.7-0.6-8.9-0.9-12.7-0.9c-19.8,0-25.6,7.7-25.6,7.7s6.8-18.3,36.2-18.3c2.8,0,5.7,0.2,8.9,0.5
		c0,0,19.1-1.4,20.5-8.2C93.4,54.2,95.8,73.8,72.8,73.8z"/>
	<path class="consumer industry" d="M801.1,153.6V97.6h-7.2V91H790V25h-7.5v66h-3.9v6.6h-4.8V91h-3.9V49.2h-7.5V91h-3.9v6.6h-10.3V59.4l-48.4,22v-22
		l-53.3,24.2v70h-3.7v5.3h163.1v-5.3L801.1,153.6L801.1,153.6z M672.8,132.1H666v-6.8h6.8V132.1z M672.8,118.9H666v-6.8h6.8V118.9z
		 M686.1,132.1h-6.8v-6.8h6.8V132.1z M686.1,118.9h-6.8v-6.8h6.8V118.9z M699.3,132.1h-6.8v-6.8h6.8V132.1z M699.3,118.9h-6.8v-6.8
		h6.8V118.9z M769.9,112.1h6.8v6.8h-6.8V112.1z M769.9,125.3h6.8v6.8h-6.8V125.3z M763.5,132.1h-6.8v-6.8h6.8V132.1z M763.5,118.9
		h-6.8v-6.8h6.8V118.9z M777.3,154.7h-8.1V142h8.1V154.7z M790,132.1h-6.8v-6.8h6.8V132.1z M790,118.9h-6.8v-6.8h6.8V118.9z"/>
	<path class="consumer private" d="M641.3,472.9h30.6v-67.3h-30.6V472.9z M659.7,417.9h6.1v6.1h-6.1V417.9z M659.7,430.1h6.1v6.1h-6.1V430.1z M659.7,442.3
		h6.1v6.1h-6.1V442.3z M659.7,454.6h6.1v6.1h-6.1V454.6z M647.4,417.9h6.1v6.1h-6.1V417.9z M647.4,430.1h6.1v6.1h-6.1V430.1z
		 M647.4,442.3h6.1v6.1h-6.1V442.3z M647.4,454.6h6.1v6.1h-6.1V454.6z M770.7,418v54.9h30.6V418H770.7z M783,460.8h-6.1v-6.1h6.1
		V460.8z M783,448.6h-6.1v-6.1h6.1V448.6z M783,436.4h-6.1v-6.1h6.1V436.4z M795.2,460.8h-6.1v-6.1h6.1V460.8z M795.2,448.6h-6.1
		v-6.1h6.1V448.6z M795.2,436.4h-6.1v-6.1h6.1V436.4z M759.7,349.9h-13.9l-10.1-3.1v65.5v1.8V473h30.6v-58.8v-1.8v-56.1l-6.6-2
		L759.7,349.9L759.7,349.9z M748,460.7h-6.1v-6.1h6.1V460.7z M748,448.5h-6.1v-6.1h6.1V448.5z M748,436.2h-6.1v-6.1h6.1V436.2z
		 M748,424h-6.1v-6.1h6.1V424z M748,411.3h-6.1v-6.1h6.1V411.3z M748,399h-6.1v-6.1h6.1V399z M748,386.8h-6.1v-6.1h6.1V386.8z
		 M748,374.6h-6.1v-6.1h6.1V374.6z M760.2,460.7h-6.1v-6.1h6.1V460.7z M760.2,448.5h-6.1v-6.1h6.1V448.5z M760.2,436.2h-6.1v-6.1
		h6.1V436.2z M760.2,424h-6.1v-6.1h6.1V424z M760.2,411.3h-6.1v-6.1h6.1V411.3z M760.2,399h-6.1v-6.1h6.1V399z M760.2,386.8h-6.1
		v-6.1h6.1V386.8z M760.2,368.5v6.1h-6.1v-6.1H760.2z M719.1,417.9v-18.2l-6.1-12.2h-6.1v-7.2h-6.1v7.2h-6.1l-6.1,12.2v18.2h-6.1
		l-6.1,6.3v48.9h55.1v-48.9l-6.1-6.3H719.1z M706.9,399.7h6.1v6.1h-6.1V399.7z M694.6,399.7h6.1v6.1h-6.1V399.7z M694.6,460.9h-6.1
		v-6.1h6.1V460.9z M694.6,448.7h-6.1v-6.1h6.1V448.7z M694.6,436.4h-6.1v-6.1h6.1V436.4z M694.6,412h6.1v6.1h-6.1V412z M706.9,460.9
		h-6.1v-6.1h6.1V460.9z M706.9,448.7h-6.1v-6.1h6.1V448.7z M706.9,436.4h-6.1v-6.1h6.1V436.4z M706.9,412h6.1v6.1h-6.1V412z
		 M719.1,460.9H713v-6.1h6.1V460.9z M719.1,448.7H713v-6.1h6.1V448.7z M719.1,436.4H713v-6.1h6.1V436.4z M684.2,412.1V410h-3v-6.1h3
		v-5.4l0.4-0.8h-3.3v-6.1h6.4l0,0l5.2-10.5l0.8-1.7v-12.8l-30.9,7.4v27.4h13.4v16.4l5.6-5.7L684.2,412.1L684.2,412.1z M681.2,379.4
		h6.1v6.1h-6.1V379.4z M675.1,397.7H669v-6.1h6.1V397.7z M675.1,385.5H669v-6.1h6.1V385.5z"/>
	<path class="producer renewable" d="M114.7,370.7c-0.5,0.1-1,0.1-1.5,0.1c-0.4-0.1-0.6-0.3-1-0.4c-0.4,0.4-0.8,0.7-1.3,1.1l-6.1,95.1h18.5l-5.8-91.6
		C116.5,373.5,115.5,372,114.7,370.7z M133.2,376.4c-4.9-5.2-9.6-9.4-13.4-12c0.2-1.4-0.2-2.8-1-3.9c1.8-4.2,3.4-10.3,4.6-17.4
		c2.2-13.3,1.7-24.5-1.1-25c-2.8-0.5-6.9,10-9.1,23.3c-1.1,6.7-1.5,12.7-1.3,17.2c-1.7,0.7-3,2.2-3.3,4.1c0,0,0,0,0,0
		c-4.4,1.3-9.9,3.6-16,6.9c-11.9,6.5-20.4,13.7-19,16.3c1.4,2.5,12.1-0.7,24-7.1c6.2-3.4,11.3-6.9,14.7-9.9c0.3,0.1,0.6,0.3,1,0.4
		c0.5,0.1,1,0,1.5-0.1c2.3,4,6,9,10.9,14.2c9.2,9.9,18.4,16.3,20.5,14.4C148.2,395.9,142.4,386.3,133.2,376.4z M113.8,366
		c-1.2-0.2-2.1-1.4-1.9-2.6c0.2-1.2,1.4-2.1,2.6-1.9c1.2,0.2,2.1,1.4,1.9,2.6C116.2,365.4,115,366.2,113.8,366z M168.3,396.2
		c-0.4,0-0.7,0.1-1.1,0c-0.3,0-0.5-0.2-0.7-0.3c-0.3,0.3-0.6,0.5-0.9,0.8l-4.5,69.8h13.6l-4.3-67.2
		C169.5,398.3,168.8,397.2,168.3,396.2z M181.8,400.4c-3.6-3.8-7.1-6.9-9.9-8.8c0.1-1.1-0.1-2.1-0.7-2.9c1.3-3.1,2.5-7.6,3.4-12.8
		c1.6-9.8,1.2-18-0.8-18.3c-2.1-0.3-5.1,7.3-6.7,17.1c-0.8,4.9-1.1,9.3-0.9,12.6c-1.2,0.5-2.2,1.6-2.4,3c0,0,0,0,0,0
		c-3.2,0.9-7.3,2.7-11.7,5.1c-8.7,4.7-15,10.1-14,11.9c1,1.8,8.9-0.5,17.6-5.2c4.5-2.5,8.3-5.1,10.8-7.3c0.2,0.1,0.4,0.2,0.7,0.3
		c0.4,0.1,0.7,0,1.1,0c1.7,2.9,4.4,6.6,8,10.4c6.7,7.3,13.5,12,15,10.6C192.8,414.7,188.6,407.7,181.8,400.4z M167.6,392.8
		c-0.9-0.1-1.5-1-1.4-1.9c0.1-0.9,1-1.5,1.9-1.4c0.9,0.1,1.5,1,1.4,1.9C169.3,392.3,168.5,392.9,167.6,392.8z M56.9,396.2
		c-0.4,0-0.7,0.1-1.1,0c-0.3,0-0.5-0.2-0.7-0.3c-0.3,0.3-0.6,0.5-0.9,0.8l-4.5,69.8h13.6L59,399.4C58.1,398.3,57.4,397.2,56.9,396.2
		z M70.4,400.4c-3.6-3.8-7.1-6.9-9.9-8.8c0.1-1.1-0.1-2.1-0.7-2.9c1.3-3.1,2.5-7.6,3.4-12.8c1.6-9.8,1.2-18-0.8-18.3
		c-2.1-0.3-5.1,7.3-6.7,17.1c-0.8,4.9-1.1,9.3-0.9,12.6c-1.2,0.5-2.2,1.6-2.4,3c0,0,0,0,0,0c-3.2,0.9-7.3,2.7-11.7,5.1
		c-8.7,4.7-15,10.1-14,11.9c1,1.8,8.9-0.5,17.6-5.2c4.5-2.5,8.3-5.1,10.8-7.3c0.2,0.1,0.4,0.2,0.7,0.3c0.4,0.1,0.7,0,1.1,0
		c1.7,2.9,4.4,6.6,8,10.4c6.7,7.3,13.5,12,15,10.6C81.4,414.7,77.2,407.7,70.4,400.4z M56.2,392.8c-0.9-0.1-1.5-1-1.4-1.9
		c0.1-0.9,1-1.5,1.9-1.4c0.9,0.1,1.5,1,1.4,1.9C58,392.3,57.1,392.9,56.2,392.8z"/>
</svg>
