<?xml version="1.0" encoding="utf-8"?>
<!DOCTYPE svg PUBLIC "-//W3C//DTD SVG 1.1//EN" "http://www.w3.org/Graphics/SVG/1.1/DTD/svg11.dtd">
<svg version="1.1" xmlns="http://www.w3.org/2000/svg" viewBox="0 0 810 500">
	<g class="arrows">
		<polygon points="581.6,96 562,92.5 564.5,99.6 261.2,209.9 263,214.6 566.2,104.3 568.8,111.3 		"/>
		<polygon points="596.6,140 594.8,135.3 291.6,245.7 289,238.7 276.2,254 295.8,257.4 293.3,250.4 		"/>
	</g>
	<g class="arrows">
		<polygon points="596.6,422.6 583.8,407.4 581.3,414.4 278,304 276.3,308.7 579.6,419.1 577,426.1 		"/>
		<polygon points="581.5,461.3 278.2,350.9 280.8,343.9 261.2,347.3 274,362.6 276.5,355.6 579.8,466 		"/>
	</g>
	<path class="producer fossil" d="M217.3,234c0-0.1,0-0.1,0-0.2c0-0.1,0-0.3,0-0.4c0-0.1,0-0.2-0.1-0.3c0-0.1-0.1-0.2-0.1-0.3
		c0-0.1-0.1-0.2-0.1-0.3c0-0.1-0.1-0.2-0.1-0.3c-0.1-0.1-0.1-0.2-0.2-0.3c0-0.1-0.1-0.1-0.2-0.2c0,0-0.1-0.1-0.1-0.1
		c0,0-0.1-0.1-0.2-0.1c-0.1-0.1-0.1-0.1-0.2-0.2c-0.1-0.1-0.2-0.1-0.3-0.2c-0.1,0-0.1-0.1-0.2-0.1c-0.1-0.1-0.2-0.1-0.4-0.1
		c0,0-0.1,0-0.1,0l-35.6-10.1l-2.9-22.9H194v7.5c0,1.8,1.3,3.2,3,3.2c1.7,0,3-1.4,3-3.2v-10.7c0-0.1,0-0.1,0-0.2c0-0.1,0-0.2,0-0.3
		c0-0.1,0-0.2-0.1-0.4c0-0.1,0-0.2-0.1-0.2c0-0.1-0.1-0.2-0.1-0.4c0-0.1-0.1-0.1-0.1-0.2c-0.1-0.1-0.1-0.2-0.2-0.3
		c0-0.1-0.1-0.1-0.1-0.2c0,0-0.1-0.1-0.1-0.1c-0.1-0.1-0.1-0.1-0.2-0.2c-0.1,0-0.1-0.1-0.2-0.1c-0.1-0.1-0.2-0.2-0.4-0.2
		c0,0-0.1,0-0.1-0.1l-20.7-10.6c-0.4-0.2-0.9-0.3-1.4-0.3h-20.7c-0.5,0-1,0-1.4,0.3l-20.7,10.7c-0.1,0-0.1,0.1-0.2,0.1
		c-0.1,0-0.1,0.1-0.2,0.1c-0.1,0.1-0.2,0.1-0.3,0.2c0,0-0.1,0.1-0.1,0.1c0,0,0,0.1-0.1,0.1c-0.1,0.1-0.1,0.2-0.2,0.3
		c0,0.1-0.1,0.1-0.1,0.2c-0.1,0.1-0.1,0.2-0.2,0.3c0,0.1-0.1,0.1-0.1,0.2c0,0.1-0.1,0.2-0.1,0.4c0,0.1,0,0.2-0.1,0.2
		c0,0.1,0,0.2,0,0.4c0,0.1,0,0.1,0,0.2v10.7c0,1.8,1.4,3,3.1,3c1.7,0,3.1-1.4,3.1-3.4H138v-7h17.6l-2.9,22.9L117,230.9
		c-0.1,0-0.1,0-0.2,0.1c-0.1,0-0.2,0.1-0.3,0.1c-0.1,0.1-0.2,0.1-0.3,0.2c-0.1,0-0.1,0.1-0.2,0.1c-0.1,0.1-0.2,0.2-0.3,0.2
		c0,0-0.1,0.1-0.1,0.1c0,0,0,0.1-0.1,0.1c-0.1,0.1-0.1,0.2-0.2,0.3c-0.1,0.1-0.1,0.1-0.1,0.2c-0.1,0.1-0.1,0.2-0.2,0.3
		c0,0.1-0.1,0.1-0.1,0.2c0,0.1-0.1,0.2-0.1,0.4c0,0.1,0,0.1-0.1,0.2c0,0.1,0.1,0.3,0.1,0.4c0,0.1,0.1,0.1,0.1,0.2v10.7
		c0,1.8,1.3,3.2,3,3.2c1.7,0,3-1.4,3-3.2V237h11c0,0,0,0.5,0,0.6v7.1c0,1.8,1.3,3.2,3,3.2c1.7,0,3-1.4,3-3.2v-7.1
		c0-0.1,0.1-0.6,0.1-0.6h12.4l-7.9,62H121v-20.6l-28-26.2v22.2l-25-23.7v23.7l-27-26.7V227H15v72H0v18h114.3H205v-18h-15.6l-7.9-62
		h12.4c0,0,0.1,0.5,0.1,0.6v7.1c0,1.8,1.3,3.2,3,3.2c1.7,0,3-1.4,3-3.2v-7.1c0-0.1,0.1-0.6,0.1-0.6H211v7.7c0,1.8,1.4,3.2,3.2,3.2
		c1.7,0,3.1-1.4,3.1-3.2L217.3,234z M180.2,275.7l-10.4-7.2l8.7-6L180.2,275.7z M154.6,299l11.4-6.5l11.4,6.5H154.6z M166,287.7
		l-13.2-7.5l13.2-9.1l13.2,9.1L166,287.7z M161.9,227l-3.4,4h-0.8l0.6-4H161.9z M159,220.1l0.1-0.6l0.5,0.6H159z M173.9,227l0.5,4
		h-0.8l-3.4-4H173.9z M172.4,220.1l0.5-0.6l0.1,0.6H172.4z M167.1,220H165l-3.2-3.9l4.2-5.4l4.2,5.4L167.1,220z M168.2,231h-4.4
		l2.2-2.7L168.2,231z M168.7,207.2l2.3-3l0.9,7.3L168.7,207.2z M166,203.8l-4.2-5.5l0.1-0.4h8.3l0,0.4L166,203.8z M163.4,207.2
		l-3.3,4.2l0.9-7.3L163.4,207.2z M158.7,237h14.7l0.1,0.2l-7.4,6.7l-7.4-6.7L158.7,237z M176.4,258.8l-10.4,7.2l-10.3-7.2l10.3-9.2
		L176.4,258.8z M177.4,254.1l-8.2-7.3l6.5-5.8L177.4,254.1z M148.2,192l8.3-5h19.2l8.3,5h-11c0,0,0,0,0,0h-13.8c0,0,0,0,0,0H148.2z
		 M156.3,241l6.5,5.8l-8.2,7.3L156.3,241z M153.6,262.5l8.7,6l-10.4,7.2L153.6,262.5z M141,231l10.8-3.1l-0.4,3.1H141z M150.8,284
		l10.9,6.2l-12.6,7.1L150.8,284z M183,297.3l-12.6-7.1l10.9-6.2L183,297.3z M180.7,231l-0.4-3.1l10.8,3.1H180.7z M72.8,218.8
		c-2,0-4.2-0.2-6.7-0.5c-4.7-0.6-8.9-0.9-12.7-0.9c-19.8,0-25.6,7.7-25.6,7.7s6.8-18.3,36.2-18.3c2.8,0,5.7,0.2,8.9,0.5
		c0,0,19.1-1.4,20.5-8.2C93.4,199.2,95.8,218.8,72.8,218.8z"/>
	<path class="consumer industry" d="M801.1,128.6V72.6h-7.2V66H790V0h-7.5v66h-3.9v6.6h-4.8V66h-3.9V24.2h-7.5V66h-3.9v6.6h-10.3V34.4l-48.4,22v-22l-53.3,24.2
		v70h-3.7v5.3h163.1v-5.3L801.1,128.6L801.1,128.6z M672.8,107.1H666v-6.8h6.8V107.1z M672.8,93.9H666v-6.8h6.8V93.9z M686.1,107.1
		h-6.8v-6.8h6.8V107.1z M686.1,93.9h-6.8v-6.8h6.8V93.9z M699.3,107.1h-6.8v-6.8h6.8V107.1z M699.3,93.9h-6.8v-6.8h6.8V93.9z
		 M769.9,87.1h6.8v6.8h-6.8V87.1z M769.9,100.3h6.8v6.8h-6.8V100.3z M763.5,107.1h-6.8v-6.8h6.8V107.1z M763.5,93.9h-6.8v-6.8h6.8
		V93.9z M777.3,129.7h-8.1V117h8.1V129.7z M790,107.1h-6.8v-6.8h6.8V107.1z M790,93.9h-6.8v-6.8h6.8V93.9z"/>
	<path class="consumer private" d="M642.5,494.3H673V427h-30.6V494.3z M660.8,439.2h6.1v6.1h-6.1V439.2z M660.8,451.5h6.1v6.1h-6.1V451.5z M660.8,463.7h6.1
		v6.1h-6.1V463.7z M660.8,475.9h6.1v6.1h-6.1V475.9z M648.6,439.2h6.1v6.1h-6.1V439.2z M648.6,451.5h6.1v6.1h-6.1V451.5z
		 M648.6,463.7h6.1v6.1h-6.1V463.7z M648.6,475.9h6.1v6.1h-6.1V475.9z M771.9,439.4v54.9h30.6v-54.9H771.9z M784.1,482.2H778v-6.1
		h6.1V482.2z M784.1,470H778v-6.1h6.1V470z M784.1,457.7H778v-6.1h6.1V457.7z M796.3,482.2h-6.1v-6.1h6.1V482.2z M796.3,470h-6.1
		v-6.1h6.1V470z M796.3,457.7h-6.1v-6.1h6.1V457.7z M760.9,371.3h-13.9l-10.1-3.1v65.5v1.8v58.8h30.6v-58.8v-1.8v-56.1l-6.6-2
		L760.9,371.3L760.9,371.3z M749.1,482.1H743V476h6.1V482.1z M749.1,469.9H743v-6.1h6.1V469.9z M749.1,457.6H743v-6.1h6.1V457.6z
		 M749.1,445.4H743v-6.1h6.1V445.4z M749.1,432.7H743v-6.1h6.1V432.7z M749.1,420.4H743v-6.1h6.1V420.4z M749.1,408.2H743v-6.1h6.1
		V408.2z M749.1,396H743v-6.1h6.1V396z M761.4,482.1h-6.1V476h6.1V482.1z M761.4,469.9h-6.1v-6.1h6.1V469.9z M761.4,457.6h-6.1v-6.1
		h6.1V457.6z M761.4,445.4h-6.1v-6.1h6.1V445.4z M761.4,432.7h-6.1v-6.1h6.1V432.7z M761.4,420.4h-6.1v-6.1h6.1V420.4z M761.4,408.2
		h-6.1v-6.1h6.1V408.2z M761.4,389.8v6.1h-6.1v-6.1H761.4z M720.3,439.3v-18.2l-6.1-12.2H708v-7.2h-6.1v7.2h-6.1l-6.1,12.2v18.2
		h-6.1l-6.1,6.3v48.9h55.1v-48.9l-6.1-6.3H720.3z M708,421.1h6.1v6.1H708V421.1z M695.8,421.1h6.1v6.1h-6.1V421.1z M695.8,482.3
		h-6.1v-6.1h6.1V482.3z M695.8,470.1h-6.1v-6.1h6.1V470.1z M695.8,457.8h-6.1v-6.1h6.1V457.8z M695.8,433.4h6.1v6.1h-6.1V433.4z
		 M708,482.3h-6.1v-6.1h6.1V482.3z M708,470.1h-6.1v-6.1h6.1V470.1z M708,457.8h-6.1v-6.1h6.1V457.8z M708,433.4h6.1v6.1H708V433.4z
		 M720.3,482.3h-6.1v-6.1h6.1V482.3z M720.3,470.1h-6.1v-6.1h6.1V470.1z M720.3,457.8h-6.1v-6.1h6.1V457.8z M685.3,433.5v-2.2h-3
		v-6.1h3v-5.4l0.4-0.8h-3.3V413h6.4l0,0l5.2-10.5l0.8-1.7V388l-30.9,7.4v27.4h13.4v16.4l5.6-5.7L685.3,433.5L685.3,433.5z
		 M682.3,400.7h6.1v6.1h-6.1V400.7z M676.2,419.1h-6.1V413h6.1V419.1z M676.2,406.9h-6.1v-6.1h6.1V406.9z"/>
</svg>
