<?xml version="1.0" encoding="utf-8"?>
<!DOCTYPE svg PUBLIC "-//W3C//DTD SVG 1.1//EN" "http://www.w3.org/Graphics/SVG/1.1/DTD/svg11.dtd">
<svg version="1.1" xmlns="http://www.w3.org/2000/svg" viewBox="0 0 810 500">
	<g>
		<rect x="293" y="203" fill="#00427A" width="223" height="123"/>
		<g>
			<path fill="#FFFFFF" d="M476.7,269.6c-3.6,0-6.3,2-7.2,5c-0.9-3.1-3.5-5-7.2-5c-4.5,0-7.5,2.9-7.5,7.3c0,0.3,0,0.5,0,0.8l0,0
				v10.8v0.1c0,0.1,0,0.4,0,1c0,1.6-1.6,3.1-3.3,3.4c-0.1,0,0,0,0,0l7.1,0v-9.7l0.3,0.2c1,0.5,2.2,0.7,3.4,0.7c3.6,0,6.3-2,7.2-5
				c0.9,3.1,3.5,5,7.2,5c4.5,0,7.5-2.9,7.5-7.3C484.2,272.6,481.2,269.6,476.7,269.6z M462.3,281.2c-2.2,0-3.8-1.8-3.8-4.3
				c0-2.4,1.6-4.2,3.8-4.2c2.2,0,3.8,1.8,3.8,4.3C466.1,279.4,464.5,281.2,462.3,281.2z M476.7,281.2c-2.2,0-3.8-1.8-3.8-4.3
				c0-2.4,1.6-4.2,3.8-4.2c2.2,0,3.8,1.8,3.8,4.3C480.5,279.4,478.9,281.2,476.7,281.2z"/>
			<path fill="#FFFFFF" d="M443.1,282.2c1.1,0.9,2.7,2.1,5.1,2.1c3.9,0,5.8-1.4,5.8-4.2c0-3.1-2.6-4.1-4.6-4.9
				c-1.3-0.5-2.3-0.9-2.3-1.7c0-1.3,1.3-1.3,1.7-1.3c1.1,0,2.3,0.3,3.3,1l1.5-2.1c-1.4-1.1-2.8-1.5-5.1-1.5c-2.2,0-4.8,1-4.8,3.8
				c0,2.9,2.2,3.8,4.1,4.5c1.4,0.5,2.5,1,2.5,2.2c0,0.7-0.4,1.4-2,1.4c-1.2,0-2.7-0.8-3.6-1.7L443.1,282.2L443.1,282.2z"/>
			<path fill="#FFFFFF" d="M488.9,270.2v-4.7h-3.7v4.7h-3.4c0,0,0,0,0,0c1.7,0.3,3.4,2.5,3.4,3.8c0,1.4,0,0.4,0,0.4v9.4h3.7v-10.4
				h3.2v-3.2H488.9z"/>
			<path fill="#FFFFFF" d="M475.9,229.2V260c0,0,0,1.9-0.4,3.1c-0.8,2.2-2.7,3.9-5.1,4.4c-0.1,0,0,0,0,0l11.6,0v-38.3H475.9z"/>
			<path fill="#FFFFFF" d="M462.7,244.1c-5.7,0-10,2.9-11.6,7.6c-1.6-4.6-5.9-7.6-11.6-7.6c-5.8,0-10.2,3-11.7,7.9
				c-1.6-4.8-5.9-7.9-11.7-7.9c-7,0-11.8,4.3-12.3,10.9c2.8-3.4,7.2-6.8,12.9-5.8c3.3,0.3,5.6,3.2,5.6,7c0,4.1-2.6,7-6.2,7
				c-3.6,0-6.2-3-6.2-7.1c0-3,1.5-5.4,3.7-6.4c-6.7,1.4-9.6,10.3-9.9,13.3v14c0,0,0-1.3,0,1c0,2.4-2.6,5.1-5.5,5.6c-0.1,0,0,0,0,0
				l11.6,0v-16.8l0.6,0.3c1.7,0.8,3.6,1.1,5.6,1.1c5.8,0,10.2-3,11.7-7.9c1.6,4.8,5.9,7.9,11.7,7.9c5.7,0,10-2.9,11.6-7.6
				c1.6,4.6,5.9,7.6,11.6,7.6c7.4,0,12.4-4.9,12.4-12.1C475,249,470.1,244.1,462.7,244.1z M439.5,263.2c-3.6,0-6.2-3-6.2-7.1
				c0-4,2.7-7,6.2-7c3.6,0,6.2,3,6.2,7C445.7,260.3,443.1,263.2,439.5,263.2z M462.7,263.2c-3.6,0-6.2-3-6.2-7.1c0-4,2.7-7,6.2-7
				c3.6,0,6.2,3,6.2,7C468.9,260.3,466.3,263.2,462.7,263.2z"/>
			<path fill="#FFFFFF" d="M405.5,244.8l-11.6,0v16.9l-0.6-0.3c-1.7-0.8-3.6-1.2-5.7-1.2c-4.3,0-7.8,1.7-10,4.5v-4.5
				c-3.8,0-9.4-0.1-12.1,3.8c-2,2.9-1.7,5.4-1.7,5.4v0.7c-0.9-6-5.6-9.9-12.2-9.9c-6.1,0-10.6,3.4-11.9,8.6
				c-0.3-8-9.2-8.6-11.3-8.6c-2,0-11.3,0.7-11.3,9c0,2,0,14.3,0,14.3h6.1v-11.8c0-4.4,1.4-5.9,5.1-5.9c3.5,0,5.1,1.6,5.1,5.9v4.4
				v0.3c0,0.2,0,0.7,0,1.4c0,2.6-2.6,5.1-5.5,5.6c-0.1,0,0,0,0,0l11.6,0c0,0,0-4,0-7.8c1.3,5.3,5.8,8.6,11.9,8.6
				c6.6,0,11.3-3.9,12.2-9.9v1.7v0.4c0,0.2,0,0.6,0,1.1c0,2.6-2.1,5.4-4.9,5.9c-0.1,0,0,0,0,0l11.1,0v-12.3c0-3.7,1.7-5.6,6.8-5.2
				c-1,1.8-1.5,3.9-1.5,6.3c0,7.2,5,12.1,12.4,12.1c7,0,11.8-4.3,12.3-10.9c-2.8,3.4-7.3,6.8-13,5.8c-3.3-0.3-5.6-3.2-5.6-7.1
				c0-4,2.7-7,6.2-7c3.6,0,6.2,3,6.2,7c0,3.1-1.5,5.5-3.8,6.5c6.8-1.3,9.7-10.4,10-13.3V252v-0.2c0-0.2,0-0.6,0-1.4
				C400,248.1,402.6,245.3,405.5,244.8C405.5,244.8,405.5,244.8,405.5,244.8z M351.6,279.4c-3.6,0-6.2-3-6.2-7.1c0-4,2.7-7,6.2-7
				c3.6,0,6.2,3,6.2,7C357.8,276.4,355.2,279.4,351.6,279.4z"/>
		</g>
	</g>
</svg>
