<?xml version="1.0" encoding="utf-8"?>
<!DOCTYPE svg PUBLIC "-//W3C//DTD SVG 1.1//EN" "http://www.w3.org/Graphics/SVG/1.1/DTD/svg11.dtd">
<svg version="1.1" xmlns="http://www.w3.org/2000/svg" viewBox="0 0 810 500">
	<g class="arrows">
		<polygon points="275.4,323 255.5,323 259.2,329.5 136.9,400.1 139.4,404.5 261.7,333.8 265.4,340.3 		"/>
		<polygon points="289.5,347.2 287,342.9 164.7,413.5 160.9,407 151,424.3 170.9,424.3 167.2,417.8 		"/>
	</g>
	<g class="arrows">
		<polygon points="676.2,130.1 656.2,130.1 660,136.6 537.6,207.2 540.1,211.5 662.5,140.9 666.2,147.4 		"/>
		<polygon points="664.8,110.1 662.3,105.8 539.9,176.4 536.2,170 526.2,187.2 546.2,187.2 542.4,180.8 		"/>
	</g>
	<g class="arrows">
		<polygon points="663.4,424 653.4,406.7 649.6,413.4 527.4,342.8 524.9,347.1 647.1,417.7 643.5,424 		"/>
		<polygon points="677.5,400.1 555.2,329.4 558.9,323 539,323 548.9,340.3 552.7,333.8 675,404.4 		"/>
	</g>
	<g class="arrows">
		<polygon points="288.2,187 278.2,169.7 274.4,176.4 152.1,105.8 149.6,110.1 271.9,180.7 268.2,187 		"/>
		<polygon points="276.8,207.2 154.4,136.5 158.2,130 138.2,130 148.2,147.3 151.9,140.9 274.3,211.5 		"/>
	</g>
	<path class="producer fossil" d="M139.2,69.9c0,0,0-0.1,0-0.1c0-0.1,0-0.2,0-0.2c0-0.1,0-0.1,0-0.2c0-0.1,0-0.1-0.1-0.2
		c0-0.1,0-0.1-0.1-0.2c0-0.1-0.1-0.1-0.1-0.2c0-0.1-0.1-0.1-0.1-0.2c0,0-0.1-0.1-0.1-0.1c0,0,0,0-0.1-0.1c0,0-0.1-0.1-0.1-0.1
		c0,0-0.1-0.1-0.1-0.1c-0.1,0-0.1-0.1-0.2-0.1c0,0-0.1-0.1-0.1-0.1c-0.1,0-0.2-0.1-0.2-0.1c0,0,0,0-0.1,0l-22.8-6.4L113,47h11v4.6
		c0,1.1,0.9,2.1,2,2.1c1.1,0,2-0.9,2-2.1v-6.9c0,0,0.1-0.1,0.1-0.1c0-0.1,0-0.1,0-0.2c0-0.1,0-0.2,0-0.2c0,0,0-0.1,0-0.1
		c0-0.1-0.1-0.2-0.1-0.2c0,0,0-0.1-0.1-0.1c0-0.1-0.1-0.1-0.1-0.2c0,0-0.1-0.1-0.1-0.1c0,0,0-0.1-0.1-0.1c0,0-0.1-0.1-0.1-0.1
		c0,0-0.1-0.1-0.1-0.1c-0.1-0.1-0.2-0.1-0.2-0.2c0,0,0,0-0.1,0l-13.2-6.8c-0.3-0.1-0.6-0.1-0.9-0.1H99.7c-0.3,0-0.6,0-0.9,0.1
		l-13.2,6.8c0,0-0.1,0-0.1,0.1c-0.1,0-0.1,0-0.1,0.1c-0.1,0-0.1,0.1-0.2,0.1c0,0-0.1,0-0.1,0.1c0,0,0,0,0,0.1c0,0.1-0.1,0.1-0.1,0.2
		c0,0-0.1,0.1-0.1,0.1c0,0.1-0.1,0.1-0.1,0.2c0,0,0,0.1-0.1,0.1c0,0.1,0,0.1-0.1,0.2c0,0.1,0,0.1,0,0.2c0,0.1,0.2,0.2,0.2,0.2
		c0,0,0.2,0.1,0.2,0.1v6.9c0,1.1,0.6,2.3,1.7,2.3c1.1,0,1.7-0.9,1.7-1.9H88v-5h11.7l-1.9,14.6L75,68c0,0-0.1,0-0.1,0
		c-0.1,0-0.1,0-0.2,0.1c-0.1,0-0.1,0.1-0.2,0.1c0,0-0.1,0.1-0.1,0.1c-0.1,0-0.1,0.1-0.2,0.2c0,0-0.1,0-0.1,0.1c0,0,0,0,0,0
		c-0.1,0.1-0.1,0.1-0.1,0.2c0,0-0.1,0.1-0.1,0.1c0,0.1-0.1,0.1-0.1,0.2c0,0,0,0.1-0.1,0.1c0,0.1-0.1,0.2-0.1,0.2c0,0,0,0.1,0,0.1
		c0,0.1-0.3,0.2-0.3,0.2c0,0-0.3,0.1-0.3,0.1v6.9c0,1.1,0.9,2.1,2,2.1c1.1,0,2-0.9,2-2.1V72h7.5c0,0,0.5,0.1,0.5,0.2v4.6
		c0,1.1,0.4,2.1,1.5,2.1c1.1,0,1.5-0.9,1.5-2.1v-4.6c0-0.1,0.5-0.2,0.5-0.2h8l-5.1,40H77V98.3L60,81.6v14.2L43,80.6v15.2L26,78.6V65
		H9v47H0v11h73.2H132v-11h-10.7l-5.1-40h8c0,0-0.2,0.1-0.2,0.2v4.6c0,1.1,0.9,2.1,2,2.1c1.1,0,2-0.9,2-2.1v-4.6
		c0-0.1,0.2-0.2,0.2-0.2h6.8v4.8c0,1.1,1,2.1,2.1,2.1c1.1,0,2-0.9,2-2.1L139.2,69.9z M115.4,96.6l-6.7-4.6l5.6-3.9L115.4,96.6z
		 M99,112l7.3-4.1l7.3,4.1H99z M106.3,104.3l-8.5-4.8l8.5-5.9l8.5,5.9L106.3,104.3z M103.7,65l-2.2,3H101l0.4-3H103.7z M101.9,61
		l0.1-0.4l0.3,0.4H101.9z M111.4,65l0.4,3h-0.5l-2.2-3H111.4z M110.5,61l0.3-0.4l0.1,0.4H110.5z M107,61h-1.3l-2-2.5l2.7-3.5
		l2.7,3.5L107,61z M107.7,68h-2.8l1.4-1.7L107.7,68z M108,52.8l1.5-1.9l0.6,4.7L108,52.8z M106.3,50.6l-2.7-3.4l0-0.1h5.3l0,0.1
		L106.3,50.6z M104.7,52.8l-2.1,2.7l0.6-4.7L104.7,52.8z M101.6,72h9.4l0.1,0l-4.8,4.2L101.6,72L101.6,72z M113,85.8l-6.6,4.6
		l-6.6-4.6l6.6-5.9L113,85.8z M113.6,82.7l-5.3-4.7l4.2-3.7L113.6,82.7z M94.9,43l5.3-3h12.3l5.3,3h-7c0,0,0,0,0,0h-8.8c0,0,0,0,0,0
		H94.9z M100.1,74.3l4.2,3.7L99,82.7L100.1,74.3z M98.4,88.1L104,92l-6.7,4.6L98.4,88.1z M90.3,68l6.9-2L97,68H90.3z M96.6,101.9
		l7,4l-8.1,4.6L96.6,101.9z M117.2,110.4l-8.1-4.6l7-4L117.2,110.4z M115.7,68l-0.3-2l6.9,2H115.7z M46.6,60.1
		c-1.3,0-2.7-0.1-4.3-0.3c-3-0.4-5.7-0.6-8.1-0.6c-12.7,0-16.4,5-16.4,5s4.4-11.7,23.2-11.7c1.8,0,3.7,0.1,5.7,0.3
		c0,0,12.2-0.9,13.1-5.2C59.9,47.6,61.3,60.1,46.6,60.1z"/>
	<path class="consumer industry" d="M802.5,113.9V75.2h-5v-4.6h-2.7V25h-5.2v45.6h-2.7v4.6h-3.3v-4.6h-2.7V41.7h-5.2v28.9H773v4.6h-7.1V48.8L732.4,64V48.8
		l-36.8,16.7v48.4H693v3.7h112.7v-3.7L802.5,113.9L802.5,113.9z M713.8,99.1h-4.7v-4.7h4.7V99.1z M713.8,89.9h-4.7v-4.7h4.7V89.9z
		 M723,99.1h-4.7v-4.7h4.7V99.1z M723,89.9h-4.7v-4.7h4.7V89.9z M732.2,99.1h-4.7v-4.7h4.7V99.1z M732.2,89.9h-4.7v-4.7h4.7V89.9z
		 M781,85.2h4.7v4.7H781V85.2z M781,94.4h4.7v4.7H781V94.4z M776.5,99.1h-4.7v-4.7h4.7V99.1z M776.5,89.9h-4.7v-4.7h4.7V89.9z
		 M786.1,114.7h-5.6v-8.8h5.6V114.7z M794.8,99.1h-4.7v-4.7h4.7V99.1z M794.8,89.9h-4.7v-4.7h4.7V89.9z"/>
	<path class="consumer private" d="M685,466.4h22.2v-48.9H685V466.4z M698.3,426.4h4.4v4.4h-4.4V426.4z M698.3,435.3h4.4v4.4h-4.4V435.3z M698.3,444.2h4.4
		v4.4h-4.4V444.2z M698.3,453.1h4.4v4.4h-4.4V453.1z M689.4,426.4h4.4v4.4h-4.4V426.4z M689.4,435.3h4.4v4.4h-4.4V435.3z
		 M689.4,444.2h4.4v4.4h-4.4V444.2z M689.4,453.1h4.4v4.4h-4.4V453.1z M779.1,426.5v39.9h22.2v-39.9H779.1z M788,457.6h-4.4v-4.4
		h4.4V457.6z M788,448.8h-4.4v-4.4h4.4V448.8z M788,439.9h-4.4v-4.4h4.4V439.9z M796.9,457.6h-4.4v-4.4h4.4V457.6z M796.9,448.8
		h-4.4v-4.4h4.4V448.8z M796.9,439.9h-4.4v-4.4h4.4V439.9z M771.1,377H761l-7.3-2.2v47.6v1.3v42.8h22.2v-42.8v-1.3v-40.8l-4.8-1.5
		L771.1,377L771.1,377z M762.5,457.6h-4.4v-4.4h4.4V457.6z M762.5,448.7h-4.4v-4.4h4.4V448.7z M762.5,439.8h-4.4v-4.4h4.4V439.8z
		 M762.5,430.9h-4.4v-4.4h4.4V430.9z M762.5,421.6h-4.4v-4.4h4.4V421.6z M762.5,412.7h-4.4v-4.4h4.4V412.7z M762.5,403.8h-4.4v-4.4
		h4.4V403.8z M762.5,394.9h-4.4v-4.4h4.4V394.9z M771.4,457.6H767v-4.4h4.4V457.6z M771.4,448.7H767v-4.4h4.4V448.7z M771.4,439.8
		H767v-4.4h4.4V439.8z M771.4,430.9H767v-4.4h4.4V430.9z M771.4,421.6H767v-4.4h4.4V421.6z M771.4,412.7H767v-4.4h4.4V412.7z
		 M771.4,403.8H767v-4.4h4.4V403.8z M771.4,390.5v4.4H767v-4.4H771.4z M741.6,426.5v-13.2l-4.4-8.9h-4.4v-5.3h-4.4v5.3h-4.5
		l-4.4,8.9v13.2h-4.4l-4.4,4.6v35.6h40V431l-4.4-4.6H741.6z M732.7,413.2h4.4v4.4h-4.4V413.2z M723.8,413.2h4.4v4.4h-4.4V413.2z
		 M723.8,457.7h-4.4v-4.4h4.4V457.7z M723.8,448.8h-4.4v-4.4h4.4V448.8z M723.8,439.9h-4.4v-4.4h4.4V439.9z M723.8,422.1h4.4v4.4
		h-4.4V422.1z M732.7,457.7h-4.4v-4.4h4.4V457.7z M732.7,448.8h-4.4v-4.4h4.4V448.8z M732.7,439.9h-4.4v-4.4h4.4V439.9z
		 M732.7,422.1h4.4v4.4h-4.4V422.1z M741.6,457.7h-4.4v-4.4h4.4V457.7z M741.6,448.8h-4.4v-4.4h4.4V448.8z M741.6,439.9h-4.4v-4.4
		h4.4V439.9z M716.1,422.2v-1.6H714v-4.4h2.1v-3.9l0.3-0.5H714v-4.4h4.6l0,0l3.8-7.6l0.6-1.2v-9.3l-22.4,5.4v19.9h9.8v11.9l4.1-4.1
		L716.1,422.2L716.1,422.2z M714,398.4h4.4v4.4H714V398.4z M709.5,411.8h-4.4v-4.4h4.4V411.8z M709.5,402.9h-4.4v-4.4h4.4V402.9z"/>
	<path class="producer renewable" d="M81.5,406.9c-0.3,0-0.6,0.1-0.9,0c-0.2,0-0.4-0.2-0.6-0.2c-0.3,0.2-0.5,0.5-0.8,0.7l-3.8,59.3h11.5l-3.6-57
		C82.5,408.6,82,407.7,81.5,406.9z M93,410.4c-3-3.3-6-5.8-8.4-7.4c0.1-0.9-0.1-1.8-0.6-2.4c1.1-2.6,2.1-6.4,2.9-10.8
		c1.4-8.3,1-15.3-0.7-15.6c-1.8-0.3-4.3,6.2-5.7,14.5c-0.7,4.2-0.9,7.9-0.8,10.7c-1,0.5-1.9,1.4-2.1,2.6c0,0,0,0,0,0
		c-2.7,0.8-6.2,2.3-10,4.3c-7.4,4-12.7,8.6-11.9,10.1c0.8,1.6,7.5-0.4,14.9-4.5c3.9-2.1,7-4.3,9.2-6.2c0.2,0.1,0.4,0.2,0.6,0.2
		c0.3,0,0.6,0,0.9,0c1.4,2.5,3.8,5.6,6.8,8.8c5.7,6.2,11.4,10.2,12.7,9C102.3,422.6,98.7,416.6,93,410.4z M80.9,403.9
		c-0.8-0.1-1.3-0.9-1.2-1.6c0.1-0.8,0.9-1.3,1.6-1.2c0.8,0.1,1.3,0.8,1.2,1.6C82.4,403.5,81.7,404.1,80.9,403.9z M114.8,422.8
		c-0.2,0-0.4,0.1-0.7,0c-0.2,0-0.3-0.1-0.4-0.2c-0.2,0.2-0.4,0.3-0.6,0.5l-2.8,43.5h8.4l-2.7-41.8
		C115.6,424,115.2,423.4,114.8,422.8z M123.2,425.4c-2.2-2.4-4.4-4.3-6.1-5.5c0.1-0.7-0.1-1.3-0.4-1.8c0.8-1.9,1.6-4.7,2.1-7.9
		c1-6.1,0.8-11.2-0.5-11.4c-1.3-0.2-3.2,4.6-4.2,10.7c-0.5,3.1-0.7,5.8-0.6,7.9c-0.8,0.3-1.4,1-1.5,1.9c0,0,0,0,0,0
		c-2,0.6-4.5,1.7-7.3,3.1c-5.4,2.9-9.3,6.3-8.7,7.4c0.6,1.1,5.5-0.3,11-3.3c2.8-1.5,5.2-3.1,6.7-4.5c0.1,0.1,0.3,0.1,0.4,0.2
		c0.2,0,0.5,0,0.7,0c1,1.8,2.8,4.1,5,6.5c4.2,4.5,8.4,7.5,9.3,6.6C130.1,434.3,127.5,429.9,123.2,425.4z M114.4,420.6
		c-0.6-0.1-0.9-0.6-0.9-1.2c0.1-0.6,0.6-0.9,1.2-0.9c0.6,0.1,0.9,0.6,0.9,1.2C115.5,420.3,114.9,420.7,114.4,420.6z M45.4,422.8
		c-0.2,0-0.4,0.1-0.7,0c-0.2,0-0.3-0.1-0.4-0.2c-0.2,0.2-0.4,0.3-0.6,0.5L41,466.6h8.4l-2.7-41.8C46.2,424,45.8,423.4,45.4,422.8z
		 M53.9,425.4c-2.2-2.4-4.4-4.3-6.1-5.5c0.1-0.7-0.1-1.3-0.4-1.8c0.8-1.9,1.6-4.7,2.1-7.9c1-6.1,0.8-11.2-0.5-11.4
		c-1.3-0.2-3.2,4.6-4.2,10.7c-0.5,3.1-0.7,5.8-0.6,7.9c-0.8,0.3-1.4,1-1.5,1.9c0,0,0,0,0,0c-2,0.6-4.5,1.7-7.3,3.1
		c-5.4,2.9-9.3,6.3-8.7,7.4c0.6,1.1,5.5-0.3,11-3.3c2.8-1.5,5.2-3.1,6.7-4.5c0.1,0.1,0.3,0.1,0.4,0.2c0.2,0,0.5,0,0.7,0
		c1,1.8,2.8,4.1,5,6.5c4.2,4.5,8.4,7.5,9.3,6.6C60.7,434.3,58.1,429.9,53.9,425.4z M45,420.6c-0.6-0.1-0.9-0.6-0.9-1.2
		c0.1-0.6,0.6-0.9,1.2-0.9c0.6,0.1,0.9,0.6,0.9,1.2C46.1,420.3,45.6,420.7,45,420.6z"/>
	<g class="exchange">
		<rect x="293" y="203" width="223" height="123"/>
		<path fill="#FFFFFF" d="M401.9,269.6c0-1.1,0.1-2.1,0.2-2.9s0.4-1.5,0.7-2.2c0.3-0.7,0.7-1.3,1.2-1.9s1.1-1.3,1.9-2.1
			c0.5-0.5,1-1.1,1.5-1.6s0.9-1,1.3-1.5s0.7-1.1,0.9-1.7s0.3-1.3,0.3-2.1c0-1.6-0.4-2.9-1.3-3.9c-0.9-0.9-2.1-1.4-3.8-1.4
			c-0.7,0-1.3,0.1-2,0.3s-1.2,0.5-1.7,0.8s-0.9,0.9-1.2,1.5s-0.4,1.3-0.4,2.1h-4.3c0-1.3,0.3-2.5,0.8-3.6s1.2-1.9,2-2.7
			s1.9-1.3,3-1.7s2.4-0.6,3.8-0.6c1.5,0,2.8,0.2,4,0.6s2.1,1,2.9,1.8c0.8,0.8,1.4,1.7,1.8,2.8s0.6,2.3,0.6,3.7c0,1.1-0.2,2.1-0.5,3
			s-0.8,1.8-1.3,2.6s-1.2,1.6-1.9,2.4s-1.4,1.5-2.2,2.2c-0.9,0.8-1.4,1.7-1.7,2.7s-0.4,2.1-0.4,3.2H401.9z M401.7,277.1
			c0-0.7,0.2-1.3,0.6-1.8s1.1-0.7,1.9-0.7s1.5,0.2,1.9,0.7c0.4,0.5,0.7,1.1,0.7,1.8s-0.2,1.3-0.7,1.7c-0.4,0.5-1.1,0.7-1.9,0.7
			s-1.5-0.2-1.9-0.7S401.7,277.8,401.7,277.1z"/>
	</g>
</svg>
