<?xml version="1.0" encoding="utf-8"?>
<!DOCTYPE svg PUBLIC "-//W3C//DTD SVG 1.1//EN" "http://www.w3.org/Graphics/SVG/1.1/DTD/svg11.dtd">
<svg version="1.1" xmlns="http://www.w3.org/2000/svg" viewBox="0 0 900 700">
	<path fill="#231F20" d="M89.7,303.1c-2-7.8-0.1-9.3,1.7-9.3c0.4,0,0.5,0,0.9,0.1l0-0.2c0,0-5.4-18.1,7.6-26.1c0,0-2.3-1.9-2.1-4.5
		l0,0c0,0,6,0.7,11.7,0.7c2.6,0,5.2-0.1,7.1-0.5c0.8-0.2,1.5-0.2,2.3-0.2c5.4,0.1,10.6,4.3,11.5,8.4c0,0,0.1,0,0.2,0
		c1.7,0,12.4,0.8,7.3,22.4c0,0,0,0,0,0.1c0.2-0.1,0.5-0.1,0.8-0.1c1.8,0,3.8,1.5,1.7,9.3c-1.6,6.2-3.1,7.8-4.2,7.8
		c-0.4,0-0.7-0.2-1-0.4c-0.8,4.9-2.8,10.8-7.9,15.1c-12.5,9.6-24.4,0.2-24.4,0.2c-5.2-4.2-7.3-10.2-8.1-15.1
		c-0.2,0.2-0.5,0.3-0.8,0.3C92.8,310.9,91.3,309.2,89.7,303.1z M162,357.1c0.4-5-0.1-15.2-8.9-17.4c-11.8-3-21.4-9.8-21.4-9.8
		l-8.9,28.1l-1.2,3.8l-4-11.3c10-13.9-2.6-13.4-2.6-13.4s-12.6-0.5-2.6,13.4l-3.9,11.2l-1.2-3.8l0,0.1l-1.4-4.5l0,0l0,0l-7.5-23.7
		c0,0-9.6,6.8-21.4,9.8c-8.8,2.2-9.2,12.4-8.9,17.4c0,0-0.1,7,1,9.8c0,0,17.2,11.2,46,11.2l0.1-0.7l0,0.7c28.8,0,46-11.2,46-11.2
		C162.2,364,162.1,357.1,162,357.1L162,357.1z"/>
</svg>
