<?xml version="1.0" encoding="utf-8"?>
<!DOCTYPE svg PUBLIC "-//W3C//DTD SVG 1.1//EN" "http://www.w3.org/Graphics/SVG/1.1/DTD/svg11.dtd">
<svg version="1.1" xmlns="http://www.w3.org/2000/svg" viewBox="0 0 522.9 122.7">
<g>
	<path fill="#231F20" d="M84.4,103.6c0.1-0.3,0.3-0.3,0.4,0l8.1,18.5c0.1,0.2,0.1,0.4-0.2,0.4H91c-0.2,0-0.3,0-0.4-0.2l-1.9-4.3
		h-8.3l-1.9,4.3c-0.1,0.2-0.2,0.2-0.4,0.2h-1.8c-0.2,0-0.2-0.1-0.1-0.4L84.4,103.6z M81.3,115.7h6.5l-3.1-7.3
		c-0.1-0.2-0.2-0.2-0.2,0L81.3,115.7z"/>
	<path fill="#231F20" d="M100.5,122.5c-0.4,0-0.5-0.1-0.5-0.4v-18.2c0-0.2,0-0.3,0.2-0.3h1.8c0.3,0,0.4,0.1,0.4,0.4v16.2
		c0,0.1,0,0.1,0.1,0.1h6.2c0.2,0,0.3,0.1,0.3,0.3v1.6c0,0.2-0.1,0.3-0.3,0.3H100.5z"/>
	<path fill="#231F20" d="M120.6,122.5c-0.2,0-0.3,0-0.3-0.3V106c0-0.2,0-0.3-0.2-0.3h-5.9c-0.2,0-0.3,0-0.3-0.2v-1.6
		c0-0.2,0.1-0.2,0.2-0.2h14.7c0.2,0,0.3,0,0.3,0.2v1.7c0,0.2-0.1,0.2-0.3,0.2h-6c-0.2,0-0.2,0.1-0.2,0.2v16.2c0,0.2,0,0.4-0.2,0.4
		H120.6z"/>
	<path fill="#231F20" d="M144.3,103.2c5.4,0,9.8,4.4,9.8,9.8c0,5.4-4.4,9.7-9.8,9.7c-5.4,0-9.8-4.3-9.8-9.7
		C134.4,107.6,138.8,103.2,144.3,103.2z M144.3,120.6c4.2,0,7.6-3.4,7.6-7.6c0-4.2-3.4-7.6-7.6-7.6c-4.2,0-7.6,3.4-7.6,7.6
		C136.7,117.2,140.1,120.6,144.3,120.6z"/>
	<path fill="#231F20" d="M170.8,120.6c1.9,0,3.6-0.3,4.7-0.9v-6c0-0.2-0.1-0.4-0.3-0.4h-5.2c-0.2,0-0.3-0.1-0.3-0.3v-1.5
		c0-0.2,0.2-0.3,0.3-0.3h7.2c0.4,0,0.4,0.1,0.4,0.4v9.1c0,0.4,0,0.4-0.4,0.6c-1.7,0.9-4.3,1.5-6.7,1.5c-5.4,0-9.7-4-9.7-9.7
		c0-5.7,4.4-9.8,10-9.8c2.3,0,4.4,0.6,6.2,1.5c0.2,0.1,0.3,0.2,0.3,0.4v1.6c0,0.2-0.1,0.3-0.4,0.1c-1.5-0.9-3.7-1.5-6.1-1.5
		c-4.5,0-7.6,3.4-7.6,7.6C163.3,117.2,166.6,120.6,170.8,120.6z"/>
	<path fill="#231F20" d="M187.6,103.8c0-0.2,0.1-0.2,0.2-0.2h9.3c0.3,0,0.4,0.1,0.4,0.2v1.6c0,0.2,0,0.3-0.3,0.3h-7.3
		c0,0-0.1,0-0.1,0.1v5.9c0,0.1,0,0.1,0.1,0.1h7.3c0.2,0,0.2,0.1,0.2,0.3v1.3c0,0.4-0.1,0.4-0.3,0.4h-7.3c-0.1,0-0.1,0-0.1,0.1v6.4
		c0,0.1,0,0.1,0.1,0.1h7.3c0.2,0,0.2,0.1,0.2,0.4v1.3c0,0.2-0.1,0.4-0.4,0.4h-9.3c-0.2,0-0.3,0-0.3-0.3V103.8z"/>
	<path fill="#231F20" d="M211.6,122.5c-0.2,0-0.3,0-0.3-0.3V106c0-0.2,0-0.3-0.2-0.3h-5.9c-0.2,0-0.3,0-0.3-0.2v-1.6
		c0-0.2,0.1-0.2,0.2-0.2h14.7c0.2,0,0.3,0,0.3,0.2v1.7c0,0.2-0.1,0.2-0.3,0.2h-6c-0.2,0-0.2,0.1-0.2,0.2v16.2c0,0.2,0,0.4-0.2,0.4
		H211.6z"/>
	<path fill="#231F20" d="M228.3,122.5c-0.2,0-0.3-0.1-0.3-0.2v-18.3c0-0.2,0.1-0.3,0.3-0.3h1.8c0.2,0,0.2,0.1,0.2,0.2v7.8
		c0,0.1,0,0.1,0.1,0.1h8.4c0.1,0,0.1-0.1,0.1-0.1v-7.7c0-0.2,0.1-0.2,0.3-0.2h1.7c0.2,0,0.3,0.2,0.3,0.4v18.3c0,0.2-0.1,0.3-0.2,0.3
		h-1.7c-0.3,0-0.4-0.1-0.4-0.4V114c0-0.1-0.1-0.2-0.2-0.2h-8.4c-0.1,0-0.1,0-0.1,0.1v8.3c0,0.2-0.1,0.3-0.3,0.3H228.3z"/>
	<path fill="#231F20" d="M250.5,103.8c0-0.2,0.1-0.2,0.2-0.2h9.3c0.3,0,0.4,0.1,0.4,0.2v1.6c0,0.2,0,0.3-0.3,0.3h-7.3
		c0,0-0.1,0-0.1,0.1v5.9c0,0.1,0,0.1,0.1,0.1h7.3c0.2,0,0.2,0.1,0.2,0.3v1.3c0,0.4-0.1,0.4-0.3,0.4h-7.3c-0.1,0-0.1,0-0.1,0.1v6.4
		c0,0.1,0,0.1,0.1,0.1h7.3c0.2,0,0.2,0.1,0.2,0.4v1.3c0,0.2-0.1,0.4-0.4,0.4h-9.2c-0.2,0-0.3,0-0.3-0.3V103.8z"/>
	<path fill="#231F20" d="M273.4,103.6c5.2,0,6.8,2,6.8,5.3c0,2.5-0.9,4.5-3.5,5.3l6.5,8c0.1,0.1,0.1,0.4-0.2,0.4H281
		c-0.2,0-0.3-0.1-0.4-0.2l-6.3-7.7h-2.5c-0.3,0-0.3,0.1-0.3,0.3v7.3c0,0.2,0,0.3-0.2,0.3h-1.8c-0.2,0-0.3-0.1-0.3-0.3v-18.2
		c0-0.3,0.1-0.3,0.3-0.3H273.4z M271.4,112.1c0,0.3,0,0.3,0.3,0.3h1.8c3,0,4.4-1,4.4-3.4c0-2.4-1.5-3.3-4.4-3.3h-1.7
		c-0.3,0-0.3,0-0.3,0.3V112.1z"/>
	<path fill="#231F20" d="M308.3,122.7c-1.7,0-3.3-0.4-4.3-0.9c-0.2-0.1-0.3-0.2-0.3-0.4v-1.7c0-0.2,0.1-0.2,0.3-0.1
		c1.1,0.7,2.5,1.1,3.9,1.1c2.7,0,4.1-1.1,4.1-3.3c0-2.7-2.3-3.6-4.3-4.5c-2-0.9-3.7-2.1-3.7-5.1c0-2.7,1.8-4.4,5.1-4.4
		c1.6,0,3,0.4,3.9,0.9c0.2,0.1,0.2,0.2,0.2,0.4v1.7c0,0.1-0.2,0.2-0.3,0.1c-0.9-0.6-2-1.1-3.4-1.1c-2.2,0-3.2,1-3.2,2.6
		c0,2,1.6,2.6,3.4,3.5c2.1,1,4.6,2.2,4.6,5.9C314.1,121.1,311.7,122.7,308.3,122.7z"/>
	<path fill="#231F20" d="M338.3,122.5c-0.2,0-0.3-0.1-0.3-0.4v-13.2c0-0.2-0.1-0.2-0.2,0l-6.3,7.5c-0.3,0.3-0.4,0.3-0.6,0.1
		l-6.4-7.5c-0.2-0.2-0.3-0.1-0.3,0.2v13.1c0,0.2,0,0.3-0.2,0.3h-1.7c-0.3,0-0.3-0.1-0.3-0.3v-18.5c0-0.2,0.2-0.2,0.3-0.1l8.6,9.8
		c0.2,0.3,0.3,0.3,0.5,0.1l8.5-9.7c0.2-0.2,0.4-0.1,0.4,0.1v18.4c0,0.2,0,0.3-0.2,0.3H338.3z"/>
	<path fill="#231F20" d="M355.2,103.6c0.1-0.3,0.3-0.3,0.4,0l8.1,18.5c0.1,0.2,0.1,0.4-0.2,0.4h-1.8c-0.2,0-0.3,0-0.4-0.2l-1.9-4.3
		h-8.3l-1.9,4.3c-0.1,0.2-0.2,0.2-0.4,0.2h-1.8c-0.2,0-0.2-0.1-0.1-0.4L355.2,103.6z M352.1,115.7h6.5l-3.1-7.3
		c-0.1-0.2-0.2-0.2-0.2,0L352.1,115.7z"/>
	<path fill="#231F20" d="M375.6,103.6c5.2,0,6.9,2,6.9,5.3c0,2.5-0.9,4.5-3.5,5.3l6.5,8c0.1,0.1,0.1,0.4-0.2,0.4h-2.1
		c-0.2,0-0.3-0.1-0.4-0.2l-6.3-7.7H374c-0.3,0-0.3,0.1-0.3,0.3v7.3c0,0.2,0,0.3-0.2,0.3h-1.8c-0.2,0-0.3-0.1-0.3-0.3v-18.2
		c0-0.3,0.1-0.3,0.3-0.3H375.6z M373.7,112.1c0,0.3,0,0.3,0.3,0.3h1.8c3,0,4.4-1,4.4-3.4c0-2.4-1.5-3.3-4.4-3.3H374
		c-0.3,0-0.3,0-0.3,0.3V112.1z"/>
	<path fill="#231F20" d="M396.8,122.5c-0.2,0-0.3,0-0.3-0.3V106c0-0.2,0-0.3-0.2-0.3h-5.9c-0.2,0-0.3,0-0.3-0.2v-1.6
		c0-0.2,0.1-0.2,0.2-0.2h14.7c0.2,0,0.3,0,0.3,0.2v1.7c0,0.2-0.1,0.2-0.3,0.2h-6c-0.2,0-0.2,0.1-0.2,0.2v16.2c0,0.2,0,0.4-0.2,0.4
		H396.8z"/>
	<path fill="#231F20" d="M412.8,103.8c0-0.2,0.1-0.2,0.2-0.2h9.3c0.3,0,0.4,0.1,0.4,0.2v1.6c0,0.2,0,0.3-0.3,0.3h-7.3
		c0,0-0.1,0-0.1,0.1v5.9c0,0.1,0,0.1,0.1,0.1h7.3c0.2,0,0.2,0.1,0.2,0.3v1.3c0,0.4-0.1,0.4-0.3,0.4h-7.3c-0.1,0-0.1,0-0.1,0.1v6.4
		c0,0.1,0,0.1,0.1,0.1h7.3c0.2,0,0.2,0.1,0.2,0.4v1.3c0,0.2-0.1,0.4-0.4,0.4h-9.2c-0.2,0-0.3,0-0.3-0.3V103.8z"/>
	<path fill="#231F20" d="M435.2,103.6c5.2,0,6.9,2,6.9,5.3c0,2.5-0.9,4.5-3.5,5.3l6.5,8c0.1,0.1,0.1,0.4-0.2,0.4h-2.1
		c-0.2,0-0.3-0.1-0.4-0.2l-6.3-7.7h-2.5c-0.3,0-0.3,0.1-0.3,0.3v7.3c0,0.2,0,0.3-0.2,0.3h-1.8c-0.2,0-0.3-0.1-0.3-0.3v-18.2
		c0-0.3,0.1-0.3,0.3-0.3H435.2z M433.2,112.1c0,0.3,0,0.3,0.3,0.3h1.8c3,0,4.4-1,4.4-3.4c0-2.4-1.5-3.3-4.4-3.3h-1.7
		c-0.3,0-0.3,0-0.3,0.3V112.1z"/>
</g>
<g>
	<path fill="#231F20" d="M12.6,43.6C6.8,43.6,3.3,42,2,41.3c-1.2-1.4-2-5.8-2-10.1c0.4-0.8,1.9-0.9,2.4-0.2c1.2,4,5.4,9.8,10.7,9.8
		c4.6,0,6.7-3.2,6.7-6.3c0-5-4.7-8-8.5-9.9c-4.5-2.2-9.4-6-9.4-12.1C1.9,5.4,7.3,0.6,16.4,0.6c2.1,0,4.6,0.2,7.1,1
		c0.8,0.2,1.4,0.4,2.1,0.5c0.5,1.4,1.1,4.7,1.1,8.9c-0.3,0.7-1.9,0.8-2.4,0.2c-1.1-3.2-3.7-7.7-8.2-7.7c-4.1,0-6.3,2.7-6.3,5.8
		c0,2.9,2.6,5.5,5.7,7.1l4.1,2.2c3.9,2.1,8.8,5.7,8.8,12.5C28.3,38.6,22,43.6,12.6,43.6z"/>
	<path fill="#231F20" d="M83.2,2.2c0,1.1,0.2,6.1,0.7,9.7c-0.2,0.7-1.9,1-2.4,0.4c-1.7-5.8-5.7-8.9-11.7-8.9
		c-6.9,0-14.3,5.9-14.3,18.3c0,12.4,7.2,19,14.6,19c7.5,0,11-5.4,12.7-9.6c0.5-0.5,2-0.3,2.4,0.4c-0.4,4.6-1.5,8.3-2.4,9.8
		c-3.4,0.9-7.8,2.3-12.6,2.3c-6.1,0-12.3-1.4-16.7-4.7c-4.5-3.4-7.9-8.6-7.9-16.3c0-7.6,3.2-12.9,7.5-16.5
		c4.4-3.7,10.8-5.5,17.2-5.5C76.7,0.6,81.3,2.1,83.2,2.2z"/>
	<path fill="#231F20" d="M145.8,21.9c0,13.6-9.1,21.7-22.5,21.7c-12.5,0-21.6-8.2-21.6-21.2c0-12.3,9.2-21.8,22.2-21.8
		C136.9,0.6,145.8,9.3,145.8,21.9z M123.4,3.4c-7.7,0-11.8,7.2-11.8,17.6c0,7.6,2.7,19.8,12.8,19.8c8.2,0,11.3-8,11.3-18
		C135.8,12.1,131.1,3.4,123.4,3.4z"/>
	<path fill="#231F20" d="M176.6,6.2c0-1.5,0-1.8-1.5-1.8h-3.9c-4.5,0-5.8,2.5-7.7,7c-0.7,0.4-1.9,0.2-2.3-0.6
		c1.3-4.3,1.6-8.2,2.1-10.6c0.2-0.2,0.6-0.3,0.9-0.3c0.3,0,0.6,0.1,0.9,0.2c0.3,1.1,0.5,1.3,5.2,1.3h23.2c4.1,0,5-0.1,5.6-1.4
		c0.2-0.1,0.4-0.2,0.8-0.2c0.4,0,0.8,0.2,0.9,0.4c-0.6,2.1-1.1,7.2-0.9,10.7c-0.3,0.6-2,0.7-2.3,0.2c-1.1-4-1.9-6.9-6.6-6.9h-3.7
		c-1.5,0-1.7,0.2-1.7,1.8v27.4c0,5.8,0.4,6.3,3.2,6.7l2.5,0.3c0.4,0.4,0.4,1.8,0,2.2c-4-0.1-7.2-0.2-10-0.2c-3,0-6.2,0.1-10.6,0.2
		c-0.5-0.4-0.5-1.8,0-2.2l2.8-0.3c2.8-0.3,3.2-0.9,3.2-6.7V6.2z"/>
	<path fill="#231F20" d="M231.5,6.2c0-1.5,0-1.8-1.5-1.8h-3.9c-4.5,0-5.8,2.5-7.7,7c-0.7,0.4-1.9,0.2-2.3-0.6
		c1.3-4.3,1.6-8.2,2.1-10.6c0.2-0.2,0.6-0.3,0.9-0.3c0.3,0,0.6,0.1,0.9,0.2c0.3,1.1,0.5,1.3,5.2,1.3h23.2c4.1,0,5-0.1,5.6-1.4
		c0.2-0.1,0.4-0.2,0.8-0.2c0.4,0,0.8,0.2,0.9,0.4c-0.6,2.1-1.1,7.2-0.9,10.7c-0.3,0.6-2,0.7-2.3,0.2c-1.1-4-1.9-6.9-6.6-6.9h-3.7
		c-1.5,0-1.7,0.2-1.7,1.8v27.4c0,5.8,0.4,6.3,3.2,6.7l2.5,0.3c0.4,0.4,0.4,1.8,0,2.2c-4-0.1-7.2-0.2-10-0.2c-3,0-6.2,0.1-10.6,0.2
		c-0.5-0.4-0.5-1.8,0-2.2l2.8-0.3c2.8-0.3,3.2-0.9,3.2-6.7V6.2z"/>
</g>
<g>
	<path fill="#231F20" d="M292.6,10.9c0-6.5-0.1-7.5-4-7.8L287,2.9c-0.4-0.2-0.2-1.4,0.1-1.6c3.5,0.1,5.6,0.2,8.1,0.2
		c2.4,0,4.5-0.1,7.7-0.2c0.4,0.2,0.5,1.3,0.1,1.6L301.5,3c-3.7,0.3-3.8,1.3-3.8,7.8v21.7c0,3.9,0.2,5.5,1.3,6.7
		c0.7,0.7,1.9,1.4,6.8,1.4c5.3,0,6.6-0.2,7.6-0.8c1.2-0.7,2.9-3,4.1-6.2c0.4-0.3,1.6-0.1,1.6,0.4c0,0.7-1.7,7-2.6,8.7
		c-3.2-0.1-9.1-0.2-15.5-0.2h-5.7c-2.6,0-4.6,0.1-8.1,0.2c-0.4-0.2-0.5-1.2-0.1-1.6l1.9-0.2c3.6-0.4,3.7-1.2,3.7-7.8V10.9z"/>
	<path fill="#231F20" d="M333.1,22.5c0-12.4,9.3-22,22.2-22c14.4,0,21.6,10.4,21.6,21.3c0,12.6-9.6,21.7-21.6,21.7
		C341.4,43.6,333.1,33.7,333.1,22.5z M370.6,23.8c0-10.3-4.5-21.3-16.4-21.3c-6.5,0-14.9,4.4-14.9,18c0,9.2,4.5,21.2,16.7,21.2
		C363.5,41.7,370.6,36.1,370.6,23.8z"/>
	<path fill="#231F20" d="M429.9,36.3c0,2.5,0.4,4,1.5,4.4c0.2,0.2,0.2,0.6-0.1,0.7c-0.7,0-1.9,0.2-3,0.6c-3.3,0.9-7.8,1.6-11.1,1.6
		c-7.4,0-14.2-2.1-19-6.9c-3.7-3.7-5.7-8.7-5.7-14.1c0-5.3,1.7-10.6,5.6-14.7c4.2-4.4,10.3-7.3,19.7-7.3c3.5,0,6.8,0.7,7.9,0.9
		c1.2,0.2,3.1,0.7,3.9,0.6c0,2.1,0.4,5.3,0.9,9c-0.2,0.5-1.3,0.6-1.7,0.2c-1.7-6.7-6.4-8.8-12.8-8.8c-12.1,0-17.4,8.6-17.4,17.9
		c0,11.9,6.2,21.3,18.7,21.3c3.9,0,6.2-0.8,6.8-1.9c0.3-0.4,0.6-1.6,0.6-3.5v-2.5c0-5.2-0.2-5.6-4-6l-2.7-0.3
		c-0.5-0.2-0.4-1.4,0-1.6c1.8,0.1,5.2,0.2,8.9,0.2c2.4,0,4.5-0.1,6.6-0.2c0.4,0.2,0.5,1.2,0.1,1.6l-1,0.1c-2.6,0.3-2.7,2.1-2.7,5.2
		V36.3z"/>
	<path fill="#231F20" d="M456.5,11c0-6.6-0.1-7.7-3.8-8l-1.6-0.1c-0.4-0.2-0.2-1.4,0.1-1.6c3.1,0.1,5.2,0.2,7.8,0.2
		c2.5,0,4.6-0.1,7.7-0.2c0.4,0.2,0.5,1.3,0.1,1.6L465.4,3c-3.7,0.3-3.8,1.4-3.8,8v22.2c0,6.6,0.1,7.5,3.8,7.9l1.6,0.2
		c0.4,0.2,0.2,1.4-0.1,1.6c-3.1-0.1-5.2-0.2-7.7-0.2c-2.6,0-4.7,0.1-7.8,0.2c-0.4-0.2-0.5-1.2-0.1-1.6l1.6-0.2
		c3.7-0.4,3.8-1.3,3.8-7.9V11z"/>
	<path fill="#231F20" d="M490.6,5.9c4.5-3.5,10.3-5.3,16.8-5.3c3.4,0,8.1,0.7,11,1.5c0.7,0.2,1.2,0.3,1.7,0.2
		c0.1,1.4,0.4,5.4,0.9,9.1c-0.3,0.4-1.2,0.5-1.7,0.1c-0.9-4.2-3.7-9.1-12.8-9.1c-9.5,0-17.6,6-17.6,18.9c0,13.1,8.3,20.3,18.5,20.3
		c8,0,11.6-5.2,13-8.9c0.4-0.3,1.4-0.2,1.6,0.2c-0.4,3.2-2.1,7.3-3,8.5c-0.7,0.1-1.5,0.4-2.2,0.6c-1.4,0.5-5.9,1.4-9.8,1.4
		c-5.6,0-11-1.1-15.5-4.2c-5-3.4-8.8-9.1-8.8-17.1C482.8,15.4,485.9,9.5,490.6,5.9z"/>
</g>
<rect x="0.1" y="71.8" fill="#231F20" width="522.9" height="1"/>
</svg>
