<?xml version="1.0" encoding="utf-8"?>
<!DOCTYPE svg PUBLIC "-//W3C//DTD SVG 1.1//EN" "http://www.w3.org/Graphics/SVG/1.1/DTD/svg11.dtd">
<svg version="1.1" xmlns="http://www.w3.org/2000/svg" viewBox="0 0 450 61.9">
	<rect x="147.1" y="27.3" fill="#CDDCD2" width="244.6" height="21.6"/>
	<g>
		<path d="M19.1,29.3v3.5h-3.2c0.5,0.6,0.9,1.2,1.1,1.8c0.2,0.5,0.3,1.1,0.3,1.8c0,1.5-0.6,2.9-1.7,4.1c-1,1.1-2.7,1.8-5.1,2.1
			c-1.3,0.2-2.2,0.3-2.6,0.6c-0.4,0.2-0.6,0.5-0.6,1c0,0.4,0.3,0.7,0.8,0.9c0.5,0.2,1.3,0.4,2.5,0.6c2.8,0.5,4.9,1.1,6.2,2.1
			c1.3,0.9,2,2.2,2,3.7c0,2-0.8,3.5-2.4,4.6c-1.6,1.1-3.9,1.6-7,1.6c-2.9,0-5.2-0.5-6.8-1.5c-1.7-1-2.5-2.3-2.5-4
			c0-2.4,1.6-4,4.9-4.9c-1.4-0.6-2.1-1.4-2.1-2.4c0-1.3,1.1-2.2,3.2-2.7v-0.1c-1.5-0.4-2.6-1.1-3.5-2.1c-0.9-1-1.3-2.2-1.3-3.6
			c0-2,0.8-3.6,2.3-4.9c1.5-1.2,3.5-1.9,6-1.9H19.1z M4.6,51.7c0,1.7,1.7,2.5,5,2.5c1.4,0,2.6-0.2,3.4-0.7c0.8-0.5,1.2-1.1,1.2-1.8
			c0-0.8-0.5-1.5-1.4-1.9c-0.9-0.4-2.2-0.6-3.9-0.6c-1.3,0-2.3,0.2-3.1,0.7C5,50.4,4.6,51,4.6,51.7z M5.8,36.1c0,1,0.3,1.8,1,2.4
			c0.7,0.6,1.5,1,2.5,1c1,0,1.8-0.3,2.5-1c0.7-0.7,1-1.5,1-2.6c0-0.9-0.3-1.7-1-2.3c-0.7-0.6-1.5-0.9-2.5-0.9c-1,0-1.8,0.3-2.5,1
			C6.1,34.4,5.8,35.2,5.8,36.1z"/>
		<path d="M27,20.1v28h-4.9v-28H27z"/>
		<path d="M36.8,29.3v11.6c0,1.2,0.3,2.1,0.9,2.8c0.6,0.6,1.4,1,2.4,1c0.8,0,1.6-0.3,2.4-0.8c0.8-0.5,1.4-1.2,1.8-2.1V29.3h4.9V48
			h-4.9v-2.5c-1.8,1.9-3.7,2.9-5.8,2.9c-2,0-3.6-0.7-4.8-2c-1.2-1.3-1.8-3-1.8-5.1v-12H36.8z"/>
		<path d="M63.2,29c2.2,0,4.1,0.4,5.9,1.3v4.2c-1.7-1-3.4-1.5-5-1.5c-1.7,0-3.1,0.5-4.1,1.6c-1.1,1-1.6,2.5-1.6,4.3
			c0,1.7,0.5,3.2,1.6,4.2c1.1,1.1,2.5,1.6,4.3,1.6c1.3,0,3-0.4,5.1-1.3v4c-1.9,0.8-3.9,1.2-6,1.2c-3,0-5.5-0.9-7.4-2.6
			c-1.9-1.7-2.8-4-2.8-6.9c0-3,0.9-5.4,2.8-7.2C57.9,29.9,60.3,29,63.2,29z"/>
		<path d="M82.4,29c1.9,0,3.7,0.4,5.3,1.2c1.6,0.8,2.8,2,3.7,3.4c0.9,1.5,1.3,3.1,1.3,5c0,1.9-0.4,3.6-1.3,5.1
			c-0.8,1.5-2.1,2.6-3.7,3.4c-1.6,0.8-3.4,1.3-5.4,1.3c-2,0-3.7-0.4-5.3-1.3c-1.6-0.8-2.8-2-3.7-3.4c-0.8-1.5-1.3-3.1-1.3-5.1
			c0-1.9,0.4-3.6,1.3-5c0.9-1.5,2.1-2.6,3.7-3.4C78.7,29.4,80.5,29,82.4,29z M77.3,38.6c0,1.9,0.5,3.4,1.4,4.5
			c0.9,1.1,2.1,1.7,3.7,1.7c1.6,0,2.9-0.5,3.8-1.6c0.9-1.1,1.4-2.6,1.4-4.6c0-1.9-0.5-3.4-1.4-4.4c-0.9-1-2.2-1.6-3.8-1.6
			c-1.5,0-2.7,0.5-3.6,1.6C77.8,35.3,77.3,36.8,77.3,38.6z"/>
		<path d="M102.7,29c1,0,2,0.1,2.9,0.4c0.9,0.2,1.9,0.6,2.9,1.1v3.9c-0.9-0.6-1.9-1.1-3-1.5c-1.1-0.4-2-0.6-2.9-0.6
			c-0.7,0-1.3,0.1-1.7,0.4c-0.4,0.3-0.6,0.6-0.6,1.1c0,0.3,0.2,0.6,0.5,0.8c0.3,0.3,1.2,0.8,2.7,1.5c2.1,1.1,3.6,2.1,4.5,3
			c0.9,0.9,1.3,2,1.3,3.3c0,1.8-0.6,3.2-1.9,4.3c-1.3,1-2.9,1.6-5.1,1.6c-1.3,0-2.6-0.1-3.7-0.4c-1.2-0.3-2.1-0.6-2.9-1.1v-4.1
			c2.4,1.3,4.4,2,6.1,2c0.8,0,1.5-0.2,2-0.5c0.5-0.3,0.8-0.7,0.8-1.2c0-0.3-0.1-0.6-0.3-0.8c-0.2-0.2-0.5-0.5-0.8-0.7
			c-0.4-0.3-1.5-0.9-3.5-1.8c-1.5-0.7-2.6-1.5-3.3-2.4c-0.7-0.8-1.1-1.9-1.1-3c0-1.7,0.6-3,1.9-4C98.9,29.5,100.6,29,102.7,29z"/>
		<path d="M121.5,29c2.7,0,4.9,0.9,6.5,2.6c1.6,1.8,2.4,4.2,2.4,7.3v0.7h-13.2c0.2,1.7,0.8,3,1.9,3.9c1,0.9,2.5,1.4,4.3,1.4
			c1.2,0,2.3-0.2,3.4-0.6c1.1-0.4,2.2-1,3.4-1.9v3.7c-2.2,1.5-4.8,2.3-8,2.3c-2.9,0-5.4-0.9-7.2-2.7c-1.9-1.8-2.8-4.1-2.8-7.1
			c0-2.8,0.9-5.2,2.6-7C116.5,29.9,118.8,29,121.5,29z M125.8,36.7c-0.1-1.4-0.5-2.4-1.2-3.2c-0.7-0.8-1.6-1.2-2.9-1.2
			c-1.2,0-2.2,0.4-3,1.1c-0.8,0.7-1.2,1.8-1.4,3.2H125.8z"/>
	</g>
	<g>
		<path fill="#FF0000" d="M420.5,23.2c-1.3,1.1-2.8,2.7-4.3,4.8c-1.6,2.1-2.7,4-3.4,5.6c0.9-0.4,1.8-0.6,2.8-0.6c1.3,0,2.4,0.3,3.4,1
			c1,0.6,1.8,1.5,2.4,2.6c0.6,1.1,0.9,2.4,0.9,3.8c0,1.5-0.3,2.8-1,4c-0.7,1.2-1.6,2.2-2.8,2.9s-2.5,1-3.9,1c-2.4,0-4.3-0.8-5.8-2.4
			c-1.5-1.6-2.2-3.7-2.2-6.3c0-2.6,0.8-5.3,2.3-8.2c1.5-2.9,3.6-5.7,6.3-8.2H420.5z M411.1,40.4c0,1.1,0.3,2.1,1,2.8
			c0.6,0.7,1.5,1.1,2.5,1.1c1,0,1.8-0.3,2.4-1c0.6-0.7,0.9-1.6,0.9-2.8c0-1.1-0.3-2-0.9-2.7c-0.6-0.7-1.4-1.1-2.4-1.1
			c-1,0-1.8,0.3-2.4,1C411.4,38.5,411.1,39.4,411.1,40.4z"/>
		<path fill="#FF0000" d="M428.3,43c0.7,0,1.3,0.3,1.9,0.8c0.5,0.5,0.8,1.2,0.8,1.9c0,0.7-0.3,1.4-0.8,1.9s-1.2,0.8-1.9,0.8
			c-0.7,0-1.4-0.3-1.9-0.8c-0.5-0.5-0.8-1.2-0.8-1.9c0-0.7,0.3-1.4,0.8-1.9C427,43.2,427.6,43,428.3,43z"/>
		<path fill="#FF0000" d="M448.2,23.2c-1.3,1.1-2.8,2.7-4.3,4.8c-1.6,2.1-2.7,4-3.4,5.6c0.9-0.4,1.8-0.6,2.8-0.6c1.3,0,2.4,0.3,3.4,1
			c1,0.6,1.8,1.5,2.4,2.6s0.9,2.4,0.9,3.8c0,1.5-0.3,2.8-1,4c-0.7,1.2-1.6,2.2-2.8,2.9s-2.5,1-3.9,1c-2.4,0-4.3-0.8-5.8-2.4
			c-1.5-1.6-2.2-3.7-2.2-6.3c0-2.6,0.8-5.3,2.3-8.2c1.5-2.9,3.6-5.7,6.3-8.2H448.2z M438.8,40.4c0,1.1,0.3,2.1,1,2.8
			c0.6,0.7,1.5,1.1,2.5,1.1c1,0,1.8-0.3,2.4-1c0.6-0.7,0.9-1.6,0.9-2.8c0-1.1-0.3-2-0.9-2.7c-0.6-0.7-1.4-1.1-2.4-1.1
			c-1,0-1.8,0.3-2.4,1C439.2,38.5,438.8,39.4,438.8,40.4z"/>
	</g>
	<path d="M375.7,61.9c0,0-0.1,0-0.1,0c-0.5-0.1-0.9-0.4-1.1-0.9l-3.3-9.7l-2.6,1.9c-0.3,0.2-0.6,0.3-1,0.2c-0.3-0.1-0.7-0.3-0.8-0.6
		l-2.4-3.6l-4.5-2.9l-4,1.9l-1.5,1.9c-0.3,0.4-0.8,0.6-1.3,0.4c-0.5-0.1-0.9-0.5-1-1l-3.3-15.9l-1.4-0.9l-0.9,0.7l-2.2,5.9
		c-0.1,0.1-0.1,0.3-0.2,0.4l-3.2,3.8c-0.3,0.3-0.6,0.5-1.1,0.5c-0.4,0-0.8-0.2-1-0.6l-1.7-2.6c-0.1-0.2-0.2-0.4-0.2-0.6l-1.1-8.8
		l-3.1-27.5L330,2.8l-1.8,1.5l-3.3,19.2c0,0.2-0.1,0.4-0.3,0.6l-2.6,3.2c-0.1,0.2-0.3,0.3-0.5,0.4l-7.3,3.1c-0.5,0.2-1.2,0.1-1.5-0.4
		l-4.5-6l-3.3-6.6l-3.4,9.2c-0.2,0.5-0.7,1.1-1.2,1.1h-8.7l-2,2.6l-1.4,9.4c0,0.1-0.1,0.2-0.1,0.3l-2.1,4.4c-0.2,0.4-0.7,0.7-1.1,0.7
		l-13.2,0.1c-0.2-0.1-0.4,0-0.6-0.1l-4.2-2.3h-6.1c-0.4,0-0.7-0.2-1-0.5l-3.2-3.8l-2.9,4.3c-0.1,0.2-0.3,0.3-0.4,0.4l-3.4,1.9
		c-0.5,0.3-1,0.2-1.4-0.1l-3.4-2.8c-0.2-0.2-0.3-0.4-0.4-0.6l-3.4-11.1l-1.1-5.5l-3.3,12.9c-0.1,0.6-0.6,1-1.2,1l-24.1,0.2
		c-0.5-0.1-0.8-0.2-1.1-0.6l-4.8-6.9l-1.5,2l-1,4.4c-0.1,0.3-0.2,0.5-0.4,0.7l-6.6,5.5c-0.3,0.3-0.7,0.3-1.1,0.3l-3.6-0.7l-2.6,2.6
		l-0.4,5.7c0,0.2-0.1,0.5-0.2,0.7l-2.6,3.6c-0.2,0.3-0.6,0.5-1,0.5c-0.4,0.1-0.8-0.2-1.1-0.6l-3.8-5.5l-4-4.6
		c-0.1-0.2-0.2-0.3-0.3-0.5l-2.5-10.2l-2.6-2l-2.1,1.2l-4.9,8.7c-0.1,0.2-0.4,0.4-0.6,0.5l-3.2,1.3c-0.3,0.1-0.7,0.1-1,0l-3.4-1.4
		c-0.3-0.1-0.6-0.4-0.7-0.7L149.9,33l-3.8-1.2l0.7-2.5l4.4,1.3c0.4,0.1,0.7,0.4,0.8,0.7l4.4,10.4l2.4,1l2.3-1l4.9-8.6
		c0.1-0.2,0.3-0.4,0.5-0.5l3.2-1.7c0.4-0.2,1-0.2,1.4,0.1l3.6,2.8c0.2,0.2,0.4,0.4,0.5,0.7l2.5,10.4l3.9,4.5l2.9,4.2l1.3-1.8l0.4-5.8
		c0-0.3,0.2-0.6,0.4-0.8l3.4-3.4c0.3-0.3,0.7-0.4,1.2-0.4l3.7,0.7l5.8-4.9l1-4.3c0-0.2,0.1-0.3,0.2-0.5l2.8-3.6
		c0.2-0.3,0.7-0.5,1-0.5c0.4,0,0.8,0.2,1,0.6l5.4,7.8l22.5-0.2l4.5-17.4c0.1-0.6,0.6-1,1.3-1c0.6,0,1.1,0.4,1.2,1l2.1,10.9l3.3,10.6
		l2.4,2l2.4-1.3l3.7-5.5c0.2-0.3,0.6-0.5,1-0.6c0.4,0,0.8,0.5,1.1,0.8l3.9,5h5.8c0.2,0,0.4-0.3,0.6-0.2l4.2,2.2l12.1-0.2l1.7-3.6
		l1.5-9.6c0-0.2,0.1-0.4,0.2-0.6l2.6-3.1c0.2-0.3,0.6,0,1,0h8.5l4.2-11.4c0.2-0.5,0.6-1.1,1.1-1.1c0.5,0,1,0.1,1.2,0.6l4.5,9l3.8,5
		l6-2.6l2.2-2.7l3.4-19.3c0.1-0.3,0.2-0.6,0.4-0.8l2.8-2.4c0.4-0.3,1-0.4,1.4-0.2l4.1,2.1c0.4,0.2,0.6,0.6,0.7,1l4.2,36.6l0.6,0.9
		l2-2.4l2.3-6c0.1-0.2,0.2-0.4,0.4-0.6l1.9-1.5c0.4-0.3,1-0.4,1.5-0.1l2.6,1.7c0.3,0.2,0.5,0.5,0.5,0.8l2.9,13.8l0,0
		c0.1-0.2,0.3-0.3,0.4-0.4l4.9-2.3c0.4-0.2,0.9-0.2,1.2,0.1l5.3,3.4c0.1,0.1,0.3,0.2,0.4,0.4l1.8,2.7l3-2.2c0.3-0.2,0.8-0.3,1.1-0.2
		c0.4,0.1,0.7,0.4,0.8,0.8l2.9,8.7l2.5-4.3l1.4-5.4c0-0.1,0.1-0.2,0.1-0.3l5.5-9l2.2,1.3l-5.5,8.8l-1.4,5.4c0,0.1-0.1,0.2-0.1,0.3
		l-4.1,6.8C376.6,61.7,376.2,61.9,375.7,61.9z"/>
	<circle fill="#FF0000" cx="385.8" cy="39.5" r="5.1"/>
</svg>
