<?xml version="1.0" encoding="utf-8"?>
<!DOCTYPE svg PUBLIC "-//W3C//DTD SVG 1.1//EN" "http://www.w3.org/Graphics/SVG/1.1/DTD/svg11.dtd">
<svg version="1.1" xmlns="http://www.w3.org/2000/svg" viewBox="0 0 900 700">
	<path fill="#231F20" d="M74,391.9v146.1h148.4v-4.5H78.5V396.4h193.3v137.1h-24.7v4.5h29.2V391.9H74z M253.7,510.5
		c0-1.2-2.3-2.2-2.5-3.3c-0.2-1.2,1.5-2.9,1-4c-0.5-1.1-2.9-1.1-3.6-2.1c-0.7-1,0.3-3.3-0.6-4.1c-0.8-0.8-3.1,0.1-4.1-0.6
		c-1-0.7-1-3.1-2.1-3.6c-1.1-0.4-2.8,1.3-4,1c-1.1-0.2-2.1-2.5-3.3-2.5s-2.2,2.3-3.3,2.5c-1.2,0.2-2.9-1.5-4-1
		c-1.1,0.5-1.1,2.9-2.1,3.6c-1,0.7-3.3-0.3-4.1,0.6c-0.8,0.8,0.1,3.1-0.6,4.1c-0.7,1-3.1,1-3.6,2.1c-0.4,1.1,1.3,2.8,1,4
		c-0.2,1.1-2.5,2.1-2.5,3.3c0,1.2,2.3,2.2,2.5,3.3c0.2,1.2-1.5,2.9-1,4c0.5,1.1,2.9,1.1,3.6,2.1c0.7,1-0.3,3.3,0.6,4.1
		c0.7,0.7,2.3,0.2,3.4,0.4v27.2l10.1-8l10.2,8v-27.2c1.1-0.1,2.7,0.3,3.3-0.4c0.8-0.8-0.1-3.1,0.6-4.1c0.7-1,3.1-1,3.6-2.1
		c0.4-1.1-1.3-2.8-1-4C251.5,512.7,253.7,511.7,253.7,510.5z M234.7,521.8c-6.2,0-11.2-5-11.2-11.2c0-6.2,5-11.2,11.2-11.2
		s11.2,5,11.2,11.2C245.9,516.7,240.9,521.8,234.7,521.8z M141.4,513.3c0,1.2-1,2.2-2.2,2.2H98.7c-1.2,0-2.2-1-2.2-2.2l0,0
		c0-1.2,1-2.2,2.2-2.2h40.5C140.4,511.1,141.4,512.1,141.4,513.3L141.4,513.3z M231.3,479.6c0,1.2-1,2.2-2.2,2.2H121.2
		c-1.2,0-2.2-1-2.2-2.2l0,0c0-1.2,1-2.2,2.2-2.2h107.9C230.3,477.4,231.3,478.4,231.3,479.6L231.3,479.6z M253.8,468.4
		c0,1.2-1,2.2-2.2,2.2H98.7c-1.2,0-2.2-1-2.2-2.2l0,0c0-1.2,1-2.2,2.2-2.2h152.9C252.8,466.1,253.8,467.1,253.8,468.4L253.8,468.4z
		 M253.8,457.1c0,1.2-1,2.2-2.2,2.2H98.7c-1.2,0-2.2-1-2.2-2.2l0,0c0-1.2,1-2.2,2.2-2.2h152.9C252.8,454.9,253.8,455.9,253.8,457.1
		L253.8,457.1z M253.8,423.8h-14.2v12h-11.4v1.1h25.6l-4.1-6.4L253.8,423.8z M220.5,421.6v11.1c0,0-3.1-0.6-8-1.5v3.4h26.1v-13
		L220.5,421.6L220.5,421.6z M96.5,423.8h14.2v12h11.4v1.1H96.5l4.1-6.4L96.5,423.8z M129.8,421.6v11.1c0,0,3.1-0.6,8-1.5v3.4h-26.1
		v-13L129.8,421.6L129.8,421.6z M175.1,414.8c19.8,0,39.8,3.7,44.2,4.5v11.8c-5.2-1-24.8-4.5-44.2-4.5c-19.4,0-39,3.5-44.2,4.5v-11.8
		C135.3,418.5,155.3,414.8,175.1,414.8"/>
</svg>
