<?xml version="1.0" encoding="utf-8"?>
<!DOCTYPE svg PUBLIC "-//W3C//DTD SVG 1.1//EN" "http://www.w3.org/Graphics/SVG/1.1/DTD/svg11.dtd">
<svg version="1.1" xmlns="http://www.w3.org/2000/svg" viewBox="0 0 700 550">
<path d="M350,455h-1v-6h1V455z M350,425h-1v12h1V425z M350,401h-1v12h1V401z M350,377h-1v12h1V377z M350,353h-1v12h1V353z M350,329
	h-1v12h1V329z M350,305h-1v12h1V305z M350,281h-1v12h1V281z M350,257h-1v12h1V257z M350,233h-1v12h1V233z M350,209h-1v12h1V209z
	 M350,185h-1v12h1V185z M350,161h-1v12h1V161z M350,137h-1v12h1V137z M350,113h-1v12h1V113z M350,95h-1v6h1V95z"/>
<text transform="matrix(1 0 0 1 313.0753 85.5337)">Area Price</text>
</svg>
