<?xml version="1.0" encoding="utf-8"?>
<!DOCTYPE svg PUBLIC "-//W3C//DTD SVG 1.1//EN" "http://www.w3.org/Graphics/SVG/1.1/DTD/svg11.dtd">
<svg version="1.1" xmlns="http://www.w3.org/2000/svg" viewBox="0 0 900 700">
	<path fill="#231F20" d="M717.1,523.7h-2.9c-0.6-5.8-2-11.4-4-16.6c-3.5-8.9-8.6-16.8-14.3-23.1c-6.4-7.1-13.4-12.4-19.3-14.9
		c0,0-2.3-1.7-2.3-3.4c0-1.7,2.3-3.4,2.3-3.4c7.8-3.4,17.7-11.6,25.4-22.7c6.3-9,11.1-20,12.3-31.9h2.9c3.1,0,5.6-2.5,5.6-5.6
		c0-3.1-2.5-5.6-5.6-5.6h-95.6c-3.1,0-5.6,2.5-5.6,5.6c0,3.1,2.5,5.6,5.6,5.6h2.9c1.2,11.9,6,22.9,12.2,31.9
		c7.7,11.1,17.5,19.3,25.4,22.7c0,0,2.4,1.5,2.4,3.3c0,1.9-2.3,3.4-2.3,3.4c-5.8,2.6-12.8,7.8-19.2,14.9c-5.7,6.4-11,14.3-14.4,23.1
		c-2.1,5.2-3.5,10.8-4.1,16.6h-2.9c-3.1,0-5.6,2.5-5.6,5.6c0,3.1,2.5,5.6,5.6,5.6h95.6c3.1,0,5.6-2.5,5.6-5.6
		C722.8,526.2,720.3,523.7,717.1,523.7z M704,523.9c-0.7-6.3-2-11.7-3.7-16.8c-23.4,0.6-52.9-8.1-61.8,0c-1.9,6.4-3.1,10.6-3.8,16.8
		h-4.5c0.4-6.5,1.4-12,2.9-16.8c1.8-5.6,4.2-10.3,7.1-14.3c2.3-3.1,4.8-6.1,7.4-8.8c5.2-5.3,10.8-9.5,15.9-11.8l0.9-0.4l0.5-0.8
		c0,0,2.2-2.1,2.2-5.2s-2.3-5.4-2.3-5.4l-0.5-0.8l-0.9-0.4c-7.4-3.2-16-10.7-22.6-19.6c-0.2-0.3-0.5-0.6-0.7-0.9
		c-5.3-7.5-9.1-16.8-10-31h78.3c-0.9,14.1-4.7,23.5-10,30.9c-0.2,0.3-0.5,0.7-0.7,1c-6.6,8.9-15.2,16.3-22.6,19.6l-0.9,0.4l-0.5,0.8
		c0,0-2.1,2.4-2.1,5.3s2.1,5.2,2.1,5.2l0.6,0.8l0.9,0.4c5.1,2.2,10.8,6.5,16,11.8c2.6,2.7,5.1,5.6,7.3,8.7c2.9,4,5.3,8.7,7.1,14.4
		c1.5,4.8,2.5,10.3,2.9,16.8L704,523.9L704,523.9z M672.8,457.1l0.6-0.3l0.9-0.4c5.6-3,14.7-12.7,17.5-16.8c-7.4-5.7-27.5,2.1-44.5,0
		c3.1,4.1,11.9,13.8,17.6,16.8l0.8,0.4l0.5,0.3c0,0,1.7,0.9,3,4.1l0.3,1l0.3-1C671.2,457.9,672.8,457.1,672.8,457.1z"/>
</svg>
