<?xml version="1.0" encoding="utf-8"?>
<!DOCTYPE svg PUBLIC "-//W3C//DTD SVG 1.1//EN" "http://www.w3.org/Graphics/SVG/1.1/DTD/svg11.dtd">
<svg version="1.1" xmlns="http://www.w3.org/2000/svg" viewBox="0 0 900 700">
	<text transform="matrix(1 0 0 1 86.2603 495.4912)" fill="#231F20" font-family="'FiraSans-Light'" font-size="36">making complex information understandable</text>
	<text transform="matrix(1 0 0 1 339.2662 607.5843)"><tspan x="0" y="0" fill="#231F20" font-family="'FiraSans-Book'" font-size="36">Graham Odds</tspan><tspan x="59.2" y="40" fill="#231F20" font-family="'FiraSans-Book'" font-size="24">@g_odds</tspan></text>
	<g>
		<path fill="#231F20" d="M233.6,165.5c4,0,7.2,3.2,7.2,7.2c0,4-3.2,7.2-7.2,7.2c-4,0-7.2-3.2-7.2-7.2
			C226.5,168.7,229.7,165.5,233.6,165.5z M282.9,165.5c4,0,7.2,3.2,7.2,7.2s-3.2,7.2-7.2,7.2s-7.2-3.2-7.2-7.2
			S278.9,165.5,282.9,165.5z M258.3,115.6c-55.2,0-100,44.8-100,100c0,55.2,44.8,100,100,100c55.2,0,100-44.8,100-100
			C358.3,160.4,313.5,115.6,258.3,115.6z M190.9,173.7c0-21.4,14.7-38.8,32.8-38.8c18.1,0,32.8,17.4,32.8,38.8
			c0,21.5-14.7,38.8-32.8,38.8C205.6,212.5,190.9,195.1,190.9,173.7L190.9,173.7z M223.2,285.1c5.9-15.8,19.3-26.9,35-26.9
			c15.7,0,29.1,11.1,35,26.9L223.2,285.1L223.2,285.1z M292.8,212.5c-18.1,0-32.8-17.4-32.8-38.8c0-21.4,14.7-38.8,32.8-38.8
			c18.1,0,32.8,17.4,32.8,38.8C325.6,195.1,310.9,212.5,292.8,212.5L292.8,212.5z"/>
		<text transform="matrix(1 0 0 1 157.1295 379.1789)" fill="#231F20" font-family="'FiraSans-Book'" font-size="72">aargh!</text>
	</g>
	<text transform="matrix(1 0 0 1 427.5125 232.8557)" fill="#231F20" font-family="'FiraSans-Book'" font-size="48">to</text>
	<text transform="matrix(1 0 0 1 35.9734 107.2742)" fill="#231F20" font-family="'FiraSans-Book'" font-size="48">from</text>
	<g>
		<text transform="matrix(1 0 0 1 602.6394 379.5663)" fill="#231F20" font-family="'FiraSans-Book'" font-size="72">oh!</text>
		<path d="M653.3,115.2c-55.2,0-100,44.8-100,100s44.8,100,100,100c55.2,0,100-44.8,100-100S708.5,115.2,653.3,115.2z M687.6,155.4
			c0.6-0.7,1.6,4.6,5.4,8.4c3.8,3.8,9,4.7,8.4,5.4c-0.7,0.7-7,0.8-10.8-3C686.8,162.4,686.9,156,687.6,155.4z M668.7,201.5
			c0-8.8,10.7-15.9,23.9-15.9c13.2,0,23.9,7.1,23.9,15.9v0.7h-4.3v-0.7c0-6.4-8.8-11.6-19.6-11.6c-10.8,0-19.6,5.2-19.6,11.6v0.7
			h-4.3L668.7,201.5L668.7,201.5z M613.6,163.7c3.8-3.8,4.8-9,5.4-8.4c0.7,0.7,0.8,7-3,10.8c-3.8,3.8-10.1,3.7-10.8,3
			C604.6,168.5,609.8,167.5,613.6,163.7L613.6,163.7z M590,201.5c0-8.8,10.7-15.9,23.9-15.9c13.2,0,23.9,7.1,23.9,15.9v0.7h-4.3
			v-0.7c0-6.4-8.8-11.6-19.6-11.6c-10.8,0-19.6,5.2-19.6,11.6v0.7H590L590,201.5L590,201.5z M720.5,236.1c-1,1-4.2-0.6-7.8-3.6
			c-16.6,15.8-38,23.8-59.4,23.8s-42.8-8-59.4-23.8c-3.6,3-6.8,4.6-7.8,3.6c-1.2-1.2,1.4-5.8,5.9-10.3c4.5-4.5,9.1-7.1,10.3-5.9
			c1.1,1.1-0.9,4.8-4.5,8.8c31.1,29.4,79.9,29.4,111,0c-3.6-4-5.6-7.7-4.5-8.8c1.2-1.2,5.8,1.4,10.3,5.9
			C719.1,230.3,721.7,234.9,720.5,236.1L720.5,236.1z"/>
	</g>
</svg>
