<?xml version="1.0" encoding="utf-8"?>
<!DOCTYPE svg PUBLIC "-//W3C//DTD SVG 1.1//EN" "http://www.w3.org/Graphics/SVG/1.1/DTD/svg11.dtd">
<svg version="1.1" xmlns="http://www.w3.org/2000/svg" viewBox="0 0 900 700">
	<path fill="#231F20" d="M368.8,299.4c0.2-0.3,4.5-6,14.4-9.8c0.1,0,1.8-0.5,4.3-1.4c-8.6-5.2-16.7-8.3-16.7-8.3
		c-8.7-3.1-11.3-6.1-12.1-7.7c-0.1-0.2-0.2-0.4-0.2-0.5c0,0,0-0.1,0-0.1c0,0-0.1-0.2-0.1-0.5v0c-0.3-1.2-1.2-4.3-1.2-5
		c0,0,0,0.2-0.1,0.7c-0.1-0.8-0.1-1.5,0-2.4c0,0-0.1,0.1-0.2,0.2c2.9-3.7,5.2-7.9,6.8-12.2c2.6-2.6,4-9.1,4-9.1
		c1.8-4.9,1.2-7.4,0.4-8.7c0.3-0.7,4.5-13.8-1.5-23.8c0,0-2.1-9.5-13.3-13.7c-10.3-6.3-25.7-2.5-25.7-2.5
		c-18.8,3.2-22.8,25.3-22.8,25.3c-1.1,10.1,1.6,16.4,1.7,16.7c-1,2.4,0.8,8.6,0.8,8.6c0.6,3.8,2.5,5,3,5.2c1.3,4.7,3.6,9.3,6.4,13.4
		c0,0,0,0-0.1-0.1c0,0,0.3,1.5,0,3.7c0-0.2-0.1-0.3-0.1-0.3c0,0.9-1.1,4.1-1.2,4.5c0,0,0,0,0,0.1c-0.9,1.2-1.7,2.2-2.6,3.2
		c-7,5.4-23.8,10.5-23.8,10.5c-7.3,2.8-10.4,7-10.4,7c-10.8,16-12.1,32.1-12.1,32.1c0.1,8.2,3.7,9,3.7,9
		c24.9,11.1,64.5,11.8,64.5,11.8c6.4,0.1,12.4-0.1,18.2-0.4c0-0.7-0.1-1.2-0.1-2C352.5,342.5,354.4,320.8,368.8,299.4z M621,295.6
		c-10.8-9.6-27-15.8-27-15.8c-8.7-3.1-11.3-6.1-12.1-7.7c-0.1-0.2-0.2-0.4-0.2-0.5c0,0,0-0.1,0-0.1c0,0-0.1-0.2-0.1-0.5v0
		c-0.3-1.2-1.2-4.3-1.2-5c0,0,0,0.2-0.1,0.7c-0.1-0.8-0.1-1.5,0-2.4c0,0-0.1,0.1-0.2,0.2c2.9-3.7,5.2-7.9,6.8-12.2
		c2.6-2.6,4-9.1,4-9.1c1.8-4.9,1.2-7.4,0.4-8.7c0.3-0.7,4.4-13.8-1.5-23.8c0,0-2.1-9.5-13.3-13.7c-10.3-6.3-25.7-2.5-25.7-2.5
		c-18.8,3.2-22.8,25.3-22.8,25.3c-1.1,10.1,1.6,16.4,1.7,16.7c-1,2.4,0.8,8.6,0.8,8.6c0.6,3.8,2.5,5,3,5.2c1.3,4.7,3.6,9.3,6.4,13.4
		c0,0,0,0-0.1-0.1c0,0,0.3,1.5,0,3.7c0-0.2-0.1-0.3-0.1-0.3c0,0.9-1.1,4.1-1.2,4.5c0,0,0,0,0,0.1c-0.9,1.2-1.7,2.2-2.6,3.2
		c-7,5.4-23.8,10.5-23.8,10.5c-2.2,0.9-4,1.9-5.5,2.8c7.3,3.7,16.2,9,23.4,15.3c0.6,0.4,15.2,11.3,13.8,40.9c8.3,0.7,14,0.8,14,0.8
		c40.1,0.8,68.7-10.1,68.7-10.1c4.2-2.7,4.4-4.8,4.4-4.8C633.6,304.8,621,295.6,621,295.6z M528.3,305.3c-7.4-6.6-16.8-12-24.1-15.6
		c-6.6-3.3-11.6-5.2-11.7-5.3c-11.3-4-15.4-8.1-16.8-10.8l-0.6-1.6c-0.2-0.6-0.3-1.1-0.4-1.6l-0.7,3.2l-0.6-7.6
		c-0.1-1.1-0.1-2.2,0-3.3l0-0.4c3.7-4.8,6.8-10.3,8.8-15.9l0.3-0.4c3.2-3.2,5-11.4,5-11.5c2.4-6.6,1.5-9.5,0.7-10.7l-0.3-0.5l0.2-0.5
		c0.2-0.7,5.8-17.8-1.9-30.8l-0.1-0.3c0-0.1-2.9-12.1-17-17.4c-5.3-3.2-12-4.8-20-4.8c-7.6,0-13.6,1.5-13.6,1.5
		c-24,4.1-29.5,32.5-29.5,32.7c-1.4,13,2,21.2,2.2,21.5l0.2,0.5l-0.2,0.5c-0.8,2,0.2,7.7,1.1,10.7c0.7,4.6,2.8,5.9,3.4,6.2l0.5,0.2
		l0.1,0.5c1.7,6,4.6,12.1,8.4,17.4l6.4,9.1l-6.1-5.6c0,0.7-0.1,1.4-0.2,2.2l-1,7.3l-0.5-2.5c-0.1,0.3-0.2,0.5-0.3,0.8l-0.1,0.4
		c-1.3,1.7-2.4,3.2-3.6,4.5c-6.5,5.1-18.8,9.8-26.2,12.3c-3.4,1.2-5.8,1.9-6.1,2c-9.2,3.5-13.2,8.9-13.3,8.9
		c-14.1,20.8-15.9,41.9-15.9,42.1c0,0.7,0.1,1.2,0.1,1.8c0.6,7.8,3.8,9,3.9,9c32.8,14.6,85.2,15.6,85.7,15.6
		c52.8,1.1,90.8-13.2,91.2-13.4c4.7-3,5.1-5.4,5.1-5.4c0.3-2.2,0.4-4.3,0.5-6.4C542.5,316,528.5,305.4,528.3,305.3z"/>
</svg>
