<?xml version="1.0" encoding="utf-8"?>
<!DOCTYPE svg PUBLIC "-//W3C//DTD SVG 1.1//EN" "http://www.w3.org/Graphics/SVG/1.1/DTD/svg11.dtd">
<svg version="1.1" xmlns="http://www.w3.org/2000/svg" viewBox="0 0 400 318">
	<path d="M334,318 M168.8,9c-3.8,0-8.8,1.4-11.3,3.9L67.6,92.6c-2.5,2.5-7.6,3.9-11.3,3.9h-50C2.5,96.5,0,99,0,102.7v112.5
		c0,3.8,2.5,6.2,6.2,6.2h50c3.8,0,8.8,1.4,11.3,3.9l89.9,78.5c2.5,2.5,7.6,3.9,11.3,3.9s6.2-2.5,6.2-6.2V14.1
		C175,11.6,172.5,9,168.8,9L168.8,9z M227.7,106.2l-18,18c9,9,15.2,22.4,15.2,34.8c0,12.4-6.3,25.8-15.2,34.8l18,18
		c13.5-13.5,22.3-32.6,22.3-52.7S241.3,119.8,227.7,106.2z"/>
	<path d="M334,0l-18,18c36.6,36.6,59,85.6,59,141s-22.4,104.4-59,141l18,18c40.9-40.9,66-96.9,66-159S374.9,40.9,334,0z"/>
	<path d="M281.2,52.7l-17.6,17.6C286.5,93.1,300,123.5,300,159s-13.5,65.9-36.3,88.7l17.6,17.6C308.5,238,325,201,325,159
		S308.5,79.9,281.2,52.7z"/>
</svg>
